<?xml version="1.0" encoding="UTF-8" standalone="no"?>
<!-- Created with Inkscape (http://www.inkscape.org/) -->

<svg
   width="512"
   height="512"
   viewBox="0 0 135.46666 135.46667"
   version="1.1"
   id="svg8"
   inkscape:version="1.2.2 (b0a8486541, 2022-12-01)"
   sodipodi:docname="icon.svg"
   inkscape:export-filename="/home/tristan/Scripts/8values/icon.png"
   inkscape:export-xdpi="96.000008"
   inkscape:export-ydpi="96.000008"
   xmlns:inkscape="http://www.inkscape.org/namespaces/inkscape"
   xmlns:sodipodi="http://sodipodi.sourceforge.net/DTD/sodipodi-0.dtd"
   xmlns="http://www.w3.org/2000/svg"
   xmlns:svg="http://www.w3.org/2000/svg"
   xmlns:rdf="http://www.w3.org/1999/02/22-rdf-syntax-ns#"
   xmlns:cc="http://creativecommons.org/ns#"
   xmlns:dc="http://purl.org/dc/elements/1.1/">
  <defs
     id="defs2" />
  <sodipodi:namedview
     id="base"
     pagecolor="#ffffff"
     bordercolor="#666666"
     borderopacity="1.0"
     inkscape:pageopacity="0.0"
     inkscape:pageshadow="2"
     inkscape:zoom="0.7"
     inkscape:cx="-90.714286"
     inkscape:cy="164.28571"
     inkscape:document-units="px"
     inkscape:current-layer="layer1"
     showgrid="false"
     units="px"
     inkscape:window-width="1920"
     inkscape:window-height="1012"
     inkscape:window-x="0"
     inkscape:window-y="0"
     inkscape:window-maximized="1"
     inkscape:lockguides="true"
     inkscape:showpageshadow="2"
     inkscape:pagecheckerboard="0"
     inkscape:deskcolor="#d1d1d1" />
  <metadata
     id="metadata5">
    <rdf:RDF>
      <cc:Work
         rdf:about="">
        <dc:format>image/svg+xml</dc:format>
        <dc:type
           rdf:resource="http://purl.org/dc/dcmitype/StillImage" />
        <dc:title />
      </cc:Work>
    </rdf:RDF>
  </metadata>
  <g
     inkscape:label="Layer 1"
     inkscape:groupmode="layer"
     id="layer1"
     transform="translate(0,-161.53331)">
    <rect
       style="opacity:1;fill:#eeeeee;fill-opacity:1;fill-rule:nonzero;stroke:none;stroke-width:0.26458332;stroke-linecap:butt;stroke-linejoin:round;stroke-miterlimit:4;stroke-dasharray:none;stroke-dashoffset:0;stroke-opacity:0.90944878;paint-order:normal"
       id="rect4491"
       width="127"
       height="127"
       x="4.2333326"
       y="165.76665"
       rx="33.866665"
       ry="33.866665" />
    <path
       fill="currentColor"
       d="m 65.927145,182.66895 v 3.75487 c -10.17487,0.79071 -17.640455,8.15395 -18.704101,15.58742 h 41.040649 c -1.063644,-7.43347 -8.549299,-14.79872 -18.724169,-15.58742 v -3.75487 z m -18.844582,22.95467 v 3.27121 c 0.6422,0.34117 1.184057,0.84289 1.545295,1.36468 0.66227,0.98337 1.003439,2.10722 1.224196,3.23107 0.421445,2.28784 0.441513,4.1141 0.441513,6.38187 v 14.24884 h 2.78956 v -15.65365 l 0.16055,-3.61238 c 0.521789,-2.97018 2.327979,-5.35837 4.655956,-6.92373 1.705847,-1.14392 3.672587,-1.88647 5.739671,-2.30791 z m 24.744802,0 c 2.067084,0.42144 4.033824,1.16399 5.739671,2.30791 2.327977,1.56536 4.134167,3.95355 4.655956,6.92373 l 0.16055,3.61238 v 15.65365 h 2.809628 v -14.24884 c 0,-2.14736 0.0602,-4.51547 0.441514,-6.38187 0.220756,-1.12385 0.561926,-2.2477 1.224195,-3.23107 0.361238,-0.52179 0.903095,-1.02351 1.545296,-1.36468 v -3.27121 z m -4.094031,3.21101 c -2.909972,0 -5.799876,0.76261 -7.826822,2.10721 -1.525228,1.00345 -2.568804,2.24771 -2.990248,3.91342 h 21.634141 c -0.421444,-1.66571 -1.46502,-2.90997 -2.990248,-3.91342 -2.026946,-1.3446 -4.91685,-2.10721 -7.826823,-2.10721 m -22.336548,3.23107 c -2.388185,0.34117 -5.378433,1.78612 -7.626136,3.51204 -1.063645,0.82281 -1.964733,1.70584 -2.588872,2.48852 H 46.64105 c -0.02007,-1.30447 -0.100344,-2.68921 -0.321101,-3.8532 -0.220756,-0.72248 -0.341169,-1.68578 -0.923163,-2.14736 m 44.693166,0 c -0.521788,0.46158 -0.802751,1.54529 -0.923164,2.14736 -0.220756,1.16399 -0.301031,2.54873 -0.3211,3.8532 h 11.439202 c -0.622135,-0.78268 -1.505164,-1.66571 -2.588878,-2.48852 -2.2477,-1.72592 -5.217873,-3.17087 -7.60606,-3.51204 m -33.394445,6.40194 v 15.65365 h 1.80619 c 0.16055,-0.14049 0.321101,-0.28097 0.48165,-0.40138 q 0.903095,-0.72248 1.926603,-1.26433 v -6.96387 c 0,-1.6055 1.204127,-2.40825 2.408253,-2.40825 1.204127,0 2.408254,0.80275 2.408254,2.40825 v 5.53899 c 0.642201,-0.0803 1.30447,-0.12042 2.006877,-0.12042 0.702408,0 1.364677,0.0401 2.006878,0.12042 v -5.53899 c 0,-1.6055 1.204127,-2.40825 2.408254,-2.40825 1.204126,0 2.408253,0.80275 2.408253,2.40825 v 6.96387 q 1.023508,0.54185 1.926603,1.26433 c 0.160549,0.12041 0.3211,0.26089 0.48165,0.40138 h 1.80619 v -15.65365 z m -22.477031,3.211 v 12.44265 h 12.462711 v -12.44265 z m 54.587074,0 v 12.44265 h 12.44264 v -12.44265 z m -47.563001,1.40482 c 1.204126,0 2.408253,0.80275 2.408253,2.40825 v 6.42201 h -4.816507 v -6.42201 c 0,-1.6055 1.204127,-2.40825 2.408254,-2.40825 m 52.981566,0 c 1.204127,0 2.408253,0.80275 2.408253,2.40825 v 6.42201 h -4.816501 v -6.42201 c 0,-1.6055 1.204125,-2.40825 2.408248,-2.40825 m -26.490781,11.4392 c -2.909972,0 -4.816506,0.66227 -6.502283,2.00688 -1.685777,1.34461 -3.170867,3.53211 -4.716163,6.6227 l -0.501719,1.00344 h -12.16168 v 6.02063 H 91.61518 v -6.02063 H 79.433432 l -0.50172,-1.00344 c -1.545295,-3.09059 -3.030385,-5.27809 -4.716163,-6.6227 -1.685777,-1.34461 -3.572242,-2.00688 -6.482215,-2.00688 m -35.321048,3.21101 c -2.60894,0 -4.465303,1.24426 -5.813924,2.93004 -0.778668,0.98336 -1.302463,2.10722 -1.629584,3.09059 H 40.23911 v -3.211 h 13.566493 c 0.541857,-1.00344 1.083714,-1.94668 1.64564,-2.80963 z m 47.583071,0 c 0.561926,0.86295 1.103783,1.80619 1.64564,2.80963 h 13.586559 v 3.211 H 110.4999 c -0.3211,-0.98337 -0.84289,-2.10723 -1.62557,-3.09059 -1.34461,-1.68578 -3.21101,-2.93004 -5.81995,-2.93004 z m -55.409893,9.63301 v 9.23163 h 6.399933 c 0.272935,-0.64219 0.670297,-1.22419 1.115823,-1.72591 0.828841,-0.9633 1.868404,-1.76605 2.994263,-2.42832 1.651659,-0.98337 3.437781,-1.74599 5.143627,-2.08715 v -2.99025 z m 70.642092,0 v 2.99025 c 1.705848,0.34116 3.491968,1.10378 5.137604,2.08715 1.12386,0.66227 2.16743,1.46502 3.01032,2.42832 0.44152,0.50172 0.84289,1.08372 1.10378,1.72591 h 6.40194 v -9.23163 z M 42.0453,253.78869 c -1.003439,0 -3.331417,0.68234 -5.097469,1.74598 -0.549885,0.34117 -1.025515,0.70241 -1.444952,1.06364 H 99.96379 c -0.421448,-0.36123 -0.903098,-0.72247 -1.444952,-1.06364 -1.766057,-1.06364 -4.09403,-1.74598 -5.097468,-1.74598 z m -17.963563,6.422 -2.006877,6.02064 h 11.742241 v -6.02064 h -3.211005 z m 13.347744,0 v 15.65365 H 56.3142 c 0.140481,-5.69953 0.923164,-10.1548 2.568804,-13.44608 0.401375,-0.80275 0.883026,-1.54529 1.424883,-2.20757 z m 30.303853,0 c -2.608941,0 -4.214442,1.04358 -5.599188,3.81308 -1.264333,2.50859 -2.006878,6.52234 -2.167428,11.84057 H 75.52002 c -0.120412,-5.35836 -0.682339,-9.43232 -1.826259,-11.88071 -1.264333,-2.74943 -2.769491,-3.77294 -5.960427,-3.77294 m 7.846893,0 c 0.541857,0.66228 1.003438,1.42489 1.384745,2.24771 1.545296,3.35149 2.107222,7.76661 2.187497,13.40594 h 18.884719 v -15.65365 z m 26.069343,0 v 6.02064 h 11.74023 l -2.00688,-6.02064 h -6.52235 z m -58.801519,2.20757 c 1.204127,0 2.408253,0.80275 2.408253,2.40825 v 6.42202 h -4.816506 v -6.42202 c 0,-1.6055 1.204126,-2.40825 2.408253,-2.40825 m 8.027511,0 c 1.204126,0 2.408253,0.80275 2.408253,2.40825 v 6.42202 h -4.816506 v -6.42202 c 0,-1.6055 1.204126,-2.40825 2.408253,-2.40825 m 33.715545,0 c 1.204127,0 2.408253,0.80275 2.408253,2.40825 v 6.42202 h -4.816506 v -6.42202 c 0,-1.6055 1.204127,-2.40825 2.408253,-2.40825 m 8.027515,0 c 1.204123,0 2.408249,0.80275 2.408249,2.40825 v 6.42202 h -4.816506 v -6.42202 c 0,-1.6055 1.204126,-2.40825 2.408257,-2.40825 m -71.244163,7.42545 v 6.02063 h 12.442642 v -6.02063 z m 80.275111,0 v 6.02063 h 12.44264 v -6.02063 z"
       id="path291"
       style="stroke-width:0.200688" />
  </g>
</svg>
