<?xml version="1.0" encoding="UTF-8" standalone="no"?>
<!-- Created with Inkscape (http://www.inkscape.org/) -->

<svg
   width="200"
   height="200"
   viewBox="0 0 52.916668 52.916666"
   version="1.1"
   id="svg8"
   inkscape:version="1.2.2 (b0a8486541, 2022-12-01)"
   sodipodi:docname="antisunni.svg"
   xml:space="preserve"
   xmlns:inkscape="http://www.inkscape.org/namespaces/inkscape"
   xmlns:sodipodi="http://sodipodi.sourceforge.net/DTD/sodipodi-0.dtd"
   xmlns="http://www.w3.org/2000/svg"
   xmlns:svg="http://www.w3.org/2000/svg"
   xmlns:rdf="http://www.w3.org/1999/02/22-rdf-syntax-ns#"
   xmlns:cc="http://creativecommons.org/ns#"
   xmlns:dc="http://purl.org/dc/elements/1.1/"><defs
     id="defs2"><inkscape:path-effect
       effect="envelope"
       id="path-effect4658"
       is_visible="true"
       yy="true"
       xx="true"
       bendpath1="m -199.08406,108.42369 h 7.0057"
       bendpath2="m -192.07836,108.42369 v 6.75242"
       bendpath3="m -199.08406,115.17611 h 7.0057"
       bendpath4="m -199.08406,108.42369 v 6.75242" /><inkscape:path-effect
       effect="bend_path"
       id="path-effect4656"
       is_visible="true"
       bendpath="m -192.00142,114.60623 c 2.12577,-0.53066 4.48261,0.85111 7.0057,0"
       prop_scale="1"
       scale_y_rel="false"
       vertical="false"
       bendpath-nodetypes="cc" /><inkscape:path-effect
       effect="bounding_box"
       id="path-effect4654"
       is_visible="true"
       linkedpath=""
       visualbounds="false" /><clipPath
       id="clip0"><rect
         x="1064"
         y="101"
         width="2274"
         height="2273"
         id="rect13706" /></clipPath><linearGradient
       x1="1072.04"
       y1="110.042"
       x2="3327.96"
       y2="2365.96"
       gradientUnits="userSpaceOnUse"
       spreadMethod="reflect"
       id="stroke1"><stop
         offset="0"
         stop-color="#FDCE1E"
         id="stop13709" /><stop
         offset="0.81"
         stop-color="#FFC406"
         id="stop13711" /><stop
         offset="1"
         stop-color="#FFC406"
         id="stop13713" /></linearGradient><linearGradient
       x1="1064.5"
       y1="100.5"
       x2="3337.5"
       y2="2374.5"
       gradientUnits="userSpaceOnUse"
       spreadMethod="reflect"
       id="fill2"
       gradientTransform="matrix(0.28634496,0,0,0.28634496,1246.0656,363.47188)"><stop
         offset="0"
         stop-color="#F7DC85"
         id="stop13716" /><stop
         offset="0.97"
         stop-color="#CFB668"
         id="stop13718" /><stop
         offset="1"
         stop-color="#CFB668"
         id="stop13720" /></linearGradient></defs><sodipodi:namedview
     id="base"
     pagecolor="#ffffff"
     bordercolor="#666666"
     borderopacity="1.0"
     inkscape:pageopacity="0.0"
     inkscape:pageshadow="2"
     inkscape:zoom="3.6203867"
     inkscape:cx="92.255338"
     inkscape:cy="92.807765"
     inkscape:document-units="px"
     inkscape:current-layer="g5175"
     showgrid="false"
     fit-margin-top="0"
     fit-margin-left="0"
     fit-margin-right="0"
     fit-margin-bottom="0"
     inkscape:window-width="1920"
     inkscape:window-height="1012"
     inkscape:window-x="0"
     inkscape:window-y="0"
     inkscape:window-maximized="1"
     showguides="false"
     inkscape:object-nodes="true"
     units="px"
     inkscape:snap-page="true"
     inkscape:showpageshadow="2"
     inkscape:pagecheckerboard="0"
     inkscape:deskcolor="#d1d1d1" /><metadata
     id="metadata5"><rdf:RDF><cc:Work
         rdf:about=""><dc:format>image/svg+xml</dc:format><dc:type
           rdf:resource="http://purl.org/dc/dcmitype/StillImage" /></cc:Work></rdf:RDF></metadata><g
     inkscape:label="Layer 1"
     inkscape:groupmode="layer"
     id="layer1"
     transform="translate(98.048812,-95.14345)"><g
       style="stroke-width:0.5"
       transform="matrix(2,0,0,2,-98.048812,95.143449)"
       id="g5175"><rect
         y="-1.110223e-16"
         x="0"
         height="26.458334"
         width="26.458334"
         id="rect5163"
         style="opacity:1;fill:#222222;fill-opacity:1;fill-rule:nonzero;stroke:none;stroke-width:0.25;stroke-linecap:butt;stroke-linejoin:round;stroke-miterlimit:4;stroke-dasharray:none;stroke-dashoffset:0;stroke-opacity:0.90944878;paint-order:normal"
         rx="1.984375"
         ry="1.984375" /><rect
         style="opacity:1;fill:#165016;fill-opacity:1;fill-rule:nonzero;stroke:none;stroke-width:0.25;stroke-linecap:butt;stroke-linejoin:round;stroke-miterlimit:4;stroke-dasharray:none;stroke-dashoffset:0;stroke-opacity:0.90944878;paint-order:normal"
         id="rect5165"
         width="23.8125"
         height="23.8125"
         x="1.322917"
         y="1.322917"
         rx="1.3229166"
         ry="1.3229166" /><path
         style="opacity:1;fill:#222222;fill-opacity:1;fill-rule:nonzero;stroke:none;stroke-width:0.25;stroke-linecap:butt;stroke-linejoin:round;stroke-miterlimit:4;stroke-dasharray:none;stroke-dashoffset:0;stroke-opacity:0.909449;paint-order:normal"
         d="m 0.72760458,18.520836 v 4.167188 c 0,1.539081 1.23904402,2.778124 2.77812502,2.778124 H 22.952604 c 1.539081,0 2.778125,-1.239043 2.778125,-2.778124 v -4.167188 z"
         id="rect5205-3-6"
         inkscape:connector-curvature="0" /><text
         xml:space="preserve"
         style="font-size:3.86446px;display:inline;fill:#222222;fill-opacity:1;stroke-width:0.161021"
         x="1.6414479"
         y="23.486065"
         id="text2040"><tspan
           sodipodi:role="line"
           id="tspan2038"
           style="font-style:normal;font-variant:normal;font-weight:bold;font-stretch:normal;font-family:'Gothic A1';-inkscape-font-specification:'Gothic A1 Bold';fill:#ffffff;fill-opacity:1;stroke-width:0.161021"
           x="1.6414479"
           y="23.486065">ANTI-SUNNI</tspan></text></g></g><style
     type="text/css"
     id="style3491">
	.st0{fill-rule:evenodd;clip-rule:evenodd;fill:#007F00;}
</style><g
     style="overflow:hidden;fill:#ffdd55"
     id="g13748"
     transform="matrix(0.06793208,0,0,0.06793208,-28.365161,-22.088009)"><g
       clip-path="url(#clip0)"
       transform="translate(-1064,-101)"
       id="g13729"
       style="fill:#ffdd55"><path
         d="m 1947.5593,476.91371 c -2.4426,1.0022 -7.2102,2.98772 -10.5977,4.41228 -13.4983,5.67851 -26.4239,11.1099 -30.5014,12.81652 -2.3624,0.98932 -10.8039,4.53542 -18.7585,7.88021 -14.8756,6.25464 -26.6301,11.18463 -47.831,20.0599 -11.1646,4.67515 -30.974,12.972 -53.412,22.37385 l -8.8795,3.72048 -2.769,4.49275 c -2.4683,4.00224 -4.9423,8.61898 -4.7333,8.82945 0.043,0.0426 9.3521,-3.98507 20.6884,-8.95 72.6372,-31.81464 126.6934,-55.13057 149.6353,-64.54158 4.9595,-2.03563 5.0311,-2.07686 7.0212,-4.11735 1.1081,-1.13422 2.8205,-3.27207 3.8112,-4.7519 1.7697,-2.64955 2.119,-3.80323 1.1941,-3.9696 -0.2348,-0.0427 -2.4253,0.74249 -4.8678,1.74499 m 36.7409,23.05277 c -0.819,0.29092 -2.2364,1.01967 -3.1499,1.61985 -1.97,1.29743 -6.1134,5.39532 -6.8407,6.76834 -0.7703,1.45463 -0.7102,4.07011 0.1317,5.78388 0.7016,1.42085 3.0696,4.03488 5.0282,5.5485 l 1.1225,0.86677 -0.8963,1.11789 c -1.048,1.30402 -6.3855,6.17761 -10.841,9.89551 -12.7795,10.67322 -31.1543,22.47178 -51.439,33.03018 -3.5822,1.86554 -4.7963,2.63179 -4.7963,3.02867 0,0.29178 0.1174,0.60448 0.2635,0.6941 0.1432,0.0899 1.4661,-0.27489 2.935,-0.81007 10.9298,-3.98163 25.7596,-10.93981 32.5002,-15.24987 8.4557,-5.40763 19.0161,-14.12454 30.1063,-24.8556 l 4.4612,-4.31379 3.4791,3.6446 c 1.9156,2.00499 3.5793,3.64517 3.6939,3.64517 0.335,0 1.6894,-1.66023 2.3938,-2.93589 1.4432,-2.60546 0.3579,-4.65368 -4.6016,-8.7006 l -1.0938,-0.89282 1.0509,-1.64477 c 2.4826,-3.87911 4.0289,-8.28024 3.7912,-10.77287 -0.1718,-1.77419 -1.2656,-3.9066 -2.5112,-4.8879 -1.343,-1.05777 -2.9036,-1.24647 -4.7877,-0.57928 m -2.8034,5.67593 c -3.2958,0.8135 -3.6308,1.97434 -1.4345,4.96923 1.2427,1.69373 4.0145,4.13654 4.4125,3.89028 0.484,-0.29923 1.2514,-4.42403 1.1053,-5.94051 -0.2119,-2.2249 -1.9271,-3.45017 -4.0833,-2.919 m -252.2126,14.49793 c -1.8641,2.52356 -3.817,7.25655 -5.389,13.0559 -2.5084,9.25753 -2.958,15.21465 -1.3773,18.27224 1.7037,3.29154 4.6301,4.25423 9.3606,3.07936 4.1978,-1.04201 7.2588,-3.50458 9.1344,-7.34418 1.5291,-3.12947 2.1046,-5.92763 2.1447,-10.44787 0.032,-3.3405 -0.032,-3.80581 -0.7159,-5.42194 -0.4094,-0.97214 -1.1711,-2.39012 -1.6894,-3.15094 -2.2535,-3.30728 -8.8538,-9.26011 -10.2654,-9.26011 -0.1661,0 -0.7073,0.54807 -1.2027,1.21754 m -1.6723,13.26923 c -2.0158,4.8398 -2.6945,10.45502 -1.4317,11.81173 1.0423,1.11932 4.7018,0.70268 7.9661,-0.906 2.2421,-1.10586 5.4836,-3.73365 5.4836,-4.44551 0,-0.88366 -1.5749,-2.76093 -3.5479,-4.22702 -2.1962,-1.63016 -6.7491,-4.40284 -7.233,-4.40284 -0.1833,0 -0.7417,0.97643 -1.2371,2.16964 m 96.0774,49.04745 c -0.4725,0.30381 -1.134,0.85989 -1.4747,1.23529 -0.796,0.88338 -11.4309,20.97764 -12.0236,22.72176 -0.6271,1.83748 -0.3236,3.74167 0.7502,4.72326 0.8333,0.76139 8.9311,6.04618 15.1878,9.91412 9.3491,5.77816 11.0013,5.82626 13.9049,0.4069 0.7988,-1.49071 3.4905,-6.50719 5.9817,-11.14798 4.1377,-7.71041 4.5414,-8.58863 4.6703,-10.19388 0.1746,-2.19856 -0.3494,-3.38489 -2.0187,-4.55862 -4.6789,-3.29067 -16.3504,-10.93809 -18.3777,-12.04367 -2.9808,-1.62558 -5.1713,-1.97663 -6.6002,-1.05718 m 120.7202,5.22007 c -18.1543,0.81579 -31.4407,3.23484 -37.4798,6.8236 -8.9425,5.31313 -13.0544,12.41534 -14.3516,24.79117 -0.7101,6.77693 -0.3207,13.90119 1.0194,18.61844 2.5972,9.13555 7.9232,13.93698 29.044,26.18109 12.5734,7.28748 17.908,10.74939 22.0543,14.31438 l 1.0022,0.8619 -4.5815,4.69321 c -8.3355,8.53594 -14.4347,16.43048 -20.362,26.36092 -3.8714,6.47998 -8.2811,15.90357 -10.2655,21.9283 -0.272,0.82751 -0.587,1.50331 -0.7015,1.50331 -0.1146,0 -0.7818,-0.36937 -1.4804,-0.82182 -7.717,-4.9881 -15.5686,-26.55276 -24.6228,-67.63755 -3.5994,-16.32968 -3.8542,-17.21449 -6.0104,-20.91492 -1.154,-1.97722 -3.7397,-4.64996 -4.8335,-4.9973 -1.2914,-0.41004 -2.517,0.0888 -3.8456,1.56631 -1.5062,1.67741 -2.4683,3.95614 -4.4699,10.59849 -5.5379,18.38334 -13.2978,27.49198 -24.8776,29.20145 -7.4822,1.1053 -13.6329,-3.35596 -18.7671,-13.6157 -0.7158,-1.43172 -1.6436,-3.01235 -2.0645,-3.51059 -1.6952,-2.013 -3.4304,-0.55551 -4.1549,3.48769 -0.3808,2.12181 -1.3859,11.39939 -2.3967,22.08866 l -0.3522,3.70817 1.3516,1.78393 c 6.0533,7.99761 11.7745,19.27674 15.2392,30.04043 2.2908,7.1128 3.6109,13.24349 4.5014,20.89461 l 0.3321,2.84911 -1.2942,1.16256 c -12.3959,11.11594 -21.8482,18.50935 -34.2011,26.75609 -29.336,19.57739 -58.3113,30.8365 -84.1281,32.68915 -16.8686,1.21122 -32.7894,-1.42888 -46.6228,-7.72561 -6.9896,-3.18126 -10.9841,-5.90154 -15.2822,-10.39718 -6.5945,-6.89805 -10.778,-15.46545 -12.9628,-26.55561 -2.1648,-10.98421 -2.119,-24.85474 0.1317,-39.10043 1.3831,-8.77359 2.4597,-13.86767 5.1027,-24.21618 1.5148,-5.91875 1.7954,-8.04916 1.3286,-9.99916 -1.1425,-4.76192 -5.7784,-3.45046 -8.4615,2.39384 -2.3136,5.04254 -6.2251,18.91881 -8.4042,29.81708 -2.663,13.32937 -3.7597,23.75522 -3.7568,35.71585 0.01,13.92493 1.6551,24.96354 5.3145,35.47242 3.5679,10.254 8.7307,18.42341 16.1957,25.63068 9.123,8.80225 21.2898,15.3109 35.5841,19.03338 28.3453,7.38197 63.1305,2.37094 94.2676,-13.58418 23.1195,-11.84614 42.7399,-28.56008 57.8417,-49.2771 2.8463,-3.90003 4.1062,-6.23375 5.3031,-9.82164 2.4883,-7.45646 3.545,-19.49727 2.9007,-33.0328 -0.335,-7.04122 -1.1626,-16.1756 -1.8956,-20.91175 -0.2348,-1.51476 -0.4266,-2.80332 -0.4266,-2.86345 0.01,-0.0601 1.3229,-0.1174 2.9378,-0.12599 2.4798,-0.0143 3.2128,-0.13172 4.7333,-0.75882 6.039,-2.48833 10.5461,-7.43351 14.7038,-16.12408 1.7954,-3.75685 4.5243,-11.62562 5.6868,-16.39899 0.3952,-1.6293 0.7846,-2.65156 1.0108,-2.65156 0.7388,0 2.0674,1.61786 2.686,3.2672 0.3464,0.93062 0.7559,2.6716 0.9105,3.86852 0.1518,1.19692 0.2749,9.47231 0.2721,18.38909 -0.01,17.28951 0.2978,23.71793 1.4431,30.47571 3.0954,18.28883 11.0386,28.74041 24.6171,32.3999 1.0223,0.2749 1.9013,0.52978 1.95,0.56409 0.083,0.0545 -0.3236,3.32164 -1.1024,8.85665 -0.1546,1.10247 -0.5584,5.09696 -0.8934,8.87959 -0.8905,9.99059 -0.8905,28.43978 -0.01,37.52263 0.733,7.49936 1.5204,13.07454 2.5026,17.75911 0.3952,1.89277 0.8533,4.14631 1.0194,5.01393 0.3837,2.0187 1.6837,6.61455 3.1612,11.17029 3.2988,10.18242 7.9318,19.33116 13.7074,27.07105 2.3738,3.18132 7.8487,8.95402 10.8983,11.49675 7.0211,5.84719 15.9809,10.63487 26.2865,14.03948 19.3426,6.39125 40.2028,6.37122 60.1839,-0.0601 28.3339,-9.12296 53.5523,-29.4878 73.2814,-59.18176 10.4946,-15.79766 20.5567,-37.94362 24.6371,-54.23373 2.2708,-9.06282 3.1756,-17.6675 2.6373,-25.0638 -1.1883,-16.27583 -8.1064,-28.41401 -22.1631,-38.88567 -1.4518,-1.07949 -4.636,-3.30725 -7.0785,-4.94804 -7.5967,-5.10265 -10.5689,-8.66764 -11.4824,-13.77604 -0.3093,-1.73525 -0.2892,-2.4597 0.1546,-5.29165 0.7388,-4.70179 0.2663,-6.75201 -1.781,-7.72272 -1.9644,-0.93349 -4.7562,0.34933 -6.228,2.86344 -0.4181,0.71014 -1.2084,2.5542 -1.7582,4.09187 -3.3244,9.30335 -6.8494,15.49413 -11.3822,19.99836 -2.0903,2.076 -3.0897,2.82623 -5.0454,3.79116 -5.4463,2.68596 -11.3822,2.1333 -17.8965,-1.66935 -2.0016,-1.16831 -6.1565,-4.20356 -6.1565,-4.49565 0,-0.0859 0.3866,-1.36299 0.8591,-2.83767 2.1905,-6.84364 3.6394,-14.01372 3.2986,-16.32165 -0.094,-0.65287 -0.4237,-1.40882 -0.7273,-1.68371 -0.4896,-0.44384 -0.6614,-0.45816 -1.4832,-0.11741 -1.2485,0.51829 -4.7648,3.89716 -6.5201,6.26523 -0.7846,1.05661 -3.1842,4.61875 -5.3346,7.91458 -4.9738,7.62538 -7.2044,10.5747 -10.1853,13.47251 -5.1599,5.01963 -9.3893,6.69763 -16.86,6.69763 -5.1026,0 -9.6212,-1.14253 -12.7796,-3.23571 -2.0731,-1.37442 -4.5386,-4.04604 -5.5579,-6.02758 l -0.9106,-1.76387 1.2284,-2.00442 c 1.7467,-2.85771 3.8886,-7.44495 4.4068,-9.44078 0.61,-2.35089 0.567,-3.4705 -0.1603,-4.19781 -0.5154,-0.51543 -0.859,-0.58701 -2.3051,-0.48106 -1.3544,0.0974 -2.3537,0.45242 -4.9108,1.7467 -4.2493,2.15045 -7.2302,4.44121 -13.4381,10.33706 -9.69,9.19741 -13.4382,11.89765 -19.8409,14.3029 -1.8985,0.71586 -7.0298,1.90995 -8.1894,1.90995 -0.5155,0 -0.5183,-0.0317 -0.04,-0.80748 1.0509,-1.71237 6.7921,-9.55823 10.0965,-13.79899 5.5436,-7.1128 10.1109,-12.37868 15.1734,-17.48994 4.3439,-4.38681 10.5834,-9.74719 11.3021,-9.7071 0.1632,0.0114 1.3286,1.50045 2.5886,3.31301 2.4081,3.46192 5.661,6.84651 6.8722,7.1529 1.7381,0.43525 2.4225,-0.70154 2.7403,-4.53284 0.398,-4.79628 0.3207,-9.76722 -0.189,-12.00071 -0.2491,-1.10529 -0.4123,-2.04451 -0.3579,-2.09033 0.2606,-0.21189 10.3743,-5.99607 17.427,-9.96481 38.3186,-21.56464 71.6492,-37.74599 90.9431,-44.15468 6.1936,-2.0571 6.543,-2.48891 9.2576,-11.49732 4.5786,-15.1949 5.0998,-17.58559 4.2207,-19.27761 -1.1425,-2.19655 -3.0983,-3.02952 -8.4758,-3.61109 -7.5767,-0.81924 -14.9673,-1.58235 -20.9061,-2.16019 -3.23,-0.31412 -7.2903,-0.70985 -9.0227,-0.87936 -7.213,-0.70642 -23.2083,-2.04021 -32.5059,-2.71054 -3.23,-0.23252 -7.6769,-0.55637 -9.8818,-0.7193 -3.9572,-0.29294 -15.1877,-0.90915 -26.3494,-1.44662 -8.052,-0.38742 -38.6938,-0.56725 -45.3943,-0.26601 m -223.538,0.2726 c -4.1406,0.91 -7.9175,3.59133 -9.5411,6.77664 -1.6894,3.31387 -1.9557,8.27565 -0.6471,12.13415 1.2628,3.72105 4.2866,7.86619 7.1529,9.80187 0.7245,0.48937 1.3773,0.94008 1.4518,1.00164 0.2519,0.21075 -0.7045,0.65516 -2.9981,1.39421 -1.6722,0.53833 -3.1441,0.77629 -5.4434,0.87966 -2.8491,0.12856 -3.2386,0.0845 -4.1005,-0.46016 -1.4832,-0.94036 -2.1676,-2.78757 -1.927,-5.2132 0.1746,-1.77791 0.1431,-1.96146 -0.3293,-1.96146 -0.2893,0 -2.1133,1.59953 -4.0633,3.55783 -3.7082,3.72994 -5.9331,5.20719 -8.3212,5.52789 l -1.0766,0.14433 -0.1718,-2.96797 c -0.1661,-2.88779 -0.9908,-12.56167 -1.6751,-19.65329 -0.1862,-1.92968 -0.4124,-3.50028 -0.5069,-3.48968 -0.1632,0.0186 -3.2586,3.55955 -3.9487,4.51623 -0.3837,0.53432 -0.2978,1.67855 0.9278,12.36466 0.4066,3.54467 0.8161,7.13658 0.9105,7.98186 0.1662,1.51878 0.1604,1.53453 -0.5182,1.32865 -2.5485,-0.77113 -4.3124,-2.50438 -6.4628,-6.35257 -2.2164,-3.96187 -3.3531,-4.79227 -5.6267,-4.11134 -1.5806,0.47362 -4.8622,3.77976 -6.4943,6.54385 -0.6815,1.15311 -2.1676,4.31121 -3.2987,7.01774 -2.6258,6.27124 -3.3474,7.67891 -4.5786,8.90819 -1.3029,1.3043 -2.5543,1.54168 -4.2265,0.80205 -2.0388,-0.90198 -3.0353,-2.69909 -3.8256,-6.88888 -0.3751,-2.00585 -0.4324,-3.55612 -0.2949,-8.06863 0.097,-3.07191 0.2548,-6.0688 0.3522,-6.65981 0.2233,-1.34153 -0.2949,-1.44633 -0.7073,-0.14318 -0.8304,2.62263 -1.1826,5.58803 -1.1941,10.01348 l -0.011,4.66686 -0.9507,-2.80161 c -0.524,-1.54053 -1.0251,-2.87461 -1.1167,-2.96452 -0.3866,-0.38686 -0.8075,0.36909 -1.6236,2.91556 -0.9936,3.10627 -1.0194,3.42411 -0.4295,5.5717 2.2764,8.29656 3.018,16.54673 3.7368,41.50255 l 0.2004,6.98969 -0.8275,-0.20618 c -3.6967,-0.92202 -7.6025,-5.40619 -9.0972,-10.44586 -1.0309,-3.47336 -0.8733,-9.19167 0.3923,-14.28289 0.6672,-2.67159 2.537,-8.1929 3.5736,-10.53377 0.398,-0.90055 0.7244,-1.9082 0.7244,-2.2395 0,-0.583 -0.023,-0.57928 -0.6986,0.10738 -1.0252,1.03857 -3.6881,6.4167 -4.7047,9.49606 -1.3343,4.04032 -2.0158,7.54519 -2.3881,12.26988 -1.0108,12.84543 2.9837,21.40716 11.2304,24.05872 l 1.95,0.62709 0.1833,3.05244 c 0.5841,9.65269 1.1941,13.33222 2.7003,16.29589 2.3823,4.68747 7.0268,6.32822 13.2004,4.66169 1.9013,-0.51542 4.1349,-1.72952 7.0212,-3.8227 1.4174,-1.02798 2.6058,-1.83547 2.643,-1.80111 0.034,0.0372 -0.08,0.89912 -0.2578,1.91278 -0.1775,1.01366 -0.3207,3.84276 -0.3235,6.28528 0,3.63658 0.1088,4.84209 0.607,6.67186 1.0023,3.66808 2.6917,6.59736 5.3375,9.23746 3.4619,3.45616 6.7262,4.84783 12.1869,5.19142 5.9502,0.37511 11.4108,-0.99362 19.2452,-4.82205 2.2048,-1.07664 4.0432,-1.95571 4.0862,-1.95571 0.04,0 0.1574,0.81892 0.2605,1.82403 0.4295,4.16628 2.474,8.07779 5.0053,9.56392 1.8613,1.09667 4.5185,1.09382 6.3941,-0.006 1.8441,-1.07954 4.1492,-3.68811 6.7033,-7.58244 6.6747,-10.18242 7.7858,-11.67998 11.1732,-15.09323 4.5042,-4.53857 9.186,-7.0269 13.2292,-7.0355 1.6379,-0.006 3.124,0.48679 3.7482,1.23988 0.6013,0.72445 0.8018,0.587 1.1482,-0.7989 0.4468,-1.76675 0.4009,-4.0432 -0.097,-5.00818 -0.5326,-1.02798 -2.2736,-1.74098 -4.2407,-1.73525 -3.9287,0.0114 -8.4014,1.92997 -12.5248,5.3747 -4.2637,3.55926 -6.4256,6.19936 -12.5218,15.28222 -5.5122,8.20952 -7.3362,9.98774 -10.2512,9.98774 -2.8892,0 -4.8078,-2.23351 -5.4005,-6.29964 -0.189,-1.2828 -0.1832,-1.29424 1.0767,-2.08743 4.2379,-2.66587 8.0635,-6.5573 9.6269,-9.80159 1.1053,-2.28503 1.32,-3.97733 0.7503,-5.93306 -1.3001,-4.4813 -5.5409,-6.9725 -13.066,-7.68264 -1.97,-0.18612 -3.7568,-0.48106 -3.9716,-0.65573 -0.6013,-0.48678 -0.2062,-2.78899 0.8418,-4.9194 1.7439,-3.54209 5.0111,-6.42272 7.3047,-6.4399 1.1139,-0.006 1.7725,0.69868 3.0725,3.30155 1.1482,2.30222 2.7317,4.40685 5.1084,6.79497 1.6293,1.64076 1.6408,1.6608 1.2628,2.57997 -0.2091,0.50969 -0.4696,1.34296 -0.5784,1.85551 -0.3322,1.55772 0.5955,1.17115 1.4689,-0.61277 l 0.7559,-1.54054 1.4604,0.8619 c 0.8046,0.47533 2.2994,1.18833 3.3216,1.58349 3.6165,1.40022 8.9769,0.81608 15.3366,-1.67226 7.5395,-2.94649 13.3466,-8.45576 14.4777,-13.73596 0.6757,-3.1498 -0.8562,-6.83506 -4.1205,-9.91615 -3.9172,-3.69384 -8.3584,-4.9509 -12.5191,-3.54495 -4.8649,1.64649 -9.9877,6.80071 -14.8727,14.96727 l -1.4947,2.49979 -1.0652,-0.54405 c -1.5148,-0.77314 -3.2243,-2.74032 -4.6531,-5.35466 -0.6758,-1.23987 -1.5979,-2.62578 -2.0474,-3.08107 -0.7502,-0.75881 -0.9306,-0.81035 -2.3022,-0.65 -2.0159,0.23767 -5.2716,1.89561 -7.2274,3.68526 -4.5786,4.1835 -8.7249,11.23618 -8.7249,14.8384 0,3.31014 2.3824,6.90091 5.3031,7.99188 0.8333,0.31212 2.5256,0.65001 3.7626,0.75023 2.8147,0.22621 3.1212,0.31498 2.726,0.79317 -0.5928,0.713 -2.0589,4.76764 -2.6458,7.30753 l -0.5927,2.57711 -1.4833,0.64142 c -7.0155,3.02091 -15.8177,4.85927 -21.41,4.46697 -8.599,-0.60131 -14.8184,-6.38261 -16.0325,-14.9014 -0.2491,-1.75529 0.097,-8.07779 0.4639,-8.4529 0.06,-0.063 0.7072,0.38943 1.4374,1.00221 5.8472,4.89936 7.4164,5.9073 10.1653,6.5258 6.3311,1.42314 8.9253,0.65573 11.7716,-3.48196 1.9328,-2.80904 2.9894,-5.98461 3.3875,-10.16811 0.3779,-3.95442 -0.3694,-7.98902 -2.7346,-14.78685 -1.595,-4.59012 -2.0417,-5.66964 -2.4368,-5.9159 -0.4725,-0.28921 -0.5756,-0.0802 -1.4547,2.9379 -1.1367,3.90003 -1.0909,4.58726 0.4725,7.256 2.6001,4.43261 3.6853,8.88814 3.0296,12.42737 -0.1833,0.98789 -0.5699,1.97291 -0.925,2.34802 -0.942,1.00221 -2.9178,1.53768 -5.681,1.53768 -3.7454,0 -6.984,-0.99648 -9.1631,-2.81477 l -0.9907,-0.82754 2.4225,-1.13106 c 1.3315,-0.62137 3.6079,-1.6379 5.054,-2.25927 l 2.6343,-1.13106 1.3057,-2.8205 c 0.7159,-1.54912 1.3029,-3.04957 1.3029,-3.33019 0,-0.54691 -1.6178,-1.98437 -3.7225,-3.30728 -4.8678,-3.05816 -13.3751,-4.1377 -21.6648,-2.74605 -1.8813,0.31784 -3.6395,0.65859 -3.9086,0.76168 -0.2692,0.10308 -0.4897,0.12313 -0.4897,0.0458 0,-0.0802 1.9672,-1.11102 4.3696,-2.29078 12.814,-6.29386 18.9389,-11.49388 21.7422,-18.45779 1.0137,-2.51411 1.3773,-5.66963 0.8418,-7.29034 -0.5239,-1.58636 -2.242,-3.00949 -5.1427,-4.26082 -1.446,-0.62137 -2.7489,-1.13106 -2.8921,-1.13106 -0.146,0 0.2234,-1.06463 0.8218,-2.36463 0.5957,-1.29973 1.3602,-3.20077 1.6981,-4.22474 0.7846,-2.38668 1.4661,-7.57153 1.5033,-11.43948 0.04,-4.11392 0.08,-4.21414 2.0645,-5.02077 2.3166,-0.94208 3.9687,-2.31596 6.5659,-5.46375 1.2313,-1.49043 2.4139,-2.71026 2.6315,-2.71026 0.2606,0 0.4668,0.50712 0.6013,1.47611 0.7903,5.74065 4.5157,7.20186 12.1668,4.77022 3.0067,-0.95553 4.5644,-1.66796 16.1012,-7.35334 6.0305,-2.97197 11.7774,-5.76527 12.7739,-6.20681 l 1.8097,-0.80291 1.2513,-2.67446 c 1.6265,-3.48568 1.7267,-3.81727 1.1511,-3.81727 -0.252,0 -3.5793,1.49673 -7.3934,3.32561 -8.4644,4.05923 -10.8611,4.98126 -12.9514,4.98126 -1.8441,0 -4.7104,-1.00049 -6.6117,-2.31023 -4.0031,-2.75321 -8.1179,-8.55399 -8.6075,-12.13272 -0.1518,-1.10558 -0.086,-1.27395 0.7817,-2.00356 1.8985,-1.59809 6.0705,-3.0009 10.8152,-3.63572 3.0095,-0.40289 8.9998,-0.16322 11.2133,0.4487 2.3795,0.65716 2.5685,0.53833 1.1597,-0.73333 -3.8141,-3.44845 -11.3479,-5.78503 -15.623,-4.84581 m -25.6479,2.94162 c -3.061,3.55354 -3.041,3.19675 -0.3436,6.14782 1.2628,1.38419 2.5713,2.76266 2.9035,3.06275 0.5956,0.53661 0.6157,0.53661 1.2084,0 0.9965,-0.89769 4.2665,-5.20289 4.2637,-5.60978 -0.01,-0.41291 -3.2644,-4.18465 -4.5672,-5.28135 -0.4467,-0.3754 -0.9507,-0.68236 -1.1197,-0.68236 -0.1718,0 -1.2255,1.0632 -2.3451,2.36292 m 66.6067,22.57973 c -2.6945,2.5479 -5.1571,8.51762 -5.3318,12.91587 -0.032,0.84014 -0.1689,1.8246 -0.3006,2.18768 -0.1604,0.43983 -0.1002,0.93148 0.1775,1.47038 0.232,0.44527 0.7388,2.72601 1.1311,5.06831 1.2628,7.5701 2.3337,11.31291 5.0998,17.85074 2.5857,6.10488 2.6143,6.28528 1.1855,7.71414 -2.4397,2.43679 -6.9897,2.32226 -9.9162,-0.25199 -3.0152,-2.65442 -4.3868,-6.81214 -6.0791,-18.43603 -1.2456,-8.5726 -2.746,-14.75879 -4.0661,-16.77409 l -0.4524,-0.69295 -0.3837,0.73361 c -0.5297,1.01137 -1.8297,6.10717 -1.8297,7.17237 0,0.47905 0.441,2.49521 0.9821,4.47987 1.4947,5.48236 1.95,9.02817 1.8183,14.14229 -0.094,3.68526 -0.2119,4.61588 -0.7588,6.00465 -1.95,4.93945 -5.6668,7.45356 -11.0443,7.47361 -1.8069,0.006 -2.5685,-0.126 -3.4849,-0.59846 -2.5227,-1.30574 -4.0088,-4.11479 -4.3982,-8.30974 -0.1947,-2.09891 0.023,-6.65838 0.3923,-8.22926 0.074,-0.31498 0.481,-2.76409 0.902,-5.44228 1.1711,-7.4295 1.0681,-10.16868 -0.3894,-10.16868 -0.7273,0 -2.706,2.29849 -3.8457,4.47013 -2.2249,4.23275 -3.3931,8.01995 -5.6868,18.44233 -1.4374,6.52581 -2.6086,9.30908 -4.2694,10.17098 -2.7289,1.40882 -5.1771,-0.78173 -6.1678,-5.51787 -0.6099,-2.9064 -0.819,-8.40422 -0.4439,-11.52481 0.5956,-4.93916 0.7073,-6.97909 0.3723,-6.77263 -0.7875,0.4865 -2.0732,8.69143 -2.0617,13.14323 0.028,9.81591 3.3674,16.83136 8.0091,16.83136 1.1196,0 1.4517,-0.14031 2.1905,-0.93062 2.0216,-2.16191 2.7546,-4.21786 4.6646,-13.10601 1.5634,-7.2703 2.1905,-9.74919 3.0638,-12.08805 0.7016,-1.87327 1.6351,-3.37916 2.0961,-3.37916 0.126,0 -0.077,1.38562 -0.4524,3.07935 -0.9736,4.41401 -1.4489,11.50019 -1.0366,15.45748 0.8905,8.5073 4.7992,12.75953 11.3393,12.3386 4.2436,-0.27203 7.8429,-3.01235 10.1652,-7.73704 1.174,-2.39098 2.3394,-6.23659 2.3394,-7.72559 0,-1.33436 0.4582,-0.90771 0.8362,0.77886 1.383,6.17933 4.7848,11.03573 8.6247,12.31284 4.4584,1.4804 8.367,-0.0229 10.2826,-3.95443 1.4375,-2.94649 1.8556,-5.0454 1.867,-9.36921 0.014,-4.69605 -0.4495,-6.99168 -3.3073,-16.30505 -1.0881,-3.55211 -1.9786,-6.62115 -1.9786,-6.82045 0,-0.49939 0.2863,-0.45271 1.2885,0.21075 1.0738,0.71099 1.8613,0.7382 1.8613,0.0641 0,-0.51714 -3.0925,-6.0476 -4.6646,-8.34295 l -0.8648,-1.26106 1.595,-1.53166 c 1.9414,-1.8664 2.5313,-1.92166 4.4355,-0.41692 2.454,1.94142 5.452,6.39866 7.5423,11.22387 3.061,7.05697 4.5185,13.48026 5.5837,24.61106 0.3923,4.08041 0.4467,6.77492 0.3035,14.46614 -0.097,5.20003 -0.249,10.42011 -0.3378,11.60272 -0.1805,2.40243 0.097,3.20992 0.9277,2.6945 3.923,-2.44825 4.5987,-30.58165 1.1969,-49.67256 -1.867,-10.46505 -4.5213,-16.77551 -8.9912,-21.37594 -2.6401,-2.71741 -4.6073,-3.82356 -6.815,-3.82814 -1.2628,-0.003 -1.5033,0.11654 -2.915,1.45177 m 182.293,3.61081 c -17.1436,0.97787 -27.5694,2.77297 -34.161,5.88152 -1.383,0.65201 -2.6344,1.33008 -2.7805,1.50646 -0.1832,0.2202 0.3809,0.71959 1.7983,1.59294 3.3159,2.04451 19.6261,13.00379 25.5477,17.1661 10.6091,7.45871 20.2016,14.61447 26.4612,19.74004 l 2.978,2.43966 1.0336,-0.587 c 0.567,-0.32357 4.573,-2.81477 8.9025,-5.53792 13.2979,-8.36699 28.0475,-17.08849 39.9595,-23.62374 6.7062,-3.67953 19.8007,-10.03811 24.2018,-11.75131 2.2822,-0.88968 4.4097,-1.71864 4.7219,-1.84234 0.4524,-0.17754 0.3035,-0.26401 -0.7159,-0.41377 -2.7002,-0.39659 -20.7858,-2.03191 -28.9237,-2.61462 -3.23,-0.23165 -7.6111,-0.55178 -9.7386,-0.71185 -3.8943,-0.29294 -10.5833,-0.64084 -22.1975,-1.15397 -5.6438,-0.24941 -33.1243,-0.31641 -37.0873,-0.0902 m -270.6848,0.77227 c -1.5606,0.55838 -2.6917,1.47153 -4.0547,3.27378 -1.9299,2.55248 -2.1275,2.93905 -4.1119,8.01623 -2.3566,6.03501 -3.565,8.33636 -5.1427,9.79042 -1.0796,0.99591 -1.4289,1.1534 -2.5599,1.1534 -0.7216,0 -1.6752,-0.1887 -2.1219,-0.4195 -1.5033,-0.77857 -3.0696,-3.14635 -4.361,-6.59853 l -0.5355,-1.43201 0.1518,1.43201 c 0.086,0.78774 0.3493,3.09911 0.587,5.13646 0.524,4.48015 1.2084,19.03564 1.426,30.38348 0.089,4.56721 0.2319,8.87097 0.315,9.56393 l 0.1546,1.25992 3.1985,-0.17181 c 7.6282,-0.40948 18.0111,-4.68747 29.5307,-12.1668 4.573,-2.9694 6.1736,-4.26081 6.1736,-4.98526 0,-1.05375 -2.7432,-2.07887 -18.2115,-6.79497 -1.5892,-0.48392 -3.104,-1.11675 -3.3646,-1.40595 -0.5325,-0.58701 -0.6156,-1.83548 -0.2033,-3.08967 0.1489,-0.45528 0.4123,-1.37674 0.5813,-2.04622 0.398,-1.54426 1.4088,-2.09805 5.661,-3.09882 9.7243,-2.28818 9.9906,-2.38296 10.5576,-3.73967 0.2978,-0.70813 0.398,-2.50695 0.398,-7.08589 0,-6.75516 0.075,-6.48486 -1.8297,-6.48486 -1.3458,0 -3.7426,-1.30372 -4.9223,-2.67474 -0.5613,-0.65573 -1.7295,-2.51096 -2.5971,-4.12251 -1.4661,-2.7303 -2.6001,-4.10504 -3.3646,-4.07497 -0.1747,0.007 -0.7846,0.17896 -1.3544,0.38255 m 35.753,14.25253 c -0.7216,0.40375 -4.5014,5.09551 -4.5014,5.58688 0,0.52659 5.14,6.11805 5.6239,6.11805 0.3522,0 2.0502,-1.89704 3.9401,-4.40313 1.0337,-1.37102 1.0451,-1.4091 0.5641,-2.14844 -0.7588,-1.16887 -3.4705,-4.17406 -4.3553,-4.82864 -0.567,-0.41892 -0.9335,-0.51284 -1.2714,-0.32472 m -15.6516,5.02049 c -1.2714,1.52278 -2.3108,2.87433 -2.3108,3.00376 0,0.12943 1.3086,1.59351 2.9064,3.25345 2.8319,2.93933 2.9207,3.00433 3.4705,2.5101 1.257,-1.13049 4.2207,-5.10811 4.2207,-5.66734 0,-0.7737 -4.7275,-5.86807 -5.4462,-5.86807 -0.3208,0 -1.4461,1.09842 -2.8406,2.7681 m -32.4572,12.9133 c -1.0108,1.22269 -2.0731,2.57997 -2.3566,3.02094 l -0.5126,0.79604 2.3796,2.49693 c 1.3086,1.37159 2.6859,2.78327 3.0581,3.13548 l 0.6786,0.64141 -2.3022,2.6086 c -1.2656,1.43459 -2.3022,2.6945 -2.3022,2.80045 0,0.10595 1.426,1.60926 3.167,3.33879 l 3.1669,3.14693 0.7188,-0.85904 c 1.2484,-1.49758 2.998,-4.14628 3.4476,-5.22579 l 0.4352,-1.0423 -2.8663,-2.82909 -2.8634,-2.82909 1.9786,-2.46829 c 1.0881,-1.35727 1.9787,-2.68591 1.9787,-2.95222 0,-0.26916 -0.9679,-1.59494 -2.1505,-2.94648 -2.0245,-2.31797 -2.8749,-3.05187 -3.5335,-3.05187 -0.1546,0 -1.1082,0.99877 -2.1218,2.2186 m 438.0591,7.01831 c -0.6729,0.86191 -2.4253,4.29804 -3.4648,6.80356 -2.5198,6.05619 -3.5363,10.70358 -3.5764,16.32739 -0.032,4.58726 0.4181,6.34542 1.9672,7.70556 3.1612,2.77755 6.4599,0.37797 8.4385,-6.13066 0.2864,-0.94494 0.6043,-2.1705 0.7102,-2.72028 0.1031,-0.55265 0.252,-1.22842 0.3293,-1.50331 0.2949,-1.04229 -0.3637,-0.42093 -1.3172,1.2456 -0.5469,0.95353 -1.4976,2.19054 -2.1132,2.74605 -0.9593,0.86476 -1.2628,0.98789 -2.1132,0.85044 -1.7296,-0.28062 -2.517,-1.40022 -2.9723,-4.22931 -0.4954,-3.07248 0.3636,-7.68264 2.9894,-16.07541 1.6637,-5.31743 1.7868,-5.86434 1.1225,-5.01963 m -329.0476,6.03043 c -0.9249,0.99075 -2.0474,2.33944 -2.4998,2.99803 l -0.8189,1.19406 2.7976,3.01808 c 1.5377,1.65793 2.9522,3.01521 3.144,3.01521 0.4954,0 4.719,-5.40619 4.719,-6.03902 0,-0.50396 -4.9852,-5.99034 -5.4434,-5.99034 -0.1203,0 -0.9736,0.81036 -1.8985,1.80398 m -19.5172,17.92806 c -4.1463,1.43172 -10.4373,7.67406 -13.4039,13.30073 -0.5669,1.0738 -0.9878,1.99297 -0.9334,2.03878 0.054,0.0458 0.8418,0.35793 1.7524,0.69295 5.6209,2.07314 19.6203,-0.19757 23.5118,-3.81411 0.7445,-0.69582 0.8104,-0.90199 0.6958,-2.27071 -0.1632,-1.97578 -1.572,-4.29804 -4.1921,-6.90092 -1.9185,-1.90993 -4.4928,-3.5965 -5.4549,-3.57932 -0.2548,0.006 -1.1454,0.24625 -1.9757,0.5326 m -89.9983,5.60092 c -0.879,0.32357 -2.8692,0.70441 -6.2251,1.19692 -0.902,0.13172 -0.9306,0.17467 -0.9306,1.52336 0,2.6945 0.5984,7.34188 1.1711,9.08859 0.7331,2.23349 2.3881,4.17204 4.1377,4.83922 1.9013,0.72732 5.3088,0.44098 8.4243,-0.7044 2.8491,-1.04803 6.3167,-3.0324 6.3167,-3.61654 0,-0.60419 -3.4962,-3.3846 -5.7354,-4.55861 -1.6809,-0.88481 -2.1992,-1.01939 -3.9029,-1.01366 -1.3315,0.003 -2.3624,0.18898 -3.21,0.57269 -0.6872,0.31211 -1.2999,0.56696 -1.3601,0.56696 -0.5813,0 1.7238,-6.66898 2.6974,-7.80576 0.5297,-0.62137 0.1259,-0.64715 -1.3831,-0.0888 m 14.9529,3.80266 c -0.3636,0.0687 -0.6213,0.22908 -0.5726,0.35507 0.049,0.12885 0.879,0.89053 1.844,1.69516 1.5377,1.27996 1.804,1.40595 2.1247,1.02225 0.4524,-0.54692 0.8333,-0.0744 0.8419,1.0423 0.01,0.91057 0.2691,1.20837 0.7301,0.82753 0.1919,-0.16035 1.6838,-0.98789 3.3159,-1.84406 l 2.9723,-1.55485 -1.3659,-0.60419 c -0.7502,-0.33216 -2.1017,-0.72445 -3.0066,-0.87335 -1.635,-0.2663 -5.6296,-0.30639 -6.8838,-0.0659 m 29.2301,22.38645 c -0.335,0.45243 -1.4775,1.81543 -2.537,3.02667 l -1.9299,2.20485 3.2185,3.2042 3.2156,3.20134 0.8762,-1.0022 c 1.154,-1.32293 3.2558,-4.55005 3.5221,-5.4062 0.1832,-0.58987 -0.1432,-1.03657 -2.4625,-3.36456 -1.4719,-1.47753 -2.8148,-2.68591 -2.9838,-2.68591 -0.1718,0 -0.5841,0.36938 -0.9192,0.82181 m 16.8744,-0.64714 c 0.043,0.14031 -0.2893,1.20265 -0.7388,2.35948 -0.8562,2.21917 -1.9386,6.10203 -1.7496,6.29101 0.2921,0.29204 3.3245,-1.71237 4.971,-3.28438 1.7753,-1.69517 1.8412,-1.80684 1.6722,-2.84914 -0.2434,-1.50331 -1.1883,-2.35662 -2.8577,-2.58569 -0.7674,-0.10595 -1.3401,-0.0745 -1.2971,0.0687 m -29.2931,1.61499 c -1.6122,1.61212 -3.9773,4.60442 -3.9773,5.03678 0,0.54981 5.4691,6.10491 5.9101,5.99895 0.4381,-0.10021 4.6846,-5.40907 4.6846,-5.85862 0,-0.42093 -1.068,-1.76102 -3.1269,-3.9086 -2.2306,-2.33086 -2.3738,-2.38239 -3.4905,-1.26851 m 373.6945,23.66352 c -0.5441,2.72602 -4.1807,8.50731 -7.6683,12.18973 -4.7505,5.01962 -10.0336,8.16941 -16.7255,9.96766 -3.4676,0.93347 -9.813,0.91918 -12.602,-0.0258 -4.0747,-1.38017 -7.1271,-3.69955 -9.4322,-7.1672 -1.4346,-2.15618 -2.9007,-5.58947 -3.3932,-7.93747 -0.1775,-0.85045 -0.4267,-1.54628 -0.5527,-1.54628 -0.1231,0 -0.2262,0.14602 -0.2262,0.32356 0,0.57269 -1.5147,3.77979 -2.6888,5.69253 -1.4603,2.37952 -2.053,3.11547 -4.5643,5.68108 -5.1685,5.28309 -12.287,8.42144 -20.9461,9.23467 -9.4007,0.88481 -17.3353,-2.06741 -22.4008,-8.33267 -2.4282,-3.00372 -5.3203,-9.12581 -5.8815,-12.45599 -0.077,-0.45245 -0.3551,-0.21761 -1.3515,1.14822 -1.7668,2.41674 -6.3111,6.87227 -9.1717,8.99698 -7.8315,5.80422 -17.6588,9.79302 -28.9895,11.76016 -1.8383,0.32071 -3.8599,0.58128 -4.4899,0.58128 -0.6329,0 -1.323,0.1747 -1.5377,0.38945 -0.4982,0.49826 -1.6951,7.88307 -2.2134,13.64718 -2.3252,25.80828 2.6715,48.87626 14.363,66.31181 10.3227,15.39962 24.9378,25.62215 42.9718,30.06049 7.4536,1.83546 11.1159,2.25354 19.8351,2.27642 9.5811,0.0231 14.5091,-0.63284 23.5061,-3.13545 25.3358,-7.04122 51.3015,-27.20279 72.2849,-56.12934 7.4478,-10.2626 14.2571,-22.02856 16.3331,-28.21074 2.537,-7.56236 2.2765,-15.56572 -0.6987,-21.49878 -1.5061,-2.99803 -2.5599,-4.43549 -5.1484,-7.02119 -2.7117,-2.70593 -4.8164,-4.1405 -10.4688,-7.13568 -2.2822,-1.20553 -5.1514,-2.91785 -6.3798,-3.80266 -4.633,-3.33593 -9.5152,-9.33198 -10.7265,-13.1776 -0.5383,-1.70088 -0.7989,-1.87268 -1.0365,-0.68439 m -35.4868,48.66435 c -0.2434,0.27491 -0.859,1.33721 -1.3687,2.36234 -0.5068,1.02224 -1.5491,2.71168 -2.3136,3.74826 -1.8756,2.54273 -5.8358,6.29958 -7.4823,7.09562 -2.3136,1.1196 -2.7145,0.99936 -5.6524,-1.70663 -4.5644,-4.20355 -6.941,-5.01962 -9.7672,-3.35021 -1.6866,0.99646 -2.7089,2.12466 -6.5745,7.24454 -13.9479,18.47782 -21.4358,25.31862 -33.1473,30.27235 -6.4285,2.72027 -12.1038,6.1135 -12.1038,7.23879 0,1.03089 3.0553,0.72161 8.7049,-0.88765 13.3637,-3.80266 24.8375,-11.33355 34.6306,-22.73003 4.0116,-4.67028 7.0898,-7.71127 8.5674,-8.473 2.6658,-1.36873 5.4234,-0.68718 8.6218,2.13615 1.9586,1.73241 2.8692,2.24495 4.4413,2.49408 2.6744,0.42951 6.1964,-1.32008 9.3663,-4.65026 l 1.7495,-1.83831 0.6959,0.54407 c 1.1081,0.86473 2.9694,1.72951 4.4326,2.05591 3.0782,0.69014 6.1765,-1.23699 8.0062,-4.98525 2.9837,-6.11635 2.7403,-12.69368 -0.5841,-15.61153 -1.4432,-1.26852 -1.9501,-1.09382 -2.1763,0.7388 -0.1975,1.63214 -1.3458,3.85131 -2.9723,5.74692 -2.0101,2.34806 -2.7317,1.49187 -3.0066,-3.56497 -0.1832,-3.41326 -0.4667,-4.38109 -1.277,-4.38109 -0.1919,0 -0.547,0.22335 -0.7904,0.5011 m -171.7098,21.74221 c -0.5183,0.25482 -1.1769,0.80173 -1.4661,1.21122 -1.2914,1.83836 -10.9756,20.60537 -11.239,21.78227 -0.2234,0.98502 -0.2005,1.59208 0.086,2.45396 0.3437,1.02514 0.8018,1.42603 4.3926,3.80841 9.3778,6.22799 16.482,10.39717 18.4005,10.79517 1.1511,0.24053 2.663,-0.23479 3.4362,-1.07664 0.9363,-1.01939 11.1731,-20.26463 11.5683,-21.745 0.2978,-1.11966 0.2863,-1.57495 -0.063,-2.70599 -0.4123,-1.32577 -0.5584,-1.45176 -6.1421,-5.29453 -6.6031,-4.5443 -10.5804,-7.07559 -13.5384,-8.61612 -2.3366,-1.21412 -3.8628,-1.38591 -5.4348,-0.61275 m -43.2009,7.94032 c -0.4925,0.22335 -1.2141,0.839 -1.6064,1.36588 -0.3922,0.52688 -3.0753,5.46348 -5.9645,10.96987 -4.6932,8.93683 -5.2659,10.17672 -5.3547,11.59985 -0.077,1.1826 0.032,1.7925 0.4152,2.37663 0.776,1.1769 16.4362,11.19322 20.5624,13.15182 0.945,0.4496 2.1848,0.81613 2.7518,0.81613 2.0273,0 2.6516,-0.75883 6.4857,-7.87738 7.7199,-14.34585 7.8058,-14.52055 7.8058,-16.15269 0,-0.82182 -0.1918,-1.86124 -0.4267,-2.31369 -0.4266,-0.82756 -4.7991,-3.99164 -12.4617,-9.0256 -7.3018,-4.79343 -10.0393,-5.89584 -12.2069,-4.91082 m 14.7869,54.07052 c -2.998,4.13772 -3.2243,6.48572 -1.3401,13.89631 2.5971,10.22253 4.5843,20.34196 5.3861,27.45192 0.5241,4.64166 0.4496,13.52978 -0.1346,16.11263 -1.1339,5.01103 -2.9264,6.76347 -4.8306,4.72753 -1.3,-1.39161 -1.7696,-2.65438 -1.9328,-5.22864 -0.1432,-2.20773 -0.2148,-2.44252 -0.7703,-2.51985 -0.9592,-0.13743 -1.97,1.01365 -3.4075,3.87424 -2.0416,4.07472 -5.1342,6.38836 -8.5216,6.37692 -1.761,-0.009 -2.0245,-0.25772 -1.678,-1.60352 0.1575,-0.61281 0.4353,-2.08175 0.6185,-3.26149 0.398,-2.5771 0.106,-3.72533 -0.945,-3.72533 -0.9449,0 -1.9643,1.20553 -3.3215,3.9229 -1.4203,2.84916 -2.4225,4.0346 -4.238,5.01962 -1.3744,0.74454 -3.9687,1.36873 -5.681,1.36873 h -0.8991 l 0.8074,-3.0782 c 0.8534,-3.24716 1.0309,-5.46633 0.484,-6.01608 -0.6987,-0.69584 -1.8155,0.37221 -3.2701,3.1326 -2.7632,5.23438 -5.87,7.38481 -10.695,7.39056 -3.5593,0.009 -5.4749,-2.00726 -5.4606,-5.74408 0.01,-1.01364 0.126,-2.35375 0.2692,-2.98084 0.3293,-1.42028 -0.017,-1.69804 -1.3974,-1.1225 -1.3229,0.55266 -1.8011,1.00511 -3.6566,3.46766 -0.859,1.13679 -2.222,2.59429 -3.0324,3.24141 -4.5557,3.62796 -10.3914,4.47555 -12.98,1.88701 -1.1168,-1.11675 -1.5577,-2.57135 -1.2685,-4.16343 0.1203,-0.65571 0.2663,-1.2284 0.3264,-1.27427 0.06,-0.0456 1.2685,-0.38365 2.6859,-0.74733 11.9721,-3.08395 24.0731,-8.59324 29.3361,-13.35229 3.4075,-3.08105 5.2716,-7.50505 5.3002,-12.58198 0.017,-2.68306 -0.043,-2.99518 -0.922,-4.78193 -1.3945,-2.83772 -3.8084,-4.4928 -8.0807,-5.54366 -4.0976,-1.00795 -6.0934,-0.59272 -10.1079,2.09888 -2.2307,1.49477 -7.6999,6.74343 -10.5175,10.0937 -0.9965,1.17975 -1.887,2.18195 -1.9815,2.22201 -0.097,0.0403 -0.02,-1.82971 0.1689,-4.15484 1.3659,-16.85717 1.1483,-25.99726 -0.6958,-28.981 -2.6658,-4.31805 -6.0132,-4.16344 -9.4952,0.43526 -3.3961,4.487 -2.8434,7.37622 1.8956,9.90182 1.8011,0.95924 3.313,3.15548 4.4527,6.45704 1.3172,3.82559 1.7409,6.80933 1.7639,12.40164 0.023,5.81276 -0.3036,7.71412 -1.7238,10.06787 -0.5355,0.89056 -1.5434,2.84341 -2.2392,4.34098 -1.4146,3.04673 -0.965,2.76039 -5.4607,3.49343 -4.9022,0.79889 -11.2962,0.3894 -15.8463,-1.0137 -1.8469,-0.56978 -2.9207,-0.42951 -2.9064,0.37802 0.023,1.16826 1.4317,3.17841 3.9916,5.68968 3.3703,3.30724 4.7075,4.1405 7.5968,4.72753 1.8727,0.38371 2.6028,0.39514 5.1055,0.0888 2.9752,-0.36368 3.2815,-0.34934 3.104,0.15461 -0.2835,0.81323 -0.8991,5.34893 -0.8991,6.64607 -0.01,1.91564 0.4896,4.21784 1.2112,5.66959 1.4489,2.9236 3.7998,4.15775 7.8917,4.14631 4.8965,-0.0113 7.5538,-1.1855 11.4194,-5.0454 l 2.623,-2.62007 0.5641,1.33152 c 1.9156,4.51852 5.4863,6.46568 9.8187,5.35752 2.4941,-0.63858 4.0661,-1.61786 6.3884,-3.96592 l 1.97,-1.99582 0.7417,0.96789 c 1.1224,1.4632 2.6372,2.80905 3.8828,3.45332 1.552,0.79889 3.9745,0.81318 5.4778,0.0285 1.1139,-0.58128 3.4447,-2.83198 4.0489,-3.91146 0.2749,-0.49251 0.3952,-0.4553 1.7553,0.52113 2.9379,2.11037 6.669,2.75749 9.1058,1.57774 1.4002,-0.67864 3.6194,-2.94362 4.318,-4.40397 l 0.4811,-1.0108 1.3917,1.29999 c 3.9229,3.67098 7.9489,3.55069 10.7007,-0.31781 2.3365,-3.29012 3.5592,-7.9604 3.5592,-13.61281 0.01,-5.19717 -1.3974,-17.28669 -3.0123,-26.05457 -0.2463,-1.3401 -0.5613,-3.09538 -0.7015,-3.90571 -0.3666,-2.1304 -1.6408,-8.26393 -2.6029,-12.54481 -0.4582,-2.03589 -0.776,-3.76255 -0.7016,-3.83698 0.2434,-0.24053 2.6602,0.82751 4.3525,1.92423 5.5608,3.60509 10.1222,11.42226 11.972,20.50801 1.2772,6.27381 1.4088,8.01196 1.4232,18.74129 0.014,11.15885 0.1403,12.08377 1.257,9.09719 1.1311,-3.02096 1.4919,-5.09981 1.7811,-10.28269 0.3207,-5.71255 0.1603,-11.47671 -0.4782,-17.2666 -1.8612,-16.91151 -7.7829,-28.3567 -17.1148,-33.08714 -1.867,-0.94495 -2.5428,-1.14253 -3.9373,-1.14253 -1.6436,0 -1.7037,0.0285 -2.5427,1.18834 m -52.6617,3.49054 c -0.65,0.78175 -1.7467,4.23507 -2.0817,6.54586 -0.4325,2.99228 -0.095,3.96017 1.5147,4.36101 0.8648,0.21191 1.2828,0.13748 2.4168,-0.43236 1.6722,-0.8361 2.4683,-2.22202 2.64,-4.59585 0.149,-2.05592 -0.6213,-3.80551 -2.3165,-5.25726 -1.2714,-1.08813 -1.6865,-1.20837 -2.1733,-0.6214 m 25.0094,0.30928 c -0.2921,0.44954 -0.5585,1.27995 -0.5899,1.85264 -0.032,0.56985 -0.2749,2.18196 -0.5412,3.58216 -0.547,2.88637 -0.421,4.12622 0.5011,4.95953 1.4117,1.27705 3.4304,0.85613 4.6073,-0.9593 0.3379,-0.52398 0.6843,-0.9535 0.7674,-0.95635 0.086,0 0.2978,0.38081 0.4724,0.84755 0.2005,0.52403 0.7159,1.03942 1.3544,1.34295 0.9593,0.45819 1.0968,0.45819 2.0188,0.0199 1.3143,-0.62709 1.8784,-1.56056 2.0702,-3.43039 0.1261,-1.21981 0.026,-1.8498 -0.4667,-2.95796 -0.3464,-0.77601 -0.7273,-2.18481 -0.8475,-3.12976 l -0.2148,-1.71807 -0.7617,1.57489 c -0.9392,1.93858 -0.9421,2.28507 -0.023,4.44125 1.0824,2.54273 1.0967,2.64294 0.4352,2.852 -1.6579,0.52683 -2.6143,-1.28855 -2.6143,-4.95953 0,-2.04447 -0.1031,-2.6859 -0.5212,-3.20134 l -0.5211,-0.64428 -0.6156,1.04517 c -0.4868,0.82466 -0.5584,1.19978 -0.3379,1.77822 0.1517,0.40089 0.2777,1.7324 0.2777,2.95506 0,1.95291 -0.08,2.2965 -0.6614,2.84626 -0.8447,0.79035 -2.2936,0.81613 -3.0611,0.0489 -0.7187,-0.71871 -0.7416,-2.11321 -0.086,-5.30022 0.3579,-1.74385 0.4094,-2.54563 0.1918,-3.03524 l -0.2978,-0.66721 -0.5355,0.81323 m -25.7538,4.51852 c -0.8333,2.80619 -0.4811,3.55068 1.4546,3.06101 0.6385,-0.1632 1.5348,-0.59846 1.9958,-0.96783 0.6844,-0.55551 0.7789,-0.76742 0.5269,-1.19693 -0.3207,-0.53832 -2.8663,-2.38238 -3.293,-2.38238 -0.1345,0 -0.441,0.67005 -0.6843,1.48613 m -37.6742,13.89082 c -1.6236,0.26057 -2.7576,1.03083 -4.0805,2.78037 -0.7473,0.98792 -1.3601,1.88417 -1.3601,1.99013 0,0.10595 1.8527,0.19182 4.1147,0.19182 4.4699,0 6.944,0.33216 7.6226,1.02514 0.3894,0.39799 0.3464,0.51829 -0.4238,1.13963 -0.4725,0.38371 -2.7289,1.72666 -5.0139,2.98659 -2.2822,1.25703 -4.5386,2.60573 -5.0111,2.99518 l -0.859,0.71012 2.6144,-0.69009 c 3.7425,-0.98787 6.0876,-1.80684 7.4649,-2.60572 2.1906,-1.27137 6.9611,-7.16721 6.9611,-8.60183 0,-0.96784 -1.0222,-1.50616 -3.4619,-1.82113 -2.076,-0.27206 -7.1415,-0.3293 -8.5674,-0.10021 m 78.7706,11.73154 c -0.4925,0.41233 -1.1969,1.3487 -1.5634,2.076 -0.6615,1.31432 -1.678,5.01962 -2.0503,7.48217 -0.2977,1.96145 -0.607,2.33088 -0.8332,0.99362 -0.8448,-5.00529 -3.7912,-9.44363 -6.1335,-9.24321 -0.8791,0.0744 -1.0824,0.26631 -1.867,1.7381 l -0.8791,1.65507 1.2055,1.13969 c 1.2084,1.13678 2.2478,1.43741 2.8606,0.82182 0.6729,-0.67006 2.9493,3.96586 3.8113,7.76277 0.5841,2.57141 0.5469,2.51701 1.1482,1.78106 0.6013,-0.73589 1.0051,-2.07884 2.1562,-7.14427 1.2685,-5.57803 2.2363,-6.70907 4.2379,-4.95094 0.9277,0.81612 1.0337,0.84759 1.2771,0.37511 0.8647,-1.68369 0.4667,-3.50772 -1.0194,-4.67597 -0.9421,-0.74164 -1.28,-0.71586 -2.3509,0.18898 m -37.5284,0.13742 c -3.6824,0.54982 -8.765,4.25511 -13.3121,9.7071 -2.013,2.41105 -5.0168,6.52868 -5.0168,6.87517 0,0.26056 5.0311,-0.7846 9.5954,-1.99872 11.9205,-3.16698 18.3089,-7.10422 17.0318,-10.49454 -0.3751,-0.99077 -1.7839,-2.50552 -3.0725,-3.30725 -1.1253,-0.69583 -3.459,-1.04517 -5.2258,-0.78176 m 120.0044,17.60735 c -2.0789,0.37512 -2.4683,0.504 -4.5443,1.50046 -1.2485,0.59847 -2.6516,2.33088 -3.7225,4.5987 -1.1597,2.45396 -1.0051,2.70594 1.1282,1.84406 4.4469,-1.79825 10.7093,-2.411 13.2262,-1.2943 0.7474,0.32931 1.3573,0.70158 1.3573,0.83041 -0.01,0.32646 -2.8291,3.84277 -5.1914,6.45994 -2.7604,3.05527 -5.7813,7.13574 -6.941,9.37494 -1.6179,3.12116 -2.0302,4.7075 -1.9758,7.64538 0.086,4.69037 1.3229,6.32251 5.8042,7.66546 2.1132,0.63284 5.432,0.59562 9.4952,-0.10306 5.4434,-0.93636 9.5296,-2.56281 14.217,-5.66389 2.4454,-1.61502 7.6053,-6.27955 7.3706,-6.66042 -0.075,-0.11739 -2.5543,0.59562 -5.5122,1.58634 -9.5667,3.20134 -15.5428,4.44124 -21.7049,4.50139 -4.8364,0.0489 -6.1593,-0.7388 -6.1564,-3.65664 0.01,-1.81543 0.9878,-3.60224 3.4876,-6.34539 2.852,-3.12407 7.1329,-8.33262 9.0371,-10.9928 2.3394,-3.26718 3.5907,-5.81566 3.7397,-7.60242 0.103,-1.24848 0.014,-1.57204 -0.6472,-2.35949 -1.1139,-1.32577 -2.9694,-1.78966 -7.0069,-1.75244 -1.8211,0.0172 -4.2808,0.20617 -5.4605,0.42377 m -126.5502,28.90077 c -1.2828,1.33436 -2.3308,2.60863 -2.3308,2.82623 0,0.45245 4.9795,5.44055 5.5607,5.57228 0.358,0.0802 3.4791,-3.08679 4.3783,-4.44118 0.229,-0.3465 0.3378,-0.87912 0.2405,-1.1855 -0.189,-0.60131 -4.8478,-5.20001 -5.2659,-5.20001 -0.1403,0 -1.3029,1.09098 -2.5828,2.42818"
         fill="url(#fill2)"
         fill-rule="evenodd"
         id="path13727"
         style="display:inline;fill:#ffdd55;stroke-width:0.286345"
         sodipodi:nodetypes="ccccccccccccccccccccccccsccccccsccccccccccccccccccccsccccscsccccccscccscccccccccccscccscccccccccccccccccccccccccccccccccccccsccccccccccccscccccccccccccccsscccccccscccccsccccscccccccccccccccccccccccccccccsccccsccsccccccccccccccccccccccccsccccccscscccccccsccccsccccsccscccccccccccccccccccccccccccscccccccccccccccccccsccccccsccssccccscccccscsccccscscccccccccccccscccccccccccccsscccccscscccccccscccsccccscccccscscccccccccccccccccccccccccscsscccccsccccccccccsccccccsscccccsscccccsccssccccccccsccccccccscsccccccccccccscccccsssccccccccccccscccscccsccccccccccccccccccccsscccscccccscsccccccccssccccccccsscccccccccccccccccccccsccccccccccccccscccccccsccscccsccccscsccccccccccccccsccsccccccccccscccsccscccccccccccccccccccccccccccccscccccccccccccscccccsccccccccccccccccccccccccsccccsccccccccccscccsscccccscsccccccccccccscccccccscccccccccccccccccccccccccccscccsc" /></g></g></svg>
