<?xml version="1.0" encoding="UTF-8" standalone="no"?>
<!-- Created with Inkscape (http://www.inkscape.org/) -->

<svg
   width="200"
   height="200"
   viewBox="0 0 52.916668 52.916666"
   version="1.1"
   id="svg8"
   inkscape:version="1.2.2 (b0a8486541, 2022-12-01)"
   sodipodi:docname="antiprotestant.svg"
   xml:space="preserve"
   xmlns:inkscape="http://www.inkscape.org/namespaces/inkscape"
   xmlns:sodipodi="http://sodipodi.sourceforge.net/DTD/sodipodi-0.dtd"
   xmlns="http://www.w3.org/2000/svg"
   xmlns:svg="http://www.w3.org/2000/svg"
   xmlns:rdf="http://www.w3.org/1999/02/22-rdf-syntax-ns#"
   xmlns:cc="http://creativecommons.org/ns#"
   xmlns:dc="http://purl.org/dc/elements/1.1/"><defs
     id="defs2"><inkscape:path-effect
       effect="envelope"
       id="path-effect4658"
       is_visible="true"
       yy="true"
       xx="true"
       bendpath1="m -199.08406,108.42369 h 7.0057"
       bendpath2="m -192.07836,108.42369 v 6.75242"
       bendpath3="m -199.08406,115.17611 h 7.0057"
       bendpath4="m -199.08406,108.42369 v 6.75242" /><inkscape:path-effect
       effect="bend_path"
       id="path-effect4656"
       is_visible="true"
       bendpath="m -192.00142,114.60623 c 2.12577,-0.53066 4.48261,0.85111 7.0057,0"
       prop_scale="1"
       scale_y_rel="false"
       vertical="false"
       bendpath-nodetypes="cc" /><inkscape:path-effect
       effect="bounding_box"
       id="path-effect4654"
       is_visible="true"
       linkedpath=""
       visualbounds="false" /></defs><sodipodi:namedview
     id="base"
     pagecolor="#ffffff"
     bordercolor="#666666"
     borderopacity="1.0"
     inkscape:pageopacity="0.0"
     inkscape:pageshadow="2"
     inkscape:zoom="3.6203867"
     inkscape:cx="50.270873"
     inkscape:cy="81.206795"
     inkscape:document-units="px"
     inkscape:current-layer="g5175"
     showgrid="false"
     fit-margin-top="0"
     fit-margin-left="0"
     fit-margin-right="0"
     fit-margin-bottom="0"
     inkscape:window-width="1920"
     inkscape:window-height="1012"
     inkscape:window-x="0"
     inkscape:window-y="0"
     inkscape:window-maximized="1"
     showguides="false"
     inkscape:object-nodes="true"
     units="px"
     inkscape:snap-page="true"
     inkscape:showpageshadow="2"
     inkscape:pagecheckerboard="0"
     inkscape:deskcolor="#d1d1d1" /><metadata
     id="metadata5"><rdf:RDF><cc:Work
         rdf:about=""><dc:format>image/svg+xml</dc:format><dc:type
           rdf:resource="http://purl.org/dc/dcmitype/StillImage" /></cc:Work></rdf:RDF></metadata><g
     inkscape:label="Layer 1"
     inkscape:groupmode="layer"
     id="layer1"
     transform="translate(98.048812,-95.14345)"><g
       style="stroke-width:0.5"
       transform="matrix(2,0,0,2,-98.048812,95.143449)"
       id="g5175"><rect
         y="-1.110223e-16"
         x="0"
         height="26.458334"
         width="26.458334"
         id="rect5163"
         style="opacity:1;fill:#222222;fill-opacity:1;fill-rule:nonzero;stroke:none;stroke-width:0.25;stroke-linecap:butt;stroke-linejoin:round;stroke-miterlimit:4;stroke-dasharray:none;stroke-dashoffset:0;stroke-opacity:0.90944878;paint-order:normal"
         rx="1.984375"
         ry="1.984375" /><rect
         style="opacity:1;fill:#0088aa;fill-opacity:1;fill-rule:nonzero;stroke:none;stroke-width:0.25;stroke-linecap:butt;stroke-linejoin:round;stroke-miterlimit:4;stroke-dasharray:none;stroke-dashoffset:0;stroke-opacity:0.90944878;paint-order:normal"
         id="rect5165"
         width="23.8125"
         height="23.8125"
         x="1.322917"
         y="1.322917"
         rx="1.3229166"
         ry="1.3229166" /><path
         style="opacity:1;fill:#222222;fill-opacity:1;fill-rule:nonzero;stroke:none;stroke-width:0.25;stroke-linecap:butt;stroke-linejoin:round;stroke-miterlimit:4;stroke-dasharray:none;stroke-dashoffset:0;stroke-opacity:0.909449;paint-order:normal"
         d="m 0.72760458,18.520836 v 4.167188 c 0,1.539081 1.23904402,2.778124 2.77812502,2.778124 H 22.952604 c 1.539081,0 2.778125,-1.239043 2.778125,-2.778124 v -4.167188 z"
         id="rect5205-3-6"
         inkscape:connector-curvature="0" /><text
         xml:space="preserve"
         style="font-size:2.50845px;fill:#222222;fill-opacity:1;stroke-width:0.10452"
         x="1.374046"
         y="22.962332"
         id="text2040"><tspan
           sodipodi:role="line"
           id="tspan2038"
           style="font-style:normal;font-variant:normal;font-weight:bold;font-stretch:normal;font-family:'Gothic A1';-inkscape-font-specification:'Gothic A1 Bold';fill:#ffffff;fill-opacity:1;stroke-width:0.10452"
           x="1.374046"
           y="22.962332">ANTI-PROTESTANT</tspan></text></g></g><style
     type="text/css"
     id="style3491">
	.st0{fill-rule:evenodd;clip-rule:evenodd;fill:#007F00;}
</style><g
     id="g12713"
     transform="translate(-46.25277,-74.582794)"><path
       style="display:inline;fill:#222222;fill-opacity:1;stroke-width:0.0952801"
       d="m 71.533608,113.86066 c -0.59965,-0.8272 -1.460748,-2.01615 -1.913548,-2.64209 l -0.823275,-1.13809 3.97e-4,-3.14953 c 1.9e-4,-1.73225 0.02831,-3.69702 0.06243,-4.36615 l 0.06205,-1.21661 2.105197,0.0256 2.105203,0.0256 0.02447,6.59811 0.02448,6.59809 -0.278554,0.38454 -0.278555,0.38453 z m 2.240884,-6.33949 0.02452,-6.12177 1.061111,-0.0268 1.06111,-0.0268 0.06502,1.26548 c 0.03576,0.69602 0.1261,2.4017 0.200751,3.79042 0.07465,1.38871 0.135197,2.82506 0.134544,3.1919 l -0.0012,0.66696 -1.213035,1.68688 c -0.667169,0.92778 -1.245508,1.68883 -1.285195,1.69123 -0.03969,0.003 -0.06113,-2.75045 -0.04764,-6.11741 z m 2.929011,2.06759 c -8.58e-4,-0.0498 -0.08619,-1.71981 -0.189622,-3.71117 -0.244581,-4.70894 -0.245856,-4.52583 0.03147,-4.52583 0.121778,0 0.593416,0.26657 1.048085,0.59236 l 0.826672,0.59237 v 2.39475 2.39476 l -0.772985,1.08612 c -0.858816,1.20672 -0.941331,1.30961 -0.943628,1.17664 z m -9.216363,-1.31031 -0.690323,-0.97166 0.0012,-2.33437 0.0012,-2.33438 0.716595,-0.50022 c 0.394127,-0.27512 0.764429,-0.50022 0.822893,-0.50022 0.07589,0 0.08858,0.34749 0.04434,1.21483 -0.03408,0.66815 -0.06213,2.3832 -0.06235,3.81122 -1.9e-4,1.42801 -0.03255,2.59415 -0.07185,2.59142 -0.0393,-0.003 -0.382104,-0.44222 -0.761782,-0.97662 z m -9.135029,0.71957 c 0.607311,-2.06567 0.763661,-2.56269 0.828616,-2.63409 0.0433,-0.0476 0.586319,0.39073 1.227707,0.99099 0.632537,0.59197 1.137436,1.08896 1.121995,1.10439 -0.03936,0.0394 -2.982699,0.70545 -3.117241,0.70545 -0.06056,0 -0.08804,-0.075 -0.06108,-0.16674 z m 27.071122,-0.15808 c -0.733659,-0.17056 -1.387956,-0.32819 -1.453994,-0.35027 -0.117358,-0.0393 2.075953,-2.18364 2.232805,-2.18301 0.06154,2.9e-4 0.580909,1.61315 0.866639,2.69136 0.0592,0.22339 -0.04947,0.21295 -1.64545,-0.15808 z m -25.165969,-2.34795 -1.441124,-1.4243 h 1.655505 c 1.513059,0 1.655526,0.0143 1.655749,0.16675 4.68e-4,0.33688 -0.312631,2.55086 -0.369882,2.6153 -0.03252,0.0366 -0.70763,-0.57439 -1.500248,-1.35775 z m 23.365671,1.17332 c -0.111651,-0.55153 -0.354851,-2.52276 -0.316038,-2.56157 0.02237,-0.0224 0.770589,-0.0289 1.662721,-0.0146 l 1.622053,0.0262 -1.457721,1.40661 c -1.407799,1.35843 -1.459551,1.39759 -1.511015,1.14336 z M 58.54402,104.32927 c 0.0277,-0.0917 0.164039,-0.68125 0.302969,-1.3101 0.13893,-0.62886 0.265999,-1.15802 0.282374,-1.17591 0.03882,-0.0425 3.035589,2.45954 3.077187,2.56911 0.01756,0.0462 -0.805276,0.0836 -1.84057,0.0836 -1.73884,0 -1.868738,-0.0119 -1.82196,-0.16674 z m 24.700761,0.10034 c -0.02827,-0.0283 0.638239,-0.6266 1.481168,-1.32961 0.842926,-0.703 1.549163,-1.26161 1.569415,-1.24136 0.03292,0.0329 0.604717,2.49118 0.604717,2.5998 0,0.0624 -3.592482,0.034 -3.6553,-0.0288 z M 60.555023,102.1541 c -0.995682,-0.871 -1.81033,-1.61386 -1.81033,-1.6508 0,-0.037 1.029029,-2.024481 2.286732,-4.416752 1.88237,-3.580448 2.308804,-4.327661 2.411557,-4.225623 0.102883,0.102169 0.03121,1.110498 -0.40773,5.736379 -0.292904,3.086836 -0.563456,5.731226 -0.601226,5.876426 -0.06778,0.26058 -0.09217,0.24345 -1.879003,-1.31963 z m 0.571127,-1.99594 c 0.209311,-0.444015 0.407736,-0.807292 0.440946,-0.807292 0.03321,0 0.221909,0.06749 0.419331,0.14998 0.294377,0.122998 0.373285,0.127283 0.438621,0.02381 0.09042,-0.143193 -0.1254,-0.341285 -0.464638,-0.426471 -0.254609,-0.06393 -0.266105,-0.151496 -0.06098,-0.464548 0.155806,-0.237792 0.124981,-0.521429 -0.05667,-0.521429 -0.05489,0 -0.171374,0.150067 -0.258839,0.333485 -0.181228,0.380037 -0.197668,0.384765 -0.662471,0.190558 -0.415191,-0.173474 -0.381962,-0.173453 -0.44839,-3.6e-4 -0.03742,0.09753 0.06471,0.203501 0.323288,0.335418 0.2079,0.106065 0.378,0.214363 0.378,0.240662 0,0.02629 -0.172904,0.391709 -0.384231,0.812017 -0.211327,0.42031 -0.358864,0.80524 -0.327859,0.85541 0.136076,0.22017 0.308278,0.0331 0.663894,-0.72127 z m 21.867429,3.53376 c 0,-0.0761 -1.041342,-10.955731 -1.08305,-11.315439 -0.02247,-0.193815 0.01135,-0.423813 0.07518,-0.511105 0.09872,-0.135003 0.461844,0.499253 2.430659,4.245517 2.244566,4.270977 2.309228,4.409337 2.13713,4.573027 -0.452561,0.43043 -3.468379,3.04985 -3.511387,3.04985 -0.02669,0 -0.04854,-0.0189 -0.04854,-0.0419 z m 2.027982,-2.78013 c 0.03237,-0.0324 -0.133664,-0.44216 -0.368956,-0.91066 l -0.427803,-0.851805 0.383866,-0.161252 c 0.412241,-0.173169 0.425227,-0.189723 0.301707,-0.384614 -0.06708,-0.105841 -0.132194,-0.101703 -0.37493,0.02381 -0.412235,0.213174 -0.476072,0.195503 -0.655889,-0.181574 -0.170352,-0.357238 -0.197502,-0.37439 -0.394736,-0.249387 -0.105842,0.06708 -0.101705,0.132195 0.02384,0.374931 0.212457,0.410848 0.195927,0.46447 -0.181577,0.589059 -0.318177,0.105009 -0.434742,0.307293 -0.244746,0.424715 0.04881,0.03018 0.241209,-0.01786 0.427569,-0.10673 0.186356,-0.08887 0.355818,-0.143175 0.376587,-0.120682 0.02078,0.02251 0.214729,0.394625 0.431025,0.826969 0.35614,0.71186 0.534836,0.89644 0.704061,0.72721 z m -20.202737,1.10405 c -0.599168,-0.28448 -0.976625,-0.51899 -0.976625,-0.60677 0,-0.20598 -0.272634,-3.450596 -0.335069,-3.987635 -0.04257,-0.366148 -0.02469,-0.452583 0.09359,-0.452583 0.08041,0 0.148579,0.03216 0.151483,0.07146 0.0029,0.0393 0.10603,0.457347 0.229169,0.928987 l 0.223889,0.857524 0.009,-1.030304 0.009,-1.030301 0.302338,0.02985 c 0.293757,0.02902 0.313079,0.06034 0.680812,1.103793 0.20816,0.590668 0.388606,1.062304 0.400988,1.048086 0.01238,-0.01423 -0.05632,-0.454613 -0.152673,-0.978656 -0.193253,-1.051076 -0.219846,-1.381568 -0.111165,-1.381568 0.03972,0 0.490113,0.739615 1.000879,1.643588 0.510765,0.903975 1.077015,1.904469 1.258332,2.223299 l 0.329668,0.57972 -1.018223,0.70657 c -0.560024,0.38861 -1.04086,0.71379 -1.068526,0.72259 -0.02767,0.009 -0.489783,-0.19263 -1.026928,-0.44766 z m 13.851169,-0.2207 c -0.552526,-0.37487 -1.006287,-0.72925 -1.008358,-0.7875 -0.0029,-0.0834 2.30791,-4.272683 2.430172,-4.40563 0.01688,-0.01837 0.07056,-0.0087 0.11931,0.02143 0.05215,0.03223 -0.0031,0.533871 -0.134196,1.218814 -0.122554,0.64022 -0.210868,1.175996 -0.196251,1.19061 0.01461,0.01462 0.200715,-0.475961 0.413556,-1.09017 0.376092,-1.085323 0.395385,-1.117585 0.685643,-1.146603 l 0.298661,-0.02985 0.0092,1.030301 0.0092,1.030304 0.239977,-0.928986 c 0.158253,-0.612614 0.28493,-0.928986 0.371981,-0.928986 0.0726,0 0.132,0.02002 0.132,0.04447 0,0.422502 -0.410852,4.499706 -0.458096,4.546076 -0.03627,0.0356 -0.480429,0.25657 -0.987018,0.49104 l -0.921074,0.42629 -1.004592,-0.68158 z m -9.010854,-1.08653 c 0.0027,-0.0393 0.631937,-0.49902 1.398398,-1.021607 0.766464,-0.522582 3.111764,-2.167638 5.211778,-3.65568 2.100015,-1.488039 3.867468,-2.724852 3.927673,-2.748465 0.0602,-0.02363 0.136174,2.88e-4 0.168821,0.05311 0.03265,0.05283 -0.595441,0.640947 -1.39575,1.306944 -2.293677,1.908733 -2.259641,1.922399 0.247148,0.09923 0.621817,-0.452244 1.163717,-0.822259 1.204223,-0.822259 0.0405,0 0.101849,0.150313 0.136314,0.334029 0.05809,0.309656 -0.07386,0.559975 -1.808117,3.430097 l -1.870782,3.096071 h -3.612268 c -1.986747,0 -3.610094,-0.0322 -3.607438,-0.0714 z m -2.999795,-3.220828 c -1.025387,-1.707805 -1.86434,-3.144917 -1.86434,-3.193583 0,-0.252445 0.289499,0.05678 1.478194,1.578933 0.716175,0.917071 1.317941,1.667403 1.337255,1.667403 0.01931,0 -0.563381,-0.851003 -1.294883,-1.891118 -0.731503,-1.040118 -1.329348,-1.951238 -1.328545,-2.024712 0.0053,-0.489066 0.167898,-0.393095 3.565461,2.105021 1.869426,1.374523 3.385896,2.509678 3.369935,2.522563 -0.08327,0.06723 -3.190168,2.217161 -3.286007,2.273891 -0.07461,0.0442 -0.743241,-0.983425 -1.97707,-3.038398 z m 3.707984,-1.257011 -1.427622,-1.027245 -0.07468,-0.665644 c -0.04108,-0.366104 -0.06251,-0.848846 -0.04764,-1.072763 l 0.02704,-0.40712 1.76269,1.571099 1.762689,1.571103 0.500222,0.0033 0.500222,0.0033 v 0.476404 0.476404 h -0.65917 c -0.362544,0 -0.716987,0.02219 -0.78765,0.0493 -0.07067,0.02712 -0.770909,-0.412959 -1.556101,-0.977944 z m 3.482039,0.2855 c 0.0015,-0.196515 0.08401,-1.652269 0.183367,-3.235012 l 0.180654,-2.87771 0.336024,-0.600028 c 0.597855,-1.067568 0.596966,-1.067223 0.666854,-0.259578 0.05462,0.631236 0.297696,4.435331 0.361499,5.657483 l 0.02462,0.471665 -0.806408,0.593677 c -0.443523,0.326524 -0.838564,0.596632 -0.877867,0.600244 -0.0393,0.0036 -0.07024,-0.154223 -0.06875,-0.350741 z M 63.521943,95.944589 c 0.06618,-1.058523 0.08518,-1.110668 0.472004,-1.295125 0.191536,-0.09134 0.358622,-0.153511 0.371302,-0.138166 0.0595,0.07201 0.810878,1.729827 0.810878,1.789084 0,0.06536 -1.299761,0.382629 -1.567489,0.382629 -0.106176,0 -0.123591,-0.148331 -0.08669,-0.738422 z m 17.423106,0.57628 c -0.36683,-0.07827 -0.680182,-0.154914 -0.696337,-0.17032 -0.01616,-0.01541 0.164034,-0.441885 0.400422,-0.947739 l 0.429795,-0.919734 0.38564,0.196741 c 0.307999,0.15713 0.385781,0.249106 0.386321,0.456824 3.6e-4,0.143049 0.02802,0.549501 0.06142,0.903229 0.07018,0.743045 0.127423,0.714577 -0.967259,0.480999 z M 69.900427,93.316773 c -1.410562,-1.266701 -2.580353,-2.35018 -2.599536,-2.407726 -0.01919,-0.05755 0.249916,-0.354671 0.597997,-0.660268 0.4913,-0.431336 0.64996,-0.525142 0.709251,-0.419336 0.08367,0.149299 2.91009,4.253987 3.587517,5.209982 0.232088,0.327528 0.387655,0.592116 0.345704,0.587974 -0.04195,-0.0041 -1.230371,-1.043919 -2.640933,-2.310626 z m 1.024059,-0.752633 c -1.203216,-1.691141 -2.220874,-3.130493 -2.261464,-3.198562 -0.04357,-0.07306 0.0918,-0.516193 0.330401,-1.081649 0.272018,-0.644639 0.428605,-0.91429 0.478822,-0.824556 0.04105,0.07333 0.360683,0.924524 0.710315,1.891534 0.567051,1.568342 1.911804,4.365476 2.828845,5.884093 0.104511,0.173068 0.169934,0.33476 0.145383,0.359308 -0.02455,0.02456 -1.029087,-1.339023 -2.232302,-3.030168 z m 4.976196,2.376491 c -0.04913,-0.443892 -0.434697,-6.586365 -0.434388,-6.920202 7.1e-5,-0.07424 0.02027,-0.114837 0.04489,-0.09021 0.0546,0.05459 1.384852,6.550854 1.382608,6.751906 -8.57e-4,0.07861 -0.212316,0.280688 -0.469867,0.449071 l -0.468273,0.306144 z m -3.628261,-1.855908 c -0.995795,-1.712723 -1.239762,-2.2235 -1.914035,-4.007269 -0.682062,-1.80438 -0.760696,-2.076342 -0.669894,-2.316903 0.05658,-0.149901 0.130029,-0.27255 0.163217,-0.27255 0.03319,0 0.396233,0.911121 0.806771,2.024709 0.65342,1.772415 0.880752,2.256802 1.82438,3.887282 0.83559,1.443799 1.077951,1.940608 1.077951,2.209649 0,0.190891 -0.0331,0.367538 -0.07356,0.392541 -0.04046,0.02499 -0.587132,-0.837852 -1.214826,-1.917459 z m -4.857202,1.022633 c -0.576448,-0.423862 -1.10559,-0.804119 -1.175873,-0.845017 -0.09618,-0.05597 0.02098,-0.278934 0.473585,-0.901351 l 0.601373,-0.82699 0.601624,0.601623 0.601625,0.601627 -0.02713,1.070381 -0.02713,1.070385 z m -3.729175,0.122184 c 0.02599,-0.09171 0.07702,-0.572356 0.113403,-1.068112 0.03639,-0.495757 0.109038,-0.970044 0.161454,-1.053972 0.06739,-0.107912 0.05197,-0.236387 -0.05265,-0.438696 -0.148126,-0.286447 -0.124871,-1.083698 0.03161,-1.083698 0.03991,0 0.264966,0.339574 0.500107,0.754607 l 0.427532,0.754603 -0.223778,0.925651 c -0.123079,0.50911 -0.235863,0.933758 -0.250632,0.943661 -0.01477,0.0099 -0.1621,0.111312 -0.327401,0.225353 -0.363738,0.250936 -0.441608,0.259265 -0.379649,0.04061 z m 13.510708,-0.285841 c -0.05268,-0.248919 -0.148618,-0.711116 -0.213186,-1.0271 l -0.117396,-0.574517 0.404393,-0.64031 c 0.222414,-0.352167 0.43524,-0.640307 0.472942,-0.640307 0.03771,0 0.239632,0.246539 0.448729,0.547862 0.209097,0.301327 0.540003,0.768965 0.735345,1.039199 l 0.355167,0.491338 -0.901039,0.628206 c -0.495571,0.345517 -0.943367,0.62821 -0.995103,0.62821 -0.05174,0 -0.137168,-0.203659 -0.189852,-0.452581 z m 4.224701,0.300109 c -0.104808,-0.08053 -0.239761,-0.175636 -0.299894,-0.211352 -0.06013,-0.03573 -0.204185,-0.4937 -0.320121,-1.01774 l -0.210793,-0.952807 0.415403,-0.738381 c 0.228472,-0.406109 0.442082,-0.738398 0.474686,-0.738423 0.141025,-9.4e-5 0.175064,0.777546 0.04741,1.083072 -0.07842,0.187674 -0.100847,0.373739 -0.05416,0.449273 0.04382,0.0709 0.105344,0.40899 0.136711,0.751297 0.03136,0.342304 0.08067,0.826033 0.109579,1.074952 0.05596,0.481862 0.0047,0.533319 -0.298809,0.300109 z m -8.67071,-1.974847 c -0.419133,-0.688501 -0.775924,-1.306164 -0.792866,-1.37258 -0.02337,-0.09161 0.203809,-0.120757 0.94126,-0.120757 h 0.972065 l -0.05735,0.452582 c -0.03154,0.248919 -0.0862,0.85052 -0.12145,1.336892 -0.03526,0.486368 -0.09009,0.900367 -0.121849,0.919997 -0.03177,0.01963 -0.400677,-0.52763 -0.81981,-1.216134 z m -11.350028,0.109154 c -0.4344,-0.830224 -0.462912,-0.92811 -0.439027,-1.507211 0.01405,-0.340627 0.02679,-0.733422 0.02832,-0.872877 0.0029,-0.267584 0.246096,-0.437403 0.402441,-0.281059 0.05002,0.05002 0.145837,0.06989 0.21291,0.04416 0.104795,-0.04021 1.211878,1.378734 1.339445,1.716767 0.02233,0.05919 -0.211419,0.485724 -0.519454,0.94786 l -0.560064,0.840246 z m 21.557847,-0.03194 -0.540022,-0.81147 0.638538,-0.907043 c 0.351425,-0.4992 0.689696,-0.887411 0.752313,-0.863384 0.06258,0.02402 0.158995,-0.0015 0.214262,-0.05682 0.176888,-0.176889 0.425807,-0.0033 0.375154,0.261757 -0.02517,0.131611 -0.01184,0.260248 0.0296,0.285863 0.04145,0.02561 0.06345,0.335444 0.0489,0.688512 -0.02197,0.532797 -0.09382,0.77558 -0.422678,1.428001 -0.21792,0.432337 -0.432181,0.786063 -0.476133,0.786063 -0.04395,0 -0.322926,-0.365161 -0.619943,-0.811472 z m -6.667247,-2.73073 c -0.243037,-1.214549 -0.423479,-2.226682 -0.400981,-2.249178 0.0225,-0.02251 0.301373,0.478693 0.619721,1.113757 0.318349,0.635067 0.732234,1.324479 0.919745,1.532031 0.187511,0.207553 0.326255,0.414709 0.308321,0.46035 -0.06725,0.171141 -0.892473,1.345405 -0.947526,1.348297 -0.03157,0.0018 -0.256242,-0.990703 -0.49928,-2.205257 z m -4.501552,0.803204 c -0.057,-0.03948 -0.12802,-0.168253 -0.157821,-0.286162 -0.05346,-0.211543 -0.04169,-0.214381 0.890018,-0.214381 h 0.9442 l 0.927535,-1.857971 c 0.510144,-1.021881 0.961123,-1.857968 1.002173,-1.857968 0.04105,0 0.118896,0.09713 0.172989,0.215857 0.08366,0.183605 -0.04122,0.500387 -0.835747,2.119992 l -0.934098,1.904134 -0.952805,0.02412 c -0.524043,0.01329 -0.999443,-0.0081 -1.056444,-0.04764 z m -4.823269,-1.048408 c -1.607296,-2.108744 -1.896746,-5.163919 -0.712101,-7.516308 0.945087,-1.876693 2.622786,-3.255639 4.638563,-3.812561 0.963376,-0.266165 2.876713,-0.241548 3.808818,0.049 2.530352,0.788749 4.320126,2.631347 5.015577,5.163606 0.117089,0.426337 0.169107,0.963024 0.170313,1.757179 0.0025,1.65617 -0.340164,2.762189 -1.289714,4.162612 -0.202109,0.298074 -0.406892,0.566317 -0.455076,0.596096 -0.04818,0.02978 -0.18226,-0.09901 -0.297951,-0.286206 l -0.210346,-0.340345 0.303558,-0.4227 c 0.734878,-1.0233 1.145294,-2.347807 1.147536,-3.703371 0.0039,-2.394662 -1.284368,-4.52468 -3.427691,-5.667058 -1.68897,-0.900214 -4.008545,-0.919623 -5.773768,-0.04832 -2.579794,1.273375 -4.016126,4.229622 -3.420709,7.04048 0.150631,0.711105 0.673778,1.903904 1.053209,2.40136 0.127593,0.167285 0.231988,0.352021 0.231988,0.410525 0,0.156538 -0.278768,0.668586 -0.363989,0.668586 -0.04029,0 -0.228488,-0.20366 -0.418217,-0.452582 z m 4.766078,-1.002402 c -0.432661,-0.390343 -1.030177,-1.405155 -1.030177,-1.749638 0,-0.0886 0.07258,-0.391341 0.161293,-0.672763 l 0.161293,-0.511681 0.434211,0.06238 c 0.238816,0.03432 0.509243,0.128093 0.60095,0.208409 0.155757,0.136412 0.166741,0.117574 0.166741,-0.285935 0,-0.387128 -0.02877,-0.443889 -0.277147,-0.54677 -0.152431,-0.06314 -0.386272,-0.100498 -0.519648,-0.08302 -0.349138,0.04575 -0.331922,-0.128835 0.03376,-0.342408 0.45715,-0.26699 1.926885,-0.271455 2.41731,-0.0074 0.443631,0.238911 0.449427,0.402908 0.01243,0.35189 -0.510565,-0.0596 -0.809192,0.180699 -0.809192,0.651157 0,0.410251 0.04692,0.45143 0.278339,0.244277 0.08273,-0.07405 0.341311,-0.149091 0.57462,-0.16674 l 0.424195,-0.03208 0.183772,0.609549 0.183772,0.609546 -0.363712,0.676739 c -0.200044,0.372208 -0.537944,0.835766 -0.75089,1.030135 -0.347348,0.317042 -0.441081,0.353593 -0.911218,0.355344 -0.483388,0.0018 -0.558694,-0.02931 -0.970713,-0.401036 z m 1.450467,-0.597583 c 0.08313,-0.100154 0.09093,-0.177993 0.02451,-0.24441 -0.151209,-0.151212 -0.835694,-0.166455 -1.031902,-0.02297 -0.170241,0.124481 -0.169953,0.132893 0.0092,0.268401 0.245751,0.185877 0.843587,0.185272 0.998187,-0.0011 z m -0.154611,-0.863469 c 0.25276,-0.09699 0.0658,-0.22822 -0.325142,-0.22822 -0.356983,0 -0.536692,0.09851 -0.410292,0.224914 0.07714,0.07714 0.53764,0.07921 0.735434,0.0033 z m -3.743405,-0.919014 c 0.0065,-0.275121 0.03932,-0.800356 0.07292,-1.167184 l 0.06109,-0.666963 0.156607,0.80686 c 0.15078,0.776841 0.149768,0.820271 -0.02721,1.167188 -0.101103,0.198178 -0.20439,0.360324 -0.229527,0.360324 -0.02514,0 -0.04038,-0.225101 -0.03387,-0.500225 z m 6.510266,0.110184 c -0.132408,-0.256053 -0.137082,-0.384308 -0.03559,-0.976625 0.172386,-1.006058 0.278405,-0.985675 0.278405,0.05353 0,0.504036 0.02603,0.984249 0.05784,1.06714 0.105894,0.275957 -0.145821,0.155354 -0.300647,-0.144046 z m -5.884773,-0.867374 c -0.02906,-0.120688 -0.105217,-0.567995 -0.169246,-0.994019 -0.113252,-0.75353 -0.109397,-0.792116 0.141821,-1.419649 0.23778,-0.593957 0.883978,-1.536433 0.984513,-1.435899 0.02365,0.02366 -0.09274,0.411561 -0.258654,0.862015 -0.284332,0.771961 -0.297868,0.867468 -0.235653,1.662774 0.06243,0.798074 0.05312,0.862739 -0.171972,1.193992 -0.227193,0.334342 -0.240375,0.340269 -0.290809,0.130786 z m 5.201376,-0.215046 c -0.198363,-0.306281 -0.205715,-0.376288 -0.117475,-1.118367 0.09213,-0.774806 0.08727,-0.80986 -0.22888,-1.649155 -0.177657,-0.471639 -0.307017,-0.87539 -0.287469,-0.897223 0.100912,-0.112709 0.729881,0.798234 0.988816,1.432116 l 0.296341,0.725453 -0.148097,0.846674 c -0.08145,0.465672 -0.148236,0.878833 -0.148403,0.918136 -6.84e-4,0.162027 -0.15614,0.04916 -0.354833,-0.257634 z m -4.349139,-0.837001 c -0.149714,-0.822843 -0.0851,-1.445972 0.238475,-2.299894 0.310122,-0.818417 0.334362,-0.851382 0.749253,-1.018944 0.5973,-0.241233 1.372567,-0.227196 1.905167,0.0345 0.40085,0.196958 0.448305,0.262398 0.739924,1.02034 0.292812,0.761046 0.308339,0.861418 0.257463,1.664468 -0.02978,0.470022 -0.06838,0.868821 -0.08578,0.886221 -0.0174,0.01739 -0.237927,-0.09918 -0.490057,-0.259081 -0.433123,-0.274677 -0.511538,-0.290717 -1.421152,-0.290717 -0.529504,0 -1.003468,0.03601 -1.053252,0.08003 -0.04978,0.04402 -0.246438,0.173136 -0.437009,0.286932 l -0.346494,0.206901 z"
       id="path8452" /></g></svg>
