<?xml version="1.0" encoding="UTF-8" standalone="no"?>
<!-- Created with Inkscape (http://www.inkscape.org/) -->

<svg
   width="200"
   height="200"
   viewBox="0 0 52.916668 52.916666"
   version="1.1"
   id="svg8"
   inkscape:version="1.2.2 (b0a8486541, 2022-12-01)"
   sodipodi:docname="antijudaic.svg"
   xml:space="preserve"
   xmlns:inkscape="http://www.inkscape.org/namespaces/inkscape"
   xmlns:sodipodi="http://sodipodi.sourceforge.net/DTD/sodipodi-0.dtd"
   xmlns="http://www.w3.org/2000/svg"
   xmlns:svg="http://www.w3.org/2000/svg"
   xmlns:rdf="http://www.w3.org/1999/02/22-rdf-syntax-ns#"
   xmlns:cc="http://creativecommons.org/ns#"
   xmlns:dc="http://purl.org/dc/elements/1.1/"><defs
     id="defs2"><inkscape:path-effect
       effect="envelope"
       id="path-effect4658"
       is_visible="true"
       yy="true"
       xx="true"
       bendpath1="m -199.08406,108.42369 h 7.0057"
       bendpath2="m -192.07836,108.42369 v 6.75242"
       bendpath3="m -199.08406,115.17611 h 7.0057"
       bendpath4="m -199.08406,108.42369 v 6.75242" /><inkscape:path-effect
       effect="bend_path"
       id="path-effect4656"
       is_visible="true"
       bendpath="m -192.00142,114.60623 c 2.12577,-0.53066 4.48261,0.85111 7.0057,0"
       prop_scale="1"
       scale_y_rel="false"
       vertical="false"
       bendpath-nodetypes="cc" /><inkscape:path-effect
       effect="bounding_box"
       id="path-effect4654"
       is_visible="true"
       linkedpath=""
       visualbounds="false" /></defs><sodipodi:namedview
     id="base"
     pagecolor="#ffffff"
     bordercolor="#666666"
     borderopacity="1.0"
     inkscape:pageopacity="0.0"
     inkscape:pageshadow="2"
     inkscape:zoom="3.6203867"
     inkscape:cx="62.700484"
     inkscape:cy="103.5801"
     inkscape:document-units="px"
     inkscape:current-layer="g5175"
     showgrid="false"
     fit-margin-top="0"
     fit-margin-left="0"
     fit-margin-right="0"
     fit-margin-bottom="0"
     inkscape:window-width="1920"
     inkscape:window-height="1012"
     inkscape:window-x="0"
     inkscape:window-y="0"
     inkscape:window-maximized="1"
     showguides="false"
     inkscape:object-nodes="true"
     units="px"
     inkscape:snap-page="true"
     inkscape:showpageshadow="2"
     inkscape:pagecheckerboard="0"
     inkscape:deskcolor="#d1d1d1" /><metadata
     id="metadata5"><rdf:RDF><cc:Work
         rdf:about=""><dc:format>image/svg+xml</dc:format><dc:type
           rdf:resource="http://purl.org/dc/dcmitype/StillImage" /></cc:Work></rdf:RDF></metadata><g
     inkscape:label="Layer 1"
     inkscape:groupmode="layer"
     id="layer1"
     transform="translate(98.048812,-95.14345)"><g
       style="stroke-width:0.5"
       transform="matrix(2,0,0,2,-98.048812,95.143449)"
       id="g5175"><rect
         y="-1.110223e-16"
         x="0"
         height="26.458334"
         width="26.458334"
         id="rect5163"
         style="opacity:1;fill:#222222;fill-opacity:1;fill-rule:nonzero;stroke:none;stroke-width:0.25;stroke-linecap:butt;stroke-linejoin:round;stroke-miterlimit:4;stroke-dasharray:none;stroke-dashoffset:0;stroke-opacity:0.90944878;paint-order:normal"
         rx="1.984375"
         ry="1.984375" /><rect
         style="opacity:1;fill:#00112b;fill-opacity:1;fill-rule:nonzero;stroke:none;stroke-width:0.25;stroke-linecap:butt;stroke-linejoin:round;stroke-miterlimit:4;stroke-dasharray:none;stroke-dashoffset:0;stroke-opacity:0.90944878;paint-order:normal"
         id="rect5165"
         width="23.8125"
         height="23.8125"
         x="1.322917"
         y="1.322917"
         rx="1.3229166"
         ry="1.3229166" /><path
         style="opacity:1;fill:#222222;fill-opacity:1;fill-rule:nonzero;stroke:none;stroke-width:0.25;stroke-linecap:butt;stroke-linejoin:round;stroke-miterlimit:4;stroke-dasharray:none;stroke-dashoffset:0;stroke-opacity:0.909449;paint-order:normal"
         d="m 0.72760458,18.520836 v 4.167188 c 0,1.539081 1.23904402,2.778124 2.77812502,2.778124 H 22.952604 c 1.539081,0 2.778125,-1.239043 2.778125,-2.778124 v -4.167188 z"
         id="rect5205-3-6"
         inkscape:connector-curvature="0" /><text
         xml:space="preserve"
         style="font-size:3.57026px;fill:#222222;fill-opacity:1;stroke-width:0.148763"
         x="1.509021"
         y="23.372435"
         id="text2040"><tspan
           sodipodi:role="line"
           id="tspan2038"
           style="font-style:normal;font-variant:normal;font-weight:bold;font-stretch:normal;font-family:'Gothic A1';-inkscape-font-specification:'Gothic A1 Bold';fill:#ffffff;fill-opacity:1;stroke-width:0.148763"
           x="1.509021"
           y="23.372435">ANTI-JUDAIC</tspan></text></g></g><style
     type="text/css"
     id="style3491">
	.st0{fill-rule:evenodd;clip-rule:evenodd;fill:#007F00;}
</style><g
     inkscape:label="Layer 1"
     id="layer1-7"
     transform="matrix(0.10012403,0,0,0.10012403,15.821497,-8.002778)"
     style="fill:#ffffff;fill-opacity:1"><path
       id="path3823"
       style="opacity:1;fill:#ffffff;stroke-width:0.916719;fill-opacity:1"
       d="M 106.78772,137.00936 -2.0383101,341.69653 H 215.63111 C 179.39574,273.44709 106.78772,137.00936 106.78772,137.00936 Z m 0.34295,26.8706 c 0,0 15.20423,28.56903 34.2017,64.28416 18.99748,35.71507 41.78868,78.57579 56.96371,107.15804 H 15.979941 Z" /><path
       id="path3825"
       style="opacity:1;fill:#ffffff;stroke-width:0.916719;fill-opacity:1"
       d="M 106.78772,417.19087 -2.0383101,212.50375 H 215.63111 C 179.39574,280.75314 106.78772,417.19087 106.78772,417.19087 Z m 0.34295,-26.87057 c 0,0 15.20423,-28.56909 34.2017,-64.28416 18.99748,-35.71511 41.78868,-78.57579 56.96371,-107.15807 H 15.979941 Z" /><path
       id="path3827"
       style="fill:#ffffff;stroke:none;stroke-width:0.683206px;stroke-linecap:butt;stroke-linejoin:miter;stroke-opacity:1;fill-opacity:1"
       d="M 173.34156,148.41973 24.585406,404.62228 38.591143,413.84557 187.53023,155.93499 Z M 106.23662,116.08881 A 162.6086,162.6086 0 0 0 -56.371935,278.69737 162.6086,162.6086 0 0 0 106.23662,441.3059 162.6086,162.6086 0 0 0 268.84513,278.69737 162.6086,162.6086 0 0 0 106.23662,116.08881 Z m 0,18.17032 a 144.43841,144.43841 0 0 1 3.71956,0.047 144.43841,144.43841 0 0 1 3.71587,0.14322 144.43841,144.43841 0 0 1 3.71219,0.23967 144.43841,144.43841 0 0 1 3.70351,0.33487 144.43841,144.43841 0 0 1 3.69482,0.43003 144.43841,144.43841 0 0 1 3.68129,0.5252 144.43841,144.43841 0 0 1 3.6677,0.61909 144.43841,144.43841 0 0 1 3.65038,0.71425 144.43841,144.43841 0 0 1 3.63061,0.80695 144.43841,144.43841 0 0 1 3.60833,0.90088 144.43841,144.43841 0 0 1 3.58489,0.99352 144.43841,144.43841 0 0 1 3.55646,1.08622 144.43841,144.43841 0 0 1 3.52922,1.17644 144.43841,144.43841 0 0 1 3.49598,1.26658 144.43841,144.43841 0 0 1 3.46371,1.35686 144.43841,144.43841 0 0 1 3.42668,1.44583 144.43841,144.43841 0 0 1 3.38843,1.53232 144.43841,144.43841 0 0 1 3.34759,1.62006 144.43841,144.43841 0 0 1 3.30564,1.70653 144.43841,144.43841 0 0 1 3.25993,1.78937 144.43841,144.43841 0 0 1 3.21293,1.8734 144.43841,144.43841 0 0 1 3.16342,1.95616 144.43841,144.43841 0 0 1 3.11288,2.03648 144.43841,144.43841 0 0 1 3.05844,2.11563 144.43841,144.43841 0 0 1 3.00411,2.19342 144.43841,144.43841 0 0 1 2.94599,2.27006 144.43841,144.43841 0 0 1 2.8855,2.34668 144.43841,144.43841 0 0 1 2.8249,2.41834 144.43841,144.43841 0 0 1 2.76183,2.49125 144.43841,144.43841 0 0 1 2.69761,2.5617 144.43841,144.43841 0 0 1 2.6297,2.62965 144.43841,144.43841 0 0 1 2.56167,2.69639 144.43841,144.43841 0 0 1 2.49125,2.76186 144.43841,144.43841 0 0 1 2.41832,2.82492 144.43841,144.43841 0 0 1 2.34546,2.88666 144.43841,144.43841 0 0 1 2.2713,2.94602 144.43841,144.43841 0 0 1 2.19341,3.00408 144.43841,144.43841 0 0 1 2.11566,3.05844 144.43841,144.43841 0 0 1 2.03641,3.11159 144.43841,144.43841 0 0 1 1.95624,3.16467 144.43841,144.43841 0 0 1 1.87337,3.21295 144.43841,144.43841 0 0 1 1.78937,3.2599 144.43841,144.43841 0 0 1 1.70528,3.30437 144.43841,144.43841 0 0 1 1.62005,3.34884 144.43841,144.43841 0 0 1 1.53355,3.38844 144.43841,144.43841 0 0 1 1.4458,3.42664 144.43841,144.43841 0 0 1 1.35691,3.4638 144.43841,144.43841 0 0 1 1.26656,3.49592 144.43841,144.43841 0 0 1 1.17647,3.52805 144.43841,144.43841 0 0 1 1.08498,3.55765 144.43841,144.43841 0 0 1 0.99349,3.58495 144.43841,144.43841 0 0 1 0.90088,3.60833 144.43841,144.43841 0 0 1 0.80819,3.6306 144.43841,144.43841 0 0 1 0.71424,3.6504 144.43841,144.43841 0 0 1 0.61909,3.66644 144.43841,144.43841 0 0 1 0.52521,3.68248 144.43841,144.43841 0 0 1 0.43006,3.69489 144.43841,144.43841 0 0 1 0.33484,3.7035 144.43841,144.43841 0 0 1 0.23836,3.71218 144.43841,144.43841 0 0 1 0.14453,3.71587 144.43841,144.43841 0 0 1 0.047,3.71956 144.43841,144.43841 0 0 1 -0.40414,10.79296 144.43841,144.43841 0 0 1 -1.20853,10.7336 144.43841,144.43841 0 0 1 -2.00812,10.61382 144.43841,144.43841 0 0 1 -2.79647,10.4333 144.43841,144.43841 0 0 1 -3.56632,10.19489 144.43841,144.43841 0 0 1 -4.32014,9.90076 144.43841,144.43841 0 0 1 -5.0468,9.54981 144.43841,144.43841 0 0 1 -5.74744,9.14568 144.43841,144.43841 0 0 1 -6.41344,8.69098 144.43841,144.43841 0 0 1 -7.04618,8.18678 144.43841,144.43841 0 0 1 -7.63687,7.6381 144.43841,144.43841 0 0 1 -8.18802,7.04496 144.43841,144.43841 0 0 1 -8.691,6.41471 144.43841,144.43841 0 0 1 -9.14575,5.74616 144.43841,144.43841 0 0 1 -9.54974,5.04801 144.43841,144.43841 0 0 1 -9.89955,4.31893 144.43841,144.43841 0 0 1 -10.19605,3.56762 144.43841,144.43841 0 0 1 -10.43338,2.7952 144.43841,144.43841 0 0 1 -10.61255,2.0081 144.43841,144.43841 0 0 1 -10.7336,1.20976 144.43841,144.43841 0 0 1 -10.79416,0.40411 144.43841,144.43841 0 0 1 -10.794207,-0.40411 144.43841,144.43841 0 0 1 -10.733644,-1.20976 144.43841,144.43841 0 0 1 -10.612546,-2.0081 144.43841,144.43841 0 0 1 -10.433359,-2.7952 144.43841,144.43841 0 0 1 -10.194841,-3.56762 144.43841,144.43841 0 0 1 -9.90073,-4.31893 144.43841,144.43841 0 0 1 -9.549809,-5.04801 144.43841,144.43841 0 0 1 -9.145696,-5.74616 144.43841,144.43841 0 0 1 -8.690987,-6.41471 144.43841,144.43841 0 0 1 -8.1867567,-7.04496 144.43841,144.43841 0 0 1 -7.63812008,-7.6381 144.43841,144.43841 0 0 1 -7.04620132,-8.18678 144.43841,144.43841 0 0 1 -6.4134979,-8.69098 144.43841,144.43841 0 0 1 -5.747415,-9.14568 144.43841,144.43841 0 0 1 -5.046752,-9.54981 144.43841,144.43841 0 0 1 -4.318924,-9.90076 144.43841,144.43841 0 0 1 -3.567573,-10.19489 144.43841,144.43841 0 0 1 -2.795238,-10.4333 144.43841,144.43841 0 0 1 -2.009315,-10.61382 144.43841,144.43841 0 0 1 -1.208543,-10.7336 144.43841,144.43841 0 0 1 -0.404084,-10.79296 144.43841,144.43841 0 0 1 0.404084,-10.79418 144.43841,144.43841 0 0 1 1.208543,-10.73367 144.43841,144.43841 0 0 1 2.009315,-10.61373 144.43841,144.43841 0 0 1 2.795238,-10.43335 144.43841,144.43841 0 0 1 3.567573,-10.19483 144.43841,144.43841 0 0 1 4.318924,-9.89957 144.43841,144.43841 0 0 1 5.046752,-9.5498 144.43841,144.43841 0 0 1 5.747415,-9.14692 144.43841,144.43841 0 0 1 6.4134979,-8.68974 144.43841,144.43841 0 0 1 7.04620132,-8.18798 144.43841,144.43841 0 0 1 7.63812008,-7.63686 144.43841,144.43841 0 0 1 8.1867567,-7.04624 144.43841,144.43841 0 0 1 8.690987,-6.41471 144.43841,144.43841 0 0 1 9.145696,-5.74619 144.43841,144.43841 0 0 1 9.549809,-5.04676 144.43841,144.43841 0 0 1 9.90073,-4.32015 144.43841,144.43841 0 0 1 10.194841,-3.56758 144.43841,144.43841 0 0 1 10.433359,-2.79524 144.43841,144.43841 0 0 1 10.612546,-2.00805 144.43841,144.43841 0 0 1 10.733644,-1.20983 144.43841,144.43841 0 0 1 10.794207,-0.40283 z" /></g></svg>
