<?xml version="1.0" encoding="UTF-8" standalone="no"?>
<!-- Created with Inkscape (http://www.inkscape.org/) -->

<svg
   width="200"
   height="200"
   viewBox="0 0 52.916668 52.916666"
   version="1.1"
   id="svg8"
   inkscape:version="1.2.2 (b0a8486541, 2022-12-01)"
   sodipodi:docname="antiorthodox.svg"
   xml:space="preserve"
   xmlns:inkscape="http://www.inkscape.org/namespaces/inkscape"
   xmlns:sodipodi="http://sodipodi.sourceforge.net/DTD/sodipodi-0.dtd"
   xmlns="http://www.w3.org/2000/svg"
   xmlns:svg="http://www.w3.org/2000/svg"
   xmlns:rdf="http://www.w3.org/1999/02/22-rdf-syntax-ns#"
   xmlns:cc="http://creativecommons.org/ns#"
   xmlns:dc="http://purl.org/dc/elements/1.1/"><defs
     id="defs2"><inkscape:path-effect
       effect="envelope"
       id="path-effect4658"
       is_visible="true"
       yy="true"
       xx="true"
       bendpath1="m -199.08406,108.42369 h 7.0057"
       bendpath2="m -192.07836,108.42369 v 6.75242"
       bendpath3="m -199.08406,115.17611 h 7.0057"
       bendpath4="m -199.08406,108.42369 v 6.75242" /><inkscape:path-effect
       effect="bend_path"
       id="path-effect4656"
       is_visible="true"
       bendpath="m -192.00142,114.60623 c 2.12577,-0.53066 4.48261,0.85111 7.0057,0"
       prop_scale="1"
       scale_y_rel="false"
       vertical="false"
       bendpath-nodetypes="cc" /><inkscape:path-effect
       effect="bounding_box"
       id="path-effect4654"
       is_visible="true"
       linkedpath=""
       visualbounds="false" /></defs><sodipodi:namedview
     id="base"
     pagecolor="#ffffff"
     bordercolor="#666666"
     borderopacity="1.0"
     inkscape:pageopacity="0.0"
     inkscape:pageshadow="2"
     inkscape:zoom="2.56"
     inkscape:cx="59.765625"
     inkscape:cy="103.51563"
     inkscape:document-units="px"
     inkscape:current-layer="g5175"
     showgrid="false"
     fit-margin-top="0"
     fit-margin-left="0"
     fit-margin-right="0"
     fit-margin-bottom="0"
     inkscape:window-width="1920"
     inkscape:window-height="1012"
     inkscape:window-x="0"
     inkscape:window-y="0"
     inkscape:window-maximized="1"
     showguides="false"
     inkscape:object-nodes="true"
     units="px"
     inkscape:snap-page="true"
     inkscape:showpageshadow="2"
     inkscape:pagecheckerboard="0"
     inkscape:deskcolor="#d1d1d1" /><metadata
     id="metadata5"><rdf:RDF><cc:Work
         rdf:about=""><dc:format>image/svg+xml</dc:format><dc:type
           rdf:resource="http://purl.org/dc/dcmitype/StillImage" /></cc:Work></rdf:RDF></metadata><g
     inkscape:label="Layer 1"
     inkscape:groupmode="layer"
     id="layer1"
     transform="translate(98.048812,-95.14345)"><g
       style="stroke-width:0.5"
       transform="matrix(2,0,0,2,-98.048812,95.143449)"
       id="g5175"><rect
         y="-1.110223e-16"
         x="0"
         height="26.458334"
         width="26.458334"
         id="rect5163"
         style="opacity:1;fill:#222222;fill-opacity:1;fill-rule:nonzero;stroke:none;stroke-width:0.25;stroke-linecap:butt;stroke-linejoin:round;stroke-miterlimit:4;stroke-dasharray:none;stroke-dashoffset:0;stroke-opacity:0.90944878;paint-order:normal"
         rx="1.984375"
         ry="1.984375" /><rect
         style="opacity:1;fill:#aa0000;fill-opacity:1;fill-rule:nonzero;stroke:none;stroke-width:0.25;stroke-linecap:butt;stroke-linejoin:round;stroke-miterlimit:4;stroke-dasharray:none;stroke-dashoffset:0;stroke-opacity:0.90944878;paint-order:normal"
         id="rect5165"
         width="23.8125"
         height="23.8125"
         x="1.322917"
         y="1.322917"
         rx="1.3229166"
         ry="1.3229166" /><path
         style="opacity:1;fill:#222222;fill-opacity:1;fill-rule:nonzero;stroke:none;stroke-width:0.25;stroke-linecap:butt;stroke-linejoin:round;stroke-miterlimit:4;stroke-dasharray:none;stroke-dashoffset:0;stroke-opacity:0.909449;paint-order:normal"
         d="m 0.72760458,18.520836 v 4.167188 c 0,1.539081 1.23904402,2.778124 2.77812502,2.778124 H 22.952604 c 1.539081,0 2.778125,-1.239043 2.778125,-2.778124 v -4.167188 z"
         id="rect5205-3-6"
         inkscape:connector-curvature="0" /><text
         xml:space="preserve"
         style="font-size:2.78277px;fill:#222222;fill-opacity:1;stroke-width:0.11595"
         x="1.3643495"
         y="23.068283"
         id="text2040"><tspan
           sodipodi:role="line"
           id="tspan2038"
           style="font-style:normal;font-variant:normal;font-weight:bold;font-stretch:normal;font-family:'Gothic A1';-inkscape-font-specification:'Gothic A1 Bold';fill:#ffffff;fill-opacity:1;stroke-width:0.11595"
           x="1.3643495"
           y="23.068283">ANTI-ORTHODOX</tspan></text></g></g><style
     type="text/css"
     id="style3491">
	.st0{fill-rule:evenodd;clip-rule:evenodd;fill:#007F00;}
</style><g
     style="overflow:visible"
     id="g11995"
     transform="matrix(0.04075627,0,0,0.04075627,12.416902,3.6642663)"><g
       id="g918"
       transform="matrix(1.0030615,0,0,1.0030615,-1.0547558,-1.2230684)"><path
         sodipodi:nodetypes="cccccccccccccccccccccccccccccccccccccccccccccccccccccccc"
         d="M 633.64881,236.60665 C 626.61228,226.18583 623.45977,212.55402 617.7002,200.45647 612.19048,188.88416 604.7478,177.40116 598.56186,166.43277 588.981,149.4475 578.43897,131.91466 568.79112,116.46046 558.58827,100.11845 549.51989,91.784765 533.70418,80.310272 524.98986,73.988242 516.26384,66.810304 508.1864,61.171939 490.87578,49.088208 471.3919,35.757297 451.83465,28.211477 c -11.50533,-4.43903 -25.04251,-6.00731 -39.33991,-8.505925 -26.2025,-4.578315 -56.06681,-9.8392297 -85.05926,-11.695648 -13.75514,-0.8803633 -40.01825,-3.5895006 -51.03555,0 -17.317,5.641555 -32.67977,13.680718 -48.90907,22.328055 -14.72801,7.846716 -34.79668,16.832163 -45.71935,26.581017 -15.46165,13.799801 -23.52527,36.914654 -32.96046,57.414994 -4.60596,10.00829 -9.90409,20.36851 -13.82213,30.83398 -4.41564,11.79347 -4.73142,25.09993 -9.56917,36.15019 -6.02219,13.75621 -23.34451,24.16852 -28.707497,39.3399 -10.891838,4.34866 -20.419538,10.05932 -24.454537,21.26482 2.594308,5.20669 8.328365,6.04771 12.758889,9.56916 4.172156,3.31625 6.914254,8.40386 11.695648,11.69565 4.355037,2.99834 10.329387,4.57938 14.885367,8.50593 15.22561,13.12251 4.84625,22.6332 -7.44268,35.08694 -13.006626,13.18206 -24.986159,23.03724 -38.276668,34.0237 -6.984428,5.7734 -14.881117,12.374 -17.011851,19.13834 -3.174837,10.08058 -1.1483,26.78516 8.505926,34.0237 6.325219,4.74205 14.238919,1.32054 21.264814,8.50592 -4.706967,19.62743 -45.433339,20.32066 -43.592869,43.59287 0.675158,8.52932 8.694119,10.41232 14.88537,14.88537 6.721807,4.85582 10.837612,10.81954 17.011851,13.82213 -4.09135,10.87057 8.362388,18.61735 7.442685,26.58102 -1.011142,8.75898 -12.142209,19.27762 -18.075092,26.58102 -6.990808,8.60693 -17.171337,17.47861 -20.201573,25.51777 -3.370473,8.94398 -0.757028,19.27656 -3.189722,29.77074 -2.069067,8.92803 -11.435154,18.45786 -10.632407,27.64426 0.641134,7.33211 8.464459,11.9487 12.758888,17.01185 5.065279,5.97223 8.375147,12.92263 14.88537,14.88537 8.078503,2.43589 19.247846,-1.08663 29.770739,-2.12648 10.345332,-1.02177 23.494429,-3.28648 32.960459,-2.12648 9.53089,1.1685 17.57112,6.05728 24.45454,8.50592 8.61225,3.0632 16.14106,5.39914 25.51778,8.50593 1.70756,3.60864 0.63794,9.99446 3.18972,12.75889 28.37045,17.73273 54.7771,36.30861 81.86953,54.22527 8.77067,5.79998 18.27392,13.40003 27.64426,18.0751 11.71053,5.84357 26.05578,9.21829 39.33991,13.82213 27.8484,9.65103 51.30561,17.03417 79.74305,26.58101 13.54994,4.54855 31.09341,12.97898 42.52963,11.69565 14.01989,-1.57253 31.85043,-20.67471 45.71935,-30.83398 7.18112,-5.25985 14.83433,-10.44421 22.32805,-15.94861 7.77867,-5.71386 17.10223,-10.61008 21.26482,-17.01185 6.39645,-9.83604 9.47879,-28.50974 13.82212,-43.59287 11.37562,-39.50046 19.10219,-75.62725 29.77074,-113.76676 5.92438,-21.18188 11.86152,-33.05827 21.26482,-48.90907 12.4346,-20.96391 24.80966,-43.79594 37.21342,-64.85768 3.06107,-5.19712 7.17688,-8.5878 8.50593,-12.75889 2.11372,-6.63356 1.94679,-15.71682 3.18972,-23.39129 8.55377,-52.8218 18.74281,-108.47714 26.58102,-157.35963 -8.19652,-11.00348 -25.04676,-15.92415 -32.96046,-27.64426 z"
         id="path2"
         inkscape:connector-curvature="0"
         style="clip-rule:evenodd;fill:#ffcc00;fill-rule:evenodd;stroke:#ab0000;stroke-width:7.44269;stroke-miterlimit:4;stroke-dasharray:none;stroke-opacity:1" /><path
         d="m 599.6251,245.11258 c 5.34598,-0.32429 8.39854,-2.94199 12.75889,-4.25296 13.63606,9.04605 25.77615,19.58914 37.21343,30.83398 -7.19389,43.89483 -14.18895,88.69979 -22.32806,133.96833 -2.61451,14.53769 -3.55335,31.13275 -8.50592,43.59286 -2.96538,7.46076 -9.28103,15.62433 -13.82213,23.3913 -11.24803,19.23615 -22.31955,38.52015 -34.02371,58.47824 -2.27958,3.88721 -5.84888,7.28001 -7.44268,10.63241 -6.15404,12.94814 -8.24224,30.39273 -12.75889,45.71935 -11.03856,37.45903 -22.49498,71.37747 -34.0237,111.64027 -2.21579,7.73826 -3.12061,17.50838 -6.37945,22.32805 -3.19929,4.73036 -11.75093,8.26989 -18.07509,12.75889 -17.08734,12.12626 -36.22354,28.01639 -54.22527,37.21343 -5.77021,-17.8146 5.07697,-42.1054 3.18972,-59.54148 -5.24603,-4.6772 -13.71368,-6.13384 -22.32806,-7.44269 -11.35541,16.99803 -13.32878,43.3781 -24.45453,60.60472 -14.41967,-4.36354 -27.34974,-10.21774 -39.33991,-17.01185 18.54186,-39.71417 35.26982,-81.02638 54.22528,-121.20944 6.17317,-13.0853 15.05336,-24.98722 17.01185,-39.3399 -12.59834,0.003 -25.96328,3.9914 -38.27667,7.44268 -12.57494,3.52358 -24.68632,7.80844 -36.15018,11.69565 -25.55393,38.95076 -48.45294,80.55324 -73.36361,120.1462 -35.62175,-20.37595 -68.57158,-43.42275 -102.0711,-65.92093 -0.74108,-5.3481 1.80431,-7.41078 1.06324,-12.75888 -9.03436,-5.57458 -20.35894,-8.69093 -31.89723,-12.75889 -10.32938,-3.64267 -21.65608,-10.05082 -31.89722,-11.69565 -21.817695,-3.50338 -43.408924,7.24173 -64.857679,1.06324 0.412537,-5.81593 9.702071,-14.61212 18.075092,-15.94861 6.299701,-1.00476 13.985868,3.8989 20.201573,2.12648 5.776587,-1.64696 14.782234,-20.66621 18.075094,-26.58102 5.40232,-9.70419 7.22791,-23.22755 22.32805,-19.13833 -0.26581,13.55632 -8.30603,19.33822 -9.56916,31.89722 7.22046,3.4566 15.55202,-0.74958 23.39129,-2.12648 24.52578,-4.30825 51.7139,-6.88874 74.42685,-12.75889 -0.0861,-8.53888 -13.55313,-12.58664 -18.07509,-20.20157 4.52409,-4.93556 11.08641,-12.57708 17.01185,-12.75889 6.43261,-0.19776 15.99327,10.09972 23.3913,15.94861 8.80682,6.9621 16.67586,13.52017 22.32805,17.01185 26.05046,0.88674 51.07915,0.75278 60.60472,-14.88537 13.12677,-7.24917 27.45394,-10.65261 38.27667,-19.13833 6.25823,-4.90686 10.16989,-12.80567 14.88537,-19.13833 5.00786,-6.72606 10.06888,-13.02364 13.82212,-20.20158 7.80951,-2.8229 14.81201,-6.4528 23.3913,-8.50592 3.81278,4.33908 2.97707,13.32559 7.44268,17.01185 17.96984,-4.34228 39.64825,2.98877 57.415,-3.18972 7.93709,-2.76018 22.98301,-22.5524 30.83398,-30.83398 10.03168,-10.58244 22.75761,-20.43443 29.77074,-30.83398 3.41301,-5.06209 5.7532,-13.00663 9.56917,-20.20158 3.84042,-7.24067 9.67868,-14.32717 10.63241,-19.13833 4.00522,-20.20051 -1.55021,-40.48183 1.06324,-58.47824 -5.43423,-5.71704 -13.74452,-9.8775 -22.32806,-13.82213 -7.67128,-3.52464 -18.57481,-9.94555 -25.51778,-9.56916 -5.76382,0.31259 -15.39253,7.47458 -22.32805,11.69564 -6.74839,4.10624 -13.6435,10.30387 -20.20157,12.75889 -9.73929,3.64586 -19.738,3.55548 -28.7075,5.31621 -9.11091,1.78837 -17.83374,4.28273 -27.64426,6.37944 -13.87742,-15.89332 -23.24988,-36.29053 -35.08694,-54.22528 0.73682,-7.64044 6.60697,-11.4798 6.37944,-18.07509 -0.28388,-8.21353 -9.15025,-13.20119 -10.63241,-21.26481 1.02816,-4.64317 5.46506,-5.87653 7.44269,-9.56917 9.33206,2.49011 17.29892,13.09381 27.64426,22.32806 3.72666,3.32581 9.03435,6.47194 13.82213,10.6324 5.5735,4.84307 9.45114,10.575 13.82213,10.63241 6.7654,0.0883 12.49733,-8.34112 17.01185,-13.82213 -4.88028,-7.17049 -12.16773,-11.93275 -18.0751,-18.07509 1.59274,-5.84889 8.30498,-6.5804 10.63241,-11.69565 -12.40802,-13.10976 -28.18013,-22.85542 -41.46639,-35.08694 1.48429,-7.09075 9.77757,-10.24645 15.94861,-14.88537 5.53736,-4.16365 11.71904,-11.27035 18.0751,-12.75889 13.30539,-3.11742 28.178,3.28116 41.46638,2.12648 5.31621,-0.46251 12.16454,-3.75855 18.0751,-5.3162 6.25185,-1.64802 13.45105,-2.3604 18.07509,-4.25296 7.77441,-3.18228 14.70993,-10.59413 22.32805,-12.75889 23.59225,18.58226 39.39413,44.957 62.7312,63.79444 z"
         id="path6"
         inkscape:connector-curvature="0"
         style="clip-rule:evenodd;fill:#aa0000;fill-rule:evenodd;stroke-width:1.06324" /><path
         d="m 119.04031,234.48017 c 0.7432,8.4719 6.10513,21.26163 1.06324,28.7075 -14.35269,-5.49376 -24.083467,-15.6105 -35.086945,-24.45453 0.641134,-3.96589 3.998848,-5.2152 4.252963,-9.56917 11.653122,-2.67192 16.736472,6.29332 29.770742,5.3162 z"
         id="path8"
         inkscape:connector-curvature="0"
         style="clip-rule:evenodd;fill:#aa0000;fill-rule:evenodd;stroke-width:1.06324" /><path
         d="m 299.79123,257.87147 c -0.34556,3.90741 0.90694,9.41287 -1.06324,11.69565 -16.95869,-3.95207 -32.98598,-8.83447 -49.97232,-12.75889 -0.31365,-4.13707 2.75273,-8.4113 0,-11.69565 -12.10287,2.15306 -11.91255,17.74761 -21.26481,23.3913 -7.17369,4.32845 -16.25483,1.47365 -26.58102,5.3162 -1.19827,6.16042 2.19134,7.73189 3.18972,11.69565 18.91293,5.54161 36.89233,12.01674 52.0988,21.26481 4.69208,-0.27006 5.60221,-4.32101 9.56916,-5.3162 13.09807,4.52728 22.97132,-5.84889 32.96047,-4.25297 1.00051,5.96266 -2.71446,7.20984 -3.18973,11.69565 0.40616,4.91217 9.09071,6.01263 6.37945,10.63241 -13.85403,-0.71769 -33.70899,-6.16786 -46.78259,2.12648 -6.10832,-0.88674 -9.47667,-7.46927 -15.94861,-9.56917 -10.76213,-3.49168 -24.37054,-1.80963 -37.21343,-4.25296 -3.30668,0.2371 -1.79687,5.29175 -2.12648,8.50593 -4.03819,1.63207 -8.26351,3.07808 -12.75889,4.25296 -5.32152,-0.70387 -4.41351,-7.63726 -8.50592,-9.56917 -5.82231,-0.5061 -5.87335,4.75907 -11.69565,4.25297 -1.94892,-6.20933 -7.96474,-8.47935 -7.44269,-13.82213 0.6741,-6.90575 11.23208,-8.22417 13.82213,-14.88537 -1.0122,-10.24752 -8.49742,-18.0315 -8.50592,-27.64426 -0.005,-6.22953 5.29175,-10.4995 3.18972,-18.07509 4.54642,-0.0606 7.78824,-1.42687 11.69565,-2.12648 2.56666,3.1036 2.83247,8.50911 5.3162,11.69564 23.81447,-3.48211 44.28717,-13.76152 61.66796,-20.20157 4.43903,-1.64483 9.98489,3.73835 14.88537,7.44269 11.41176,8.62607 25.11162,13.57439 38.27667,20.20157 z"
         id="path10"
         inkscape:connector-curvature="0"
         style="clip-rule:evenodd;fill:#aa0000;fill-rule:evenodd;stroke-width:1.06324" /><path
         d="m 253.00864,328.04535 c -3.37792,6.88236 -10.36979,15.05868 -17.01186,14.88537 -8.11359,-0.21158 -10.59944,-11.18422 -17.01185,-14.88537 3.89465,-10.18159 24.60552,-0.9197 34.02371,0 z"
         id="path12"
         inkscape:connector-curvature="0"
         style="clip-rule:evenodd;fill:#aa0000;fill-rule:evenodd;stroke-width:1.06324" /><path
         d="m 536.8939,406.72517 c -2.63577,0.92608 -8.24437,2.07651 -10.6324,0 -2.94624,-7.36507 4.35928,-22.17708 -1.06325,-28.7075 -9.6808,8.7728 -14.65783,21.59654 -34.0237,22.32805 3.52146,11.47024 10.29961,29.87494 3.18972,40.40315 -4.61765,6.83876 -14.61849,3.80427 -23.39129,6.37944 -10.87164,3.19185 -21.00432,18.67583 -29.77074,13.82213 -5.34385,-14.3176 9.76268,-17.08947 18.07509,-21.26481 2.41462,-12.11669 5.00149,-24.06114 6.37945,-37.21343 5.53842,-5.44804 13.6031,-8.37089 12.75888,-20.20157 11.97422,-5.55969 31.96208,-19.01819 43.59287,-24.45454 4.16153,-1.94466 9.99659,4.61128 14.88537,6.37945 4.50814,11.34478 1.74691,28.6554 0,42.52963 z"
         id="path14"
         inkscape:connector-curvature="0"
         style="clip-rule:evenodd;fill:#aa0000;fill-rule:evenodd;stroke-width:1.06324" /><path
         d="m 165.8229,401.40896 c 0.93352,5.34066 -0.27857,7.11946 0,13.82213 -19.24891,11.54467 -40.7891,-9.30654 -59.54148,-11.69565 -7.030149,2.2477 -13.360684,5.99881 -21.264815,2.12649 -2.600687,-2.71658 0.474205,-11.10555 -2.126482,-13.82213 -2.651722,-2.66448 -8.619692,-2.01272 -12.758888,-3.18973 0.658146,-2.88563 -1.350316,-8.43787 1.063241,-9.56916 0.861225,-0.20202 1.060051,-1.06643 2.126481,-1.06324 19.355234,1.50236 37.232563,-2.80058 51.035553,2.12648 10.50695,3.75005 14.90026,13.07254 23.3913,17.01185 8.1306,-1.967 13.90399,-0.26475 18.07509,4.25296 z"
         id="path16"
         inkscape:connector-curvature="0"
         style="clip-rule:evenodd;fill:#aa0000;fill-rule:evenodd;stroke-width:1.06324" /><path
         d="m 203.03632,496.03739 c 8.60906,-13.50422 -10.61327,-16.82047 -11.69565,-27.64426 4.87922,-6.26887 8.84298,-0.0478 12.75889,3.18972 9.86794,8.15825 15.65516,15.97838 23.3913,27.64426 4.28592,6.46344 10.06464,12.18155 9.56916,18.07509 -11.65311,-0.72194 -28.05466,-2.00315 -36.15018,0 -8.39854,-6.13277 -13.11401,-15.94755 -22.32805,-21.26481 -9.33632,3.25564 -14.94066,15.8274 -26.58102,14.88537 -7.00569,-0.56671 -9.01309,-6.29226 -15.94861,-9.56917 -7.05141,1.45451 -15.95712,1.05473 -24.45454,1.06324 -1.38115,-3.93505 -3.52677,-7.10564 -4.25296,-11.69565 13.61161,-3.04512 33.57182,0.25731 38.27666,-11.69565 -0.5667,-5.10461 -5.69897,-5.64261 -11.69564,-5.3162 -4.0871,-4.06371 -5.16097,-11.1417 -10.63241,-13.82213 -13.6435,2.73253 -26.159974,1.19402 -40.403147,0 -5.080164,0.2371 -4.560239,6.07217 -8.505925,7.44269 -7.758467,-1.04836 -11.425585,-8.86956 -17.011851,-12.75889 -4.970651,-3.46085 -12.871592,-3.89253 -14.88537,-10.63241 1.082379,-4.6453 7.525618,-4.62935 10.632407,-5.3162 3.989279,-0.88143 9.402237,-2.0595 12.758888,-2.12648 10.456973,-0.20946 19.746507,5.28643 27.644258,4.25296 6.5804,-0.86123 9.26402,-6.5166 14.88537,-6.37945 3.85956,0.0946 11.36498,4.79097 13.82213,6.37945 9.09283,5.87972 15.17989,18.84381 25.51778,22.32805 4.40819,1.48535 10.51119,-1.26206 15.94861,0 14.30696,3.31944 22.62576,30.77019 39.3399,32.96047 z"
         id="path18"
         inkscape:connector-curvature="0"
         style="clip-rule:evenodd;fill:#aa0000;fill-rule:evenodd;stroke-width:1.06324" /><path
         d="m 477.35242,464.14016 c 4.10624,11.55956 -3.76281,15.07995 -11.69564,20.20158 -4.46455,2.88351 -8.82384,6.71117 -11.69565,5.3162 0,-4.60702 0,-9.21511 0,-13.82213 8.38152,-3.31412 14.13578,-9.25551 23.39129,-11.69565 z"
         id="path20"
         inkscape:connector-curvature="0"
         style="clip-rule:evenodd;fill:#aa0000;fill-rule:evenodd;stroke-width:1.06324" /><path
         d="m 106.28142,528.99785 c 5.65538,0.0159 12.00718,-0.66665 14.88537,2.12648 -4.06264,11.53191 -8.31561,22.8735 -26.581019,20.20157 1.926592,-9.41393 7.388459,-15.29365 11.695649,-22.32805 z"
         id="path22"
         inkscape:connector-curvature="0"
         style="clip-rule:evenodd;fill:#aa0000;fill-rule:evenodd;stroke-width:1.06324" /><path
         d="m 100.96522,564.08479 c -4.742058,12.2698 -9.269337,24.75437 -26.581022,24.45454 1.005826,-10.66962 10.377229,-32.4416 26.581022,-24.45454 z"
         id="path24"
         inkscape:connector-curvature="0"
         style="clip-rule:evenodd;fill:#aa0000;fill-rule:evenodd;stroke-width:1.06324" /></g></g></svg>
