<?xml version="1.0" encoding="UTF-8" standalone="no"?>
<!-- Created with Inkscape (http://www.inkscape.org/) -->

<svg
   width="200"
   height="200"
   viewBox="0 0 52.916668 52.916666"
   version="1.1"
   id="svg8"
   inkscape:version="1.2.2 (b0a8486541, 2022-12-01)"
   sodipodi:docname="antishia.svg"
   xml:space="preserve"
   xmlns:inkscape="http://www.inkscape.org/namespaces/inkscape"
   xmlns:sodipodi="http://sodipodi.sourceforge.net/DTD/sodipodi-0.dtd"
   xmlns:xlink="http://www.w3.org/1999/xlink"
   xmlns="http://www.w3.org/2000/svg"
   xmlns:svg="http://www.w3.org/2000/svg"
   xmlns:rdf="http://www.w3.org/1999/02/22-rdf-syntax-ns#"
   xmlns:cc="http://creativecommons.org/ns#"
   xmlns:dc="http://purl.org/dc/elements/1.1/"><defs
     id="defs2"><inkscape:path-effect
       effect="envelope"
       id="path-effect4658"
       is_visible="true"
       yy="true"
       xx="true"
       bendpath1="m -199.08406,108.42369 h 7.0057"
       bendpath2="m -192.07836,108.42369 v 6.75242"
       bendpath3="m -199.08406,115.17611 h 7.0057"
       bendpath4="m -199.08406,108.42369 v 6.75242" /><inkscape:path-effect
       effect="bend_path"
       id="path-effect4656"
       is_visible="true"
       bendpath="m -192.00142,114.60623 c 2.12577,-0.53066 4.48261,0.85111 7.0057,0"
       prop_scale="1"
       scale_y_rel="false"
       vertical="false"
       bendpath-nodetypes="cc" /><inkscape:path-effect
       effect="bounding_box"
       id="path-effect4654"
       is_visible="true"
       linkedpath=""
       visualbounds="false" /><clipPath
       id="clip0"><rect
         x="1064"
         y="101"
         width="2274"
         height="2273"
         id="rect13706" /></clipPath><linearGradient
       x1="1072.04"
       y1="110.042"
       x2="3327.96"
       y2="2365.96"
       gradientUnits="userSpaceOnUse"
       spreadMethod="reflect"
       id="stroke1"><stop
         offset="0"
         stop-color="#FDCE1E"
         id="stop13709" /><stop
         offset="0.81"
         stop-color="#FFC406"
         id="stop13711" /><stop
         offset="1"
         stop-color="#FFC406"
         id="stop13713" /></linearGradient><linearGradient
       x1="1064.5"
       y1="100.5"
       x2="3337.5"
       y2="2374.5"
       gradientUnits="userSpaceOnUse"
       spreadMethod="reflect"
       id="fill2"
       gradientTransform="matrix(0.28634496,0,0,0.28634496,1246.0656,363.47188)"><stop
         offset="0"
         stop-color="#F7DC85"
         id="stop13716" /><stop
         offset="0.97"
         stop-color="#CFB668"
         id="stop13718" /><stop
         offset="1"
         stop-color="#CFB668"
         id="stop13720" /></linearGradient><path
       d="m 179.106,436.796 c -37.782,86.991 -34.315,172.868 0,257.91"
       id="a"
       fill="none"
       stroke="#000000"
       stroke-width="1.154" /></defs><sodipodi:namedview
     id="base"
     pagecolor="#ffffff"
     bordercolor="#666666"
     borderopacity="1.0"
     inkscape:pageopacity="0.0"
     inkscape:pageshadow="2"
     inkscape:zoom="3.6203867"
     inkscape:cx="72.091746"
     inkscape:cy="97.503396"
     inkscape:document-units="px"
     inkscape:current-layer="svg8"
     showgrid="false"
     fit-margin-top="0"
     fit-margin-left="0"
     fit-margin-right="0"
     fit-margin-bottom="0"
     inkscape:window-width="1920"
     inkscape:window-height="1012"
     inkscape:window-x="0"
     inkscape:window-y="0"
     inkscape:window-maximized="1"
     showguides="false"
     inkscape:object-nodes="true"
     units="px"
     inkscape:snap-page="true"
     inkscape:showpageshadow="2"
     inkscape:pagecheckerboard="0"
     inkscape:deskcolor="#d1d1d1" /><metadata
     id="metadata5"><rdf:RDF><cc:Work
         rdf:about=""><dc:format>image/svg+xml</dc:format><dc:type
           rdf:resource="http://purl.org/dc/dcmitype/StillImage" /></cc:Work></rdf:RDF></metadata><g
     inkscape:label="Layer 1"
     inkscape:groupmode="layer"
     id="layer1"
     transform="translate(98.048812,-95.14345)"
     style="display:inline"><g
       style="stroke-width:0.5"
       transform="matrix(2,0,0,2,-98.048812,95.143449)"
       id="g5175"><rect
         y="-1.110223e-16"
         x="0"
         height="26.458334"
         width="26.458334"
         id="rect5163"
         style="opacity:1;fill:#222222;fill-opacity:1;fill-rule:nonzero;stroke:none;stroke-width:0.25;stroke-linecap:butt;stroke-linejoin:round;stroke-miterlimit:4;stroke-dasharray:none;stroke-dashoffset:0;stroke-opacity:0.909449;paint-order:normal"
         rx="1.984375"
         ry="1.984375" /><rect
         style="opacity:1;fill:#550000;fill-opacity:1;fill-rule:nonzero;stroke:none;stroke-width:0.25;stroke-linecap:butt;stroke-linejoin:round;stroke-miterlimit:4;stroke-dasharray:none;stroke-dashoffset:0;stroke-opacity:0.909449;paint-order:normal"
         id="rect5165"
         width="23.8125"
         height="23.8125"
         x="1.322917"
         y="1.322917"
         rx="1.3229166"
         ry="1.3229166" /><path
         style="opacity:1;fill:#222222;fill-opacity:1;fill-rule:nonzero;stroke:none;stroke-width:0.25;stroke-linecap:butt;stroke-linejoin:round;stroke-miterlimit:4;stroke-dasharray:none;stroke-dashoffset:0;stroke-opacity:0.909449;paint-order:normal"
         d="m 0.72760458,18.520836 v 4.167188 c 0,1.539081 1.23904402,2.778124 2.77812502,2.778124 H 22.952604 c 1.539081,0 2.778125,-1.239043 2.778125,-2.778124 v -4.167188 z"
         id="rect5205-3-6"
         inkscape:connector-curvature="0" /><text
         xml:space="preserve"
         style="font-size:4.33382px;display:inline;fill:#222222;fill-opacity:1;stroke-width:0.180578"
         x="1.7661289"
         y="23.667345"
         id="text2040"><tspan
           sodipodi:role="line"
           id="tspan2038"
           style="font-style:normal;font-variant:normal;font-weight:bold;font-stretch:normal;font-family:'Gothic A1';-inkscape-font-specification:'Gothic A1 Bold';fill:#ffffff;fill-opacity:1;stroke-width:0.180578"
           x="1.7661289"
           y="23.667345">ANTI-SHIA</tspan></text></g></g><style
     type="text/css"
     id="style3491">
	.st0{fill-rule:evenodd;clip-rule:evenodd;fill:#007F00;}
</style><g
     id="g14144"
     transform="matrix(0.04262424,0,0,0.04262424,14.73667,3.5578803)"
     style="display:inline"><text
       style="line-height:0%"
       transform="matrix(-0.12008,-0.93946,1.05072,-0.10737,-25.000022,322.90002)"
       x="-796.56403"
       y="-561.65302"
       font-weight="400"
       font-size="16.921px"
       font-family="sans-serif"
       letter-spacing="0"
       word-spacing="0"
       stroke-width="1.058"
       id="text1"><textPath
         xlink:href="#a"
         id="textPath1" /></text><path
       d="m 389.30598,250.81802 c -1.18,0.073 -2.365,0.107 -3.56,0.107 -26.055,0 -86.575,-13.365 -109.896,-33.408 -24.434,18.513 -85.95,33.408 -111.584,33.408 -1.2,0 -2.39,-0.147 -3.568,-0.363 -0.058,5.841 0.245,11.893 0.606,17.4 1.358,20.575 4.966,41.224 10.447,61.095 17.247,62.537 52.55,115.683 103.168,156 50.662,-40.35 86.003,-93.541 103.291,-156.128 5.486,-19.866 9.105,-40.515 10.474,-61.092 0.362,-5.39 0.661,-11.302 0.622,-17.02 z"
       fill="none"
       id="path1"
       style="display:inline;fill:#550000;fill-opacity:1"
       inkscape:label="path1" /><path
       d="m 389.30598,250.81802 c -1.18,0.073 -2.365,0.107 -3.56,0.107 -26.055,0 -86.575,-13.365 -109.896,-33.408 -24.434,18.513 -85.95,33.408 -111.584,33.408 -1.2,0 -2.39,-0.147 -3.568,-0.363 -0.058,5.841 0.245,11.893 0.606,17.4 1.358,20.575 4.966,41.224 10.447,61.095 17.247,62.537 52.55,115.683 103.168,156 50.662,-40.35 86.003,-93.541 103.291,-156.128 5.486,-19.866 9.105,-40.515 10.474,-61.092 0.362,-5.39 0.661,-11.302 0.622,-17.02 z"
       fill="none"
       id="path2"
       style="display:inline;fill:#222222;fill-opacity:1" /><path
       d="m 274.90898,765.85002 c 144.849,0 214.894,-33.02 214.894,-33.02 l -1.87,-13.76 c 0,0 1.195,-1.375 8.653,-2.751 6.783,-2.752 9.163,-15.135 8.654,-22.014 -0.509,-4.127 4.747,-17.886 7.622,-20.638 0,0 -12.038,-4.127 -16.276,-9.63 -6.948,-6.88 -13.91,-15.135 -24.93,-8.256 -4.239,1.376 -1.872,-17.885 -1.872,-17.885 0,0 -65.972,31.644 -194.532,30.268 -128.559,-1.376 -195.040002,-30.27 -195.040002,-30.27 0,0 2.366,19.263 -1.871,17.887 -11.021,-6.88 -17.984,1.376 -24.931,8.255 -4.416,5.504 -16.276,9.631 -16.276,9.631 2.875,2.752 8.13,16.511 7.622,20.638 -0.51,6.879 1.87,19.262 8.654,22.014 7.457,1.376 8.654,2.751 8.654,2.751 l -2.037,13.76 c 0,0 70.046002,33.02 214.882002,33.02 z"
       fill="#ffffff"
       stroke="#1f1a17"
       stroke-width="1.53243"
       id="path3"
       style="fill:#222222;fill-opacity:1" /><path
       d="m 275.92698,757.59502 c 138.066,0 206.583,-28.893 206.583,-28.893 l -1.87,-13.76 c 0,0 2.2,-2.751 9.328,-4.127 6.274,-1.376 8.654,-11.007 8.146,-15.135 -0.51,-4.126 4.236,-17.885 8.309,-19.262 0,0 -9.837,-1.375 -12.727,-4.126 -5.42,-4.128 -11.53,-16.511 -27.64,-9.632 -2.036,1.376 -2.711,-13.758 -2.711,-13.758 0,0 -64.79,31.645 -187.24,30.269 -122.464,-1.376 -187.584002,-28.894 -187.584002,-28.894 0,0 2.368,12.383 -1.871,11.008 -15.092,-4.128 -18.821,2.751 -26.623,9.63 -2.544,1.377 -12.726,5.504 -12.726,5.504 2.89,2.752 3.398,6.88 4.582,11.007 1.527,5.504 -1.184,16.51 4.237,20.637 3.907,2.752 13.057,4.128 13.057,4.128 l -1.857,16.51 c 0,0 70.553002,28.893 208.606002,28.893 z"
       fill="#009e60"
       stroke="#1f1a17"
       stroke-width="1.53243"
       id="path4"
       style="display:inline;fill:#ffffff;fill-opacity:1" /><path
       d="m 102.76198,673.66702 a 227.598,227.598 0 0 0 -3.440002,4.128 c -1.472,-1.376 -2.945,-2.752 -4.417,-2.752 a 318.713,318.713 0 0 0 -2.462,4.128 c -1.94,-2.752 -3.866,-4.128 -5.807,-5.504 a 735.733,735.733 0 0 0 3.247,-4.127 c 1.514,1.376 3.055,2.752 4.596,2.752 a 331.252,331.252 0 0 1 2.71,-4.128 c 1.858,2.752 3.715002,4.128 5.573002,5.503 z m 7.14,44.028 c -1.348,0 -2.696,-1.376 -4.058,-1.376 h -2.05 c -1.198,-1.376 -2.215,-2.752 -3.04,-4.128 -1.143002,-2.752 -1.860002,-5.504 -2.175002,-9.631 -1.431,1.376 -2.504,2.752 -3.289,2.752 -1.14,1.375 -2.076,1.375 -2.847,1.375 -0.427,0 -0.894,-1.375 -1.514,-1.375 -1.28,0 -2.559,-1.376 -3.783,-1.376 -1.639,0 -2.63,-1.376 -2.986,-1.376 -0.371,0 -0.536,0 -0.536,-1.376 0,0 0.673,-1.376 2.132,-4.128 1.445,-2.751 2.476,-4.127 3.123,-5.503 0.509,0 1.431,0 2.78,-1.375 h 3.33 c 0.536,-1.376 1.086,-1.376 1.664,-1.376 -0.137,0 -0.137,0 -0.152,-1.376 0,-1.376 0.165,-1.376 0.538,-2.751 0.37,-1.376 1.003,-2.752 1.967,-4.128 0.467,2.752 1.004002,6.88 1.472002,9.631 0.467,4.127 1.003,6.878 1.513,9.63 0.468,4.128 1.087,5.504 1.844,6.88 0.51,1.375 1.17,1.375 2.05,1.375 1.361,0 2.71,1.376 4.058,1.376 v 8.256 z m -12.094002,-20.639 c -0.192,-1.376 -0.385,-2.751 -0.577,-2.751 h -1.582 c -1.13,0 -2.065,0 -2.752,1.375 h -1.238 c -0.385,0 -0.62,1.376 -0.62,1.376 h 1.087 c 0.73,1.376 1.473,1.376 2.16,1.376 h 1.431 c 0.509,0 1.197,0 2.091,-1.376 z m 29.650002,23.39 c -6.494,-1.376 -12.989,-1.376 -19.441,-2.751 v -8.256 c 5.448,0 10.897,1.376 16.345,2.752 -0.233,-1.376 -0.66,-2.752 -1.237,-4.128 -0.318,0 -1.046,-1.376 -2.161,-2.751 0.812,-2.752 1.624,-4.128 2.463,-6.88 1.554,2.752 2.615,4.128 3.178,6.88 0.564,1.375 0.853,4.127 0.853,8.255 z m -0.467,5.504 c -1.156,1.376 -2.325,4.128 -3.44,5.503 -1.472,-1.375 -2.945,-1.375 -4.404,-2.751 a 218.213,218.213 0 0 0 -2.475,4.127 c -1.94,-1.376 -3.867,-2.751 -5.807,-4.127 1.087,-1.376 2.175,-4.128 3.247,-5.504 1.514,1.376 3.055,2.752 4.61,2.752 a 165.922,165.922 0 0 1 2.586,-4.128 c 1.899,1.376 3.783,2.752 5.683,4.128 z m 16.302,-41.277 c -1.154,1.377 -2.311,2.752 -3.439,5.504 -1.471,-1.375 -2.93,-2.752 -4.403,-4.127 -0.852,1.376 -1.663,2.752 -2.475,4.128 -1.926,-1.376 -3.867,-2.752 -5.793,-4.128 1.088,-1.375 2.16,-2.751 3.247,-4.127 1.5,0 3.055,1.376 4.596,2.752 a 331.836,331.836 0 0 1 2.586,-4.128 c 1.899,1.376 3.798,2.752 5.682,4.128 z m 3.565,39.901 -21.574,-4.128 v -8.255 l 18.67,4.128 c 0,-2.752 -0.137,-2.752 -0.192,-4.128 -0.165,-1.376 -0.51,-2.752 -1.003,-2.752 -0.66,1.376 -1.541,1.376 -2.67,1.376 -1.115,1.376 -2.326,1.376 -3.55,1.376 -1.706,-1.376 -3.096,-1.376 -4.223,-2.752 -1.116,-1.376 -1.693,-2.752 -1.693,-4.127 0,-2.752 0.742,-5.504 2.243,-8.256 1.636,-2.751 3.274,-4.127 4.938,-4.127 2.202,0 4.211,2.751 6.15,6.88 1.927,4.127 2.903,6.878 2.903,11.006 z m -6.729,-20.638 c -0.577,-1.376 -1.086,-2.752 -1.513,-2.752 -0.426,0 -0.838,-1.376 -1.348,-1.376 -0.62,0 -1.197,0 -1.707,1.376 -0.495,0 -0.728,0 -0.728,1.376 0,0 0.193,1.376 0.578,1.376 z m 16.044,13.759 c 0,1.375 -0.22,2.751 -0.66,4.127 -0.44,1.376 -1.281,2.752 -2.52,5.504 -0.618,0 -1.238,0 -1.857,-1.376 0.51,-1.376 0.744,-4.128 0.744,-5.504 0,-1.376 -0.138,-2.751 -0.318,-5.503 -0.205,-2.752 -0.452,-4.128 -0.77,-6.88 a 59.886,59.886 0 0 0 -1.499,-8.255 c -0.261,-1.376 -0.385,-1.376 -0.385,-2.752 0,0 0.33,-1.376 0.963,-2.751 0.633,-1.376 1.54,-2.752 2.696,-4.127 0.62,2.752 1.253,6.878 1.858,9.63 0.702,4.128 1.156,8.255 1.431,11.007 0.22,2.752 0.317,4.128 0.317,6.88 z m 31.988,13.758 c 0,0 -0.702,2.752 -2.16,4.128 -1.445,1.376 -3.137,2.752 -5.105,4.128 -2.132,1.376 -3.975,1.376 -5.516,1.376 -1.817,0 -3.784,0 -5.875,-1.376 -1.816,-1.376 -4.678,-4.128 -8.545,-6.88 0.428,0 0.853,-1.376 1.308,-1.376 1.857,1.376 3.37,2.752 4.485,2.752 1.156,1.376 2.393,1.376 3.714,1.376 h 4.293 c 1.431,-1.376 3.399,-2.752 5.834,-4.128 3.439,-2.751 5.173,-4.127 5.173,-5.503 0,-1.376 -0.358,-2.752 -1.004,-4.128 -0.744,-1.376 -1.666,-2.752 -2.74,-2.752 l 1.735,-8.255 c 1.43,1.376 2.518,2.752 3.288,5.504 0.77,1.376 1.115,4.127 1.115,5.503 z m 22.963,1.376 h -4.595 c -1.666,-1.376 -3.097,-1.376 -4.334,-1.376 -1.24,-1.375 -2.243,-2.751 -3.014,-4.127 -1.348,1.376 -3.094,2.752 -5.255,2.752 h -7.926 v -8.256 c 1.087,0 2.16,0 3.288,1.376 h 3.591 c 0.702,0 1.665,-1.376 2.82,-1.376 -0.618,-1.376 -1.155,-1.376 -1.623,-2.752 -0.538,0 -1.115,-1.375 -1.734,-1.375 h -0.619 c -0.193,1.375 -0.426,1.375 -0.66,1.375 h -1.39 c 0,-4.127 0.646,-6.879 1.927,-8.255 1.306,-1.376 3.37,-1.376 6.15,-1.376 2.903,1.376 5.146,1.376 6.797,2.752 1.623,1.376 2.476,2.752 2.476,4.128 0,1.376 -0.235,2.751 -0.66,2.751 -0.414,1.376 -1.266,2.752 -2.463,4.128 0.302,0 0.702,0 1.197,1.376 h 6.026 z m 14.914,1.376 c -5.71,-1.376 -11.434,-1.376 -17.116,-1.376 v -8.255 c 4.445,0 8.888,1.376 13.374,1.376 -0.66,-4.128 -1.28,-6.88 -1.9,-9.631 -0.618,-4.128 -1.237,-6.88 -1.856,-11.007 -0.688,0 -1.349,0 -2.01,-1.376 0,0 0.207,-1.376 0.58,-2.752 0.48,-1.376 1.278,-2.752 2.433,-5.504 0.468,1.376 0.937,1.376 1.43,1.376 0,0 -0.136,0 -0.15,1.376 -0.137,0 0.469,1.376 1.321,1.376 0.77,0 2.01,1.376 3.66,2.752 -0.192,0 -0.44,1.376 -0.811,2.752 -0.359,1.375 -0.77,2.751 -1.225,2.751 h -1.128 c 0.537,2.752 1.128,5.504 1.664,8.256 0.537,4.127 1.156,6.88 1.734,9.63 z m 9.315,-8.255 c 0,1.376 -0.207,2.752 -0.66,4.128 -0.44,1.375 -1.266,4.127 -2.505,5.503 h -1.898 c 0.508,-2.752 0.77,-4.128 0.77,-5.503 0,-1.376 -0.138,-4.128 -0.303,-5.504 -0.22,-2.752 -0.467,-4.128 -0.77,-6.88 -0.316,-2.751 -0.867,-5.503 -1.554,-8.255 -0.235,-1.376 -0.386,-1.376 -0.386,-1.376 0,-1.376 0.343,-2.751 0.977,-4.127 0.632,-1.376 1.582,-2.752 2.696,-4.128 0.62,2.752 1.28,6.88 1.899,9.631 0.702,4.128 1.17,6.88 1.43,11.007 0.194,1.376 0.304,4.128 0.304,5.504 z m 41.083,-30.27 c -1.156,1.376 -2.285,2.752 -3.4,5.504 -1.471,-1.376 -2.944,-1.376 -4.402,-2.752 a 218.148,218.148 0 0 0 -2.476,4.128 c -1.926,0 -3.866,-1.376 -5.792,-2.752 1.032,-1.376 2.118,-2.752 3.205,-5.503 1.541,1.375 3.082,2.751 4.637,2.751 0.88,-1.376 1.774,-2.751 2.696,-4.127 1.817,1.376 3.674,1.376 5.532,2.751 z m 7.195,39.901 h -6.109 c -1.196,-1.376 -2.242,-1.376 -3.054,-2.752 -1.114,-2.751 -1.858,-5.503 -2.16,-8.255 -1.43,1.376 -2.531,1.376 -3.33,2.752 -1.127,1.376 -2.091,1.376 -2.82,1.376 h -1.513 c -1.266,0 -2.546,-1.376 -3.784,-1.376 h -2.972 c -0.385,0 -0.578,-1.376 -0.578,-1.376 0,0 0.73,-1.376 2.16,-4.128 1.432,-2.752 2.477,-4.127 3.138,-5.503 0.495,0 1.416,-1.376 2.737,-1.376 0.812,-1.376 1.94,-1.376 3.357,-2.752 h 1.664 c 0,-1.376 -0.136,-1.376 -0.15,-1.376 v -1.376 c 0,0 0.192,-1.376 0.536,-2.752 0.345,0 1.005,-1.375 1.94,-2.751 0.468,2.751 1.004,5.503 1.472,8.255 0.455,2.752 0.99,5.504 1.5,9.631 0.496,2.752 1.128,4.128 1.899,5.504 h 6.109 v 8.255 z m -12.108,-16.51 c -0.22,-1.376 -0.412,-1.376 -0.619,-2.752 h -1.54 c -1.115,1.376 -2.064,1.376 -2.738,1.376 -0.482,1.375 -0.895,1.375 -1.239,1.375 -0.426,0 -0.618,1.376 -0.618,1.376 h 4.678 c 0.495,0 1.196,0 2.076,-1.376 z m 29.65,16.51 h -19.44 v -8.255 h 16.344 c -0.232,-1.376 -0.66,-1.376 -1.237,-2.752 -0.317,0 -1.046,-1.376 -2.16,-2.752 0.81,-2.752 1.623,-4.127 2.476,-6.88 1.541,1.377 2.587,2.753 3.164,5.504 0.579,1.376 0.854,4.128 0.854,6.88 z m -0.51,5.504 c -1.155,1.375 -2.27,4.127 -3.397,5.503 -1.472,-1.376 -2.93,-1.376 -4.402,-2.752 -0.854,1.376 -1.707,4.127 -2.519,5.504 -1.926,-1.377 -3.866,-2.752 -5.75,-2.752 1.072,-2.752 2.16,-4.128 3.247,-6.88 1.5,1.377 3.054,1.377 4.595,2.752 0.853,-1.375 1.706,-2.751 2.586,-4.127 1.858,0 3.756,1.376 5.64,2.752 z m 28.069,-5.504 c 0,0 -0.744,2.752 -2.202,4.128 -1.444,2.751 -3.15,4.127 -5.104,5.503 -2.147,1.375 -3.99,2.752 -5.53,2.752 -1.817,0 -3.785,0 -5.876,-1.377 -1.816,-1.375 -4.635,-2.752 -8.544,-4.127 0.427,-1.375 0.854,-1.375 1.32,-2.751 1.859,1.376 3.358,2.751 4.527,2.751 h 3.66 c 1.432,0 2.862,0 4.293,-1.375 1.431,0 3.398,-2.752 5.834,-4.128 3.44,-2.752 5.186,-5.504 5.186,-6.88 0,-1.375 -0.357,-1.375 -1.003,-2.751 a 28.692,28.692 0 0 0 -2.752,-4.128 c 0.577,-2.752 1.17,-5.503 1.746,-6.88 1.431,0 2.505,2.752 3.276,4.128 0.782,1.376 1.169,2.752 1.169,5.504 z m 28.672,-5.503 c 0,2.751 -1.486,6.879 -4.525,9.63 -3,4.128 -5.985,5.504 -8.93,6.879 -1.733,0 -3.62,-1.375 -5.641,-1.375 -2.036,-1.376 -5.173,-2.752 -9.384,-5.503 0.428,-1.376 0.854,-1.376 1.266,-1.376 2.243,0 4.059,1.376 5.49,1.376 1.197,0 2.558,1.376 4.017,0 2.023,0 4.031,0 6,-1.376 2.31,-1.376 4.718,-4.128 7.18,-6.88 h -2.16 c -2.049,1.376 -3.686,0 -4.91,-1.375 -1.211,0 -1.817,-2.752 -1.817,-4.128 0,-2.752 0.743,-5.504 2.173,-9.631 1.541,-2.752 3.317,-4.128 5.284,-4.128 1.664,0 3.082,0 4.224,2.752 1.142,1.376 1.733,4.127 1.733,6.88 z m -3.714,-5.504 c -0.579,-2.752 -1.734,-4.128 -3.55,-4.128 h -1.513 c -0.386,1.376 -0.578,1.376 -0.578,1.376 0,1.376 0.386,1.376 1.196,2.752 z m 32.43,4.128 h -6.345 c -0.452,1.376 -0.962,1.376 -1.43,1.376 h -2.202 c 0.744,0 1.5,0 2.201,1.375 0.77,0 1.089,0 1.089,1.376 0,0 -0.138,1.376 -0.345,2.752 -0.152,0 -0.468,1.376 -0.936,2.752 -0.88,2.752 -1.637,4.127 -2.393,5.503 -0.758,0 -1.693,1.376 -2.862,1.376 -2.89,0 -5.366,-1.376 -7.458,-4.127 -2.078,-2.752 -3.122,-5.504 -3.122,-9.632 -2.367,0 -4.72,0 -7.073,1.376 v -8.255 c 0.922,0 1.858,0 2.82,-1.376 h 3.4 c 1.32,0 2.2,-1.376 2.738,-1.376 2.283,-5.503 4.32,-9.631 6.066,-12.383 1.54,-2.752 2.986,-4.127 4.292,-4.127 1.089,0 1.982,0 2.752,1.375 0.648,2.752 1.006,4.128 1.006,5.504 0,2.752 -0.496,4.128 -1.431,5.504 -1.033,2.751 -2.6,4.127 -4.678,5.503 1.499,-1.376 2.89,-1.376 4.127,-1.376 h 3.44 c 2.09,-1.376 4.224,-1.376 6.343,-1.376 z m -12.672,-12.383 c 0,0 -0.194,-1.376 -0.579,-1.376 -0.385,-1.376 -0.812,-1.376 -1.21,-1.376 -0.538,0 -1.156,1.376 -1.885,2.752 -0.744,0 -1.583,2.751 -2.587,5.503 2.393,-1.376 4.004,-2.752 4.898,-2.752 0.922,-1.375 1.363,-1.375 1.363,-2.751 z m 1.306,20.638 c 0,-1.376 -0.646,-2.752 -1.967,-4.128 -1.61,0 -3.907,-1.376 -6.922,-1.376 0.345,1.376 1.28,2.752 2.862,4.128 1.583,1.376 3.29,1.376 5.106,1.376 z m 37.794,-12.383 h -7.69 c -2.587,0 -4.871,-1.376 -6.838,-1.376 -1.198,1.376 -2.656,2.752 -4.444,4.128 h -3.48 c -2.037,1.376 -4.087,1.376 -6.138,1.376 v -8.256 c 2.051,0 4.1,0 6.137,-1.376 h 4.443 c 1.431,-1.375 2.353,-2.751 2.945,-4.127 1.114,-2.752 2.684,-5.504 4.527,-6.88 1.624,-1.376 3.013,-2.751 4.169,-2.751 1.046,0 2.366,1.375 3.907,4.127 1.623,2.752 2.462,5.504 2.462,8.256 z m -5.833,-8.255 c 0,0 -0.413,-1.376 -1.307,-2.752 -0.99,0 -1.857,-1.376 -2.586,-1.376 -0.812,1.376 -1.473,1.376 -2.05,4.128 z m 39.115,1.376 c -11.831,2.751 -23.65,4.127 -35.483,6.879 v -8.255 c 7.348,-1.376 14.722,-2.752 22.11,-4.128 -2.518,-2.752 -4.829,-2.752 -6.962,-4.128 h -6.99 c -0.467,0 -1.112,0 -1.966,1.376 1.156,-2.752 2.435,-5.503 3.824,-6.88 1.39,-1.375 2.972,-2.75 4.747,-2.75 h 3.949 c 1.266,0 2.697,1.375 4.251,2.75 1.266,0 3.04,1.377 5.297,4.128 1.57,1.376 2.74,1.376 3.55,1.376 0.812,1.376 2.05,1.376 3.673,1.376 z m -11.474,9.63 c -1.321,1.377 -2.628,4.128 -3.908,6.88 -2.393,0 -4.788,-1.376 -7.154,-2.752 1.28,-1.375 2.56,-4.127 3.825,-6.879 2.408,0 4.802,1.376 7.237,2.752 z m 26.389,-13.758 c -5.724,1.376 -11.393,2.752 -17.074,4.128 v -8.256 c 4.444,-1.376 8.888,-1.376 13.373,-2.752 -0.66,-4.127 -1.28,-6.879 -1.898,-9.63 -0.62,-4.128 -1.24,-6.879 -1.86,-11.008 h -2.007 c 0,-1.374 0.207,-2.752 0.578,-4.126 0.482,-1.376 1.28,-4.128 2.393,-6.88 0.469,1.376 0.936,1.376 1.431,1.376 h -0.137 c 0,1.376 0.427,1.376 1.308,2.752 h 3.672 a 33.84,33.84 0 0 1 -0.852,4.128 93.169,93.169 0 0 1 -1.197,4.127 h -1.114 c 0.535,2.752 1.114,5.504 1.664,9.63 a 581.124,581.124 0 0 0 1.693,8.256 v 8.255 z m 9.356,-11.007 c 0,1.376 -0.247,4.127 -0.702,5.503 -0.44,1.376 -1.223,4.128 -2.504,6.88 h -1.858 c 0.496,-2.752 0.77,-5.504 0.77,-6.88 0,-1.376 -0.136,-4.127 -0.343,-5.503 -0.22,-2.752 -0.468,-5.504 -0.77,-6.88 a 64.275,64.275 0 0 0 -1.514,-8.255 55.897,55.897 0 0 1 -0.386,-2.752 c 0,0 0.33,-1.374 0.964,-4.126 0.647,-1.376 1.555,-2.752 2.71,-5.504 0.62,2.752 1.24,6.88 1.858,11.007 0.702,2.752 1.183,6.879 1.458,9.63 0.22,2.752 0.317,4.128 0.317,6.88 z"
       fill="#1f1a17"
       id="path5"
       style="display:inline" /><g
       id="g71"
       transform="translate(-10.000022,-9.9999827)"
       style="display:inline"><path
         d="m 300.652,478.971 36.155,151.086 H 233.022 l 36.159,-151.086 z"
         fill="#e3b209"
         stroke="#715803"
         stroke-width="1.63557"
         id="path6"
         style="display:inline;fill:#550000;fill-opacity:1" /><g
         fill="#201b17"
         stroke="#201b17"
         stroke-width="0.013"
         id="g7"
         style="display:inline;fill:#222222;fill-opacity:1"><path
           d="m 307.792,631.077 -15.25,-137.096 5.76,-10.507 8.642,-1.865 27.794,148.45 -11.525,18.303 z m -45.924,0 15.25,-137.096 -5.759,-10.507 -8.475,-1.865 -27.792,148.45 8.474,18.303 z m 23.047,23.049 -16.27,-22.031 15.255,-157.937 17.283,156.92 z"
           stroke-width="0.0212624"
           id="path7"
           style="fill:#222222;fill-opacity:1" /></g><g
         id="g70"
         style="display:inline"><path
           d="m 372.19,451.785 c 5.761,9.66 37.112,47.453 37.112,47.453 7.458,20.683 35.756,38.81 35.756,38.81 2.88,14.406 33.554,35.588 33.554,35.588 7.627,20.002 40.163,38.81 40.163,38.81 18.302,26.273 40.333,41.685 40.333,41.685 L 538.094,189.122 c 0,0 -2.034,-26.775 -28.809,-38.298 -26.775,-11.524 -44.058,0 -59.482,5.76 -15.25,5.76 -36.766,23.047 -55.583,26.776 -19.148,3.898 -32.538,3.898 -109.297,-19.149 -76.597,23.047 -89.985,23.047 -109.133,19.15 -18.812,-3.73 -40.333,-21.016 -55.755,-26.777 -15.252,-5.763 -32.538,-17.288 -59.314,-5.763 -26.944,11.522 -28.807,38.298 -28.807,38.298 L 10.892,654.126 c 0,0 22.03,-15.422 40.163,-41.69 0,0 32.706,-18.808 40.331,-38.806 0,0 30.674,-21.183 33.556,-35.589 0,0 28.3,-18.133 35.586,-38.808 0,0 31.521,-37.789 37.283,-47.46 z"
           fill="#e3b209"
           id="path8" /><path
           d="m 82.12,152.445 c -14.729,-0.178 -32.066,9.442 -37.65,20.902 6.962,-4.107 15.67,-4.822 22.923,-6.664 8.798,-7.137 18.868,3.292 24.998,9.202 5.08,4.253 9.289,10.869 14.303,14.185 7.88,1.648 7.781,12.792 12.21,18.323 4.364,11.505 16.714,18.428 21.776,28.61 9.678,5.82 20.932,9.462 32.392,10.596 1.042,4.61 0.563,10.738 1.655,14.596 7.266,0.508 13.411,5.873 21.07,4.389 9.39,0.35 18.343,-1.112 27.521,-2.891 -6.091,60.513 -12.184,121.025 -18.276,181.538 l 159.916,0.013 -18.276,-181.516 c 16.076,2.95 34.182,5.819 49.115,-2.77 -2.456,-7.49 1.813,-13.642 9.14,-14.873 7.999,-1.151 15.586,-3.4 21.965,-8.465 4.933,-0.774 4.681,-6.969 9.169,-9.618 9.344,-8.678 15.83,-19.584 20.478,-31.313 5.267,-5.819 11.964,-10.25 17.308,-16.19 8.718,-7.772 19.543,-13.35 31.236,-14.716 0.448,3.682 7.58,1.471 10.48,3.686 3.637,1.134 7.168,2.591 10.593,4.255 -12.846,-21.604 -43.277,-26.601 -64.553,-15.135 -28.32,10.365 -52.574,34.773 -84.564,33.037 -31.586,-0.287 -61.304,-13.197 -91.503,-19.998 -14.519,2.163 -28.127,8.625 -42.62,11.3 -28.9,8.462 -62.351,14.947 -89.833,-1.387 -22.788,-11.277 -44.836,-28.172 -70.974,-29.096 z"
           fill="#f6c314"
           id="path9" /><path
           d="m 482.284,162.818 c -33.099,4.989 -57.925,33.616 -91.697,37.822 -36.933,5.593 -71.57,-12.813 -107.235,-18.518 -38.468,9.456 -79.038,27.431 -118.985,14.992 -24.78,-8.042 -44.701,-26.594 -70.118,-33.009 8.637,8.088 16.944,17.127 25.744,24.41 6.184,10.763 9.584,23.711 20.064,31.33 5.246,8.295 12.922,14.832 22.927,15.982 6.494,3.283 18.61,-1.226 19.659,8.252 1.176,4.414 -1.503,12.728 5.785,11.851 13.05,3.894 26.473,-2.9 39.25,-1.495 10.288,5.367 3.209,18.354 3.714,27.047 l -15.502,153.936 138.218,0.013 c -6.157,-61.16 -12.319,-122.32 -18.473,-183.48 16.432,1.442 34.247,9.14 49.725,2.082 1.67,-13.382 16.2,-18.832 27.903,-19.873 10.875,-3.983 17.11,-14.525 24.387,-22.872 7.409,-13.298 14.588,-27.31 27.538,-36.145 5.234,-4.62 11.237,-9.05 17.095,-12.325 z"
           fill="#f8c300"
           id="path10" /><path
           d="m 273.516,201.8 c -38.899,11.477 -82.246,24.362 -121.776,8.14 6.855,8.678 17.67,11.567 28.184,11.937 9.037,2.157 17.515,9.257 18.97,18.774 14.778,-2.086 34.848,-7.129 45.377,7.076 11.265,17.245 0.672,37.927 1.263,56.554 l -11.562,114.781 102.053,0.013 c -6.157,-61.139 -12.311,-122.278 -18.47,-183.417 18.665,-3.72 36.558,5.397 55.114,4.613 7.562,-16 26.845,-18.89 40.95,-25.817 5.7,-4.747 3.094,-4.427 -2.418,-2.08 -29.368,10.262 -61.215,5.606 -90.013,-4.168 -15.239,-3.76 -31.98,-11.511 -47.672,-6.406 z"
           fill="#f8c300"
           id="path11" /><g
           fill="#201b17"
           stroke="#201b17"
           stroke-width="0.013"
           id="g14"
           style="fill:#222222;fill-opacity:1"><path
             d="m 518.775,612.437 c 16.449,25.421 40.331,41.689 40.331,41.689 L 538.093,189.118 c 0,0 -16.778,-14.066 -32.707,-14.912 v 0.17 z m -53.04,-414.17 c 11.012,-12.88 21.521,-21.691 33.045,-24.403 l 12.472,433.733 c -10.271,-7.663 -21.116,-11.09 -32.64,-33.969 z m -20.677,339.776 -8.642,-300.969 1.526,-2.372 c 8.304,-6.947 14.746,-13.895 21.522,-28.64 l 0.85,-2.033 c 3.638,121.372 7.474,242.313 11.106,363.685 -9.267,-8.633 -22.101,-16.03 -26.362,-29.671 z m -35.756,-38.809 -7.459,-244.875 0.51,-1.018 c 9.83,-2.033 17.455,-2.71 25.93,-8.812 l 1.357,-0.677 8.04,288.911 c -7.885,-6.644 -19.405,-13.532 -28.378,-33.529 z m -7.797,-10.507 -6.271,-218.947 -0.512,-1.017 c -15.245,7.797 -40.667,2.882 -40.667,2.882 l 18.136,180.14 c 5.76,11.522 29.314,36.942 29.314,36.942 z"
             stroke-width="0.0212624"
             id="path12"
             style="fill:#222222;fill-opacity:1" /><g
             id="g13"
             style="fill:#222222;fill-opacity:1"><path
               d="M 51.055,612.437 C 34.788,637.858 10.892,654.126 10.892,654.126 L 31.906,189.118 c 0,0 16.777,-14.066 32.538,-14.912 v 0.17 z m 53.212,-414.17 C 93.253,185.387 83.13,173.864 71.222,173.864 66.997,318.468 62.771,462.794 58.544,607.394 71.537,597.955 85.837,585.07 91.386,573.626 Z m 20.675,339.776 8.642,-300.969 -1.694,-2.372 c -8.136,-6.947 -14.745,-13.895 -21.353,-28.64 l -1.017,-2.033 -11.627,364.452 c 9.926,-8.325 21.852,-15.9 27.049,-30.438 z m 35.586,-38.809 7.459,-244.875 -0.34,-1.018 c -9.829,-2.033 -17.455,-2.71 -26.098,-8.812 l -1.354,-0.677 -8.341,289.116 c 0,0 19.64,-12.205 28.674,-33.734 z m 7.966,-10.507 6.27,-218.947 0.51,-1.017 c 15.25,7.797 40.67,2.882 40.67,2.882 l -18.133,180.14 c -5.762,11.522 -29.317,36.942 -29.317,36.942 z"
               stroke-width="0.0212624"
               id="path13"
               style="fill:#222222;fill-opacity:1" /></g></g><path
           d="m 372.19,451.785 c 5.761,9.66 37.112,47.453 37.112,47.453 7.458,20.683 35.756,38.81 35.756,38.81 2.88,14.406 33.554,35.588 33.554,35.588 7.627,20.002 40.163,38.81 40.163,38.81 18.302,26.273 40.333,41.685 40.333,41.685 L 538.094,189.122 c 0,0 -2.034,-26.775 -28.809,-38.298 -26.775,-11.524 -44.058,0 -59.482,5.76 -15.25,5.76 -36.766,23.047 -55.583,26.776 -19.148,3.898 -32.538,3.898 -109.297,-19.149 -76.597,23.047 -89.985,23.047 -109.133,19.15 -18.812,-3.73 -40.333,-21.016 -55.755,-26.777 -15.252,-5.763 -32.538,-17.288 -59.314,-5.763 -26.944,11.522 -28.807,38.298 -28.807,38.298 L 10.892,654.126 c 0,0 22.03,-15.422 40.163,-41.69 0,0 32.706,-18.808 40.331,-38.806 0,0 30.674,-21.183 33.556,-35.589 0,0 28.3,-18.133 35.586,-38.808 0,0 31.521,-37.789 37.283,-47.46 z"
           fill="none"
           stroke="#705804"
           stroke-opacity="0.99"
           stroke-width="1.63557"
           id="path14"
           style="fill:#222222;fill-opacity:1" /><g
           id="g25"
           style="display:inline;fill:#222222;fill-opacity:1"><path
             d="m 338.46,216.377 c -1.978,-4.11 -4.796,-11.458 -5.589,-15.739 7.625,7.797 28.803,9.959 36.426,9.66 -17.276,-9.943 -34.574,-65.244 -32.541,-111.17 1.871,-46.093 -6.61,-64.227 -13.392,-71.004 -8.642,-8.643 -36.434,-16.268 -54.736,-17.285 -10.337,-0.512 -8.644,7.797 -8.644,7.797 -19.148,-4.915 -38.298,-6.78 -46.94,-1.018 -8.136,5.422 -9.829,32.538 -3.898,27.792 14.406,-11.524 26.946,-1.017 35.588,11.524 7.625,11.014 7.118,42.196 -3.898,78.632 -11.524,38.298 -43.044,76.597 -43.044,76.597 17.116,0 41.18,-15.252 41.18,-15.252 l -5.76,23.894 c 18.133,-8.642 32.537,-22.031 32.537,-22.031 l 17.285,18.132 c 5.759,-7.625 17.285,-18.132 17.285,-18.132 0,0 15.69,17.578 38.141,17.603 z"
             fill="#e3b209"
             id="path15"
             style="fill:#222222;fill-opacity:1" /><path
             d="m 266.993,14.109 c -7.595,-1.039 0.16,11.611 -6.256,8.08 -15.223,-2.96 -32.305,-9.054 -46.728,-1.1 -4.226,5.766 -5.34,13.363 -5.009,20.368 10.91,-8.655 26.463,-2.677 33.913,7.72 14.307,15.516 10.336,38.736 7.999,57.776 -5.314,37.284 -23.284,71.365 -45.777,101.089 14.788,-4.238 32.557,-9.426 38.011,-25.585 11.073,-25.574 16.051,-70.353 23.652,-84.212 6.801,28.606 -12.579,89.509 -22,97.91 -4.851,4.78 -5.046,12.596 -6.565,18.356 11.015,-7.147 25.404,-13.312 27.923,-27.661 6.237,-16.452 9.762,-85.262 15.87,-88.204 9.059,11.977 -3.324,90.19 -11.705,100.183 4.627,1.808 9.527,15.636 14.015,11.388 3.254,-4.593 9.55,-8.113 11.362,-12.886 -4.608,-31.016 -5.75,-84.235 -1.033,-99.026 10.224,15.721 3.842,58.094 9.77,99.863 8.113,7.1 18.956,12.887 29.22,13.97 -13.647,-12.869 -30.524,-84.182 -22.088,-113.703 10.893,30.62 9.347,73.306 25.71,101.47 6.068,3.238 16.734,5.925 21.378,5.351 -17.67,-26.277 -22.854,-58.968 -25.138,-89.957 -0.975,-27.457 4.223,-57.212 -10.225,-82.18 -11.613,-12.365 -30.158,-14.982 -45.936,-18.1 -3.435,-0.448 -6.893,-0.94 -10.363,-0.91 z"
             fill="#f6c314"
             id="path16"
             style="fill:#222222;fill-opacity:1" /><path
             d="m 268.394,19.131 c 1.077,4.7 -3.795,10.379 -8.578,7.822 -11.815,-2.314 -23.957,-7.038 -36.1,-4.226 -3.824,0.96 -7.813,2.772 -8.442,7.06 -0.17,0.955 -2.18,4.966 -0.003,3.811 12.15,-3.344 24.96,3.623 32.285,13.224 7.76,9.577 11.01,22.107 10.313,34.299 -0.093,42.279 -16.404,83.19 -40.434,117.477 11.826,-3.95 21.984,-13.302 24.392,-25.817 10.732,-28.779 10.488,-61.334 26.71,-88.162 2.7,8.96 4.221,18.28 4.286,27.646 1.407,-5.721 2.234,-12.01 5.508,-16.973 2.114,-2.952 6.617,-2.084 8,1.097 1.32,2.177 2.062,4.655 2.547,7.14 1.18,-4.143 0.03,-9.59 3.367,-12.818 3.505,-1.591 5.566,3.227 6.913,5.63 3.112,6.634 4.48,13.95 5.484,21.167 -0.69,-11.962 2.908,-23.549 6.132,-34.91 16.48,35.8 11.758,77.625 29.55,112.841 2.88,1.351 5.97,2.372 9.008,3.112 -18.913,-34.875 -21.66,-75.642 -20.794,-114.543 -0.07,-14.649 -0.213,-30.18 -6.973,-43.577 C 318.78,34.118 312.82,30.289 306.914,27.687 294.868,22.18 281.221,20.19 268.394,19.131 Z m 37.436,120.396 c -0.159,12.904 0.072,25.73 1.328,38.564 0.438,6.115 -0.701,13.554 3.695,18.456 3.825,2.717 7.736,5.398 12.12,7.006 -9.242,-20.548 -14.858,-42.657 -17.152,-65.05 l 0.006,0.693 z m -37.7,9.21 c -3.384,12.74 -7.009,25.52 -12.166,37.663 -2.9,6.29 -7.527,11.587 -10.835,17.596 7.359,-4.153 14.075,-10.199 16.616,-18.515 4.045,-12.23 4.002,-25.308 6.652,-37.847 l -0.163,0.673 z m 18.854,4.03 c -2.24,13.83 -4.927,27.801 -9.553,40.99 -2.5,3.169 1.178,5.859 2.767,8.235 0.589,1.132 2.485,4.062 3.336,1.337 3.78,-3.468 9.485,-8.182 6.461,-14.069 -1.164,-12.585 -2.28,-25.18 -2.823,-37.809 l -0.098,0.685 z"
             fill="#f8c300"
             id="path17"
             style="fill:#222222;fill-opacity:1" /><path
             d="m 275.5,30.155 c -5.19,8.704 -18.295,7.849 -25.265,5 10.288,9.395 15.447,23.838 17.854,36.557 6.729,-0.44 10.326,7.593 10.797,12.391 6.784,1.72 11.821,-5.84 18.76,-2.7 6.301,3.344 4.293,-10.313 7.24,-13.976 1.87,-12.789 4.888,-13.443 9.123,-1.274 2.427,4.724 5.785,13.931 4.465,3.837 -0.421,-14.236 -4.927,-31.752 -20.648,-35.666 -7.24,-2.356 -15.062,-3.699 -22.326,-4.17 z"
             fill="#f8c300"
             id="path18"
             style="fill:#222222;fill-opacity:1" /><path
             d="m 283.648,49.455 c -4.04,1.374 -10.722,-4.32 -7.992,1.854 2.73,6.173 5.417,15.463 11.778,17.643 6.361,2.18 4.454,-8.709 6.453,-12.698 2,-3.99 6.418,-7.149 0.917,-9.038 -5.502,-1.888 -7.116,0.864 -11.156,2.239 z"
             fill="#f8c300"
             id="path19"
             style="fill:#222222;fill-opacity:1" /><path
             d="M 249.327,71.339 C 248.479,65.068 246.955,60.155 244.752,56.934 236.11,44.393 223.57,33.886 209.164,45.41 c 0,0 4.915,-15.252 15.421,-15.76 8.134,-0.512 26.608,6.099 42.875,33.894 0,0 -12.031,-2.712 -14.913,-0.17 -5.422,4.744 -3.22,7.965 -3.22,7.965 z"
             fill="#201b17"
             stroke="#201b17"
             stroke-width="0.0212624"
             id="path20"
             style="fill:#222222;fill-opacity:1" /><path
             d="m 207.64,26.6 c 1.185,-3.898 3.05,-7.457 5.421,-8.982 8.643,-5.76 27.792,-3.899 46.941,1.018 0,0 -1.694,-8.304 8.642,-7.797 18.302,1.017 46.097,8.642 54.738,17.285 2.033,2.203 4.406,5.422 6.44,10.336 h -0.328 c -4.246,-5.93 -16.269,-5.592 -19.16,-5.253 -4.575,0.509 -7.457,0.339 -13.546,1.865 -2.89,0.678 -7.289,1.526 -9.66,3.388 -1.865,1.526 -3.389,7.118 -6.27,7.118 -4.576,0 -4.237,-1.187 -5.423,-2.541 -1.526,-1.866 -2.371,-4.577 -3.897,-4.406 -4.745,0.848 -12.37,-2.88 -22.031,-10.507 -9.662,-7.627 -13.39,-9.49 -25.93,-8.643 -12.369,1.016 -16.266,7.964 -16.266,7.964 z"
             fill="#201b17"
             stroke="#201b17"
             stroke-width="0.0212624"
             id="path21"
             style="fill:#222222;fill-opacity:1" /><path
             d="m 278.477,37.785 c 2.88,0 5.082,-2.203 5.082,-5.083 0,-2.88 -2.203,-5.084 -5.082,-5.084 -2.711,0 -5.085,2.203 -5.085,5.084 0,2.88 2.374,5.083 5.085,5.083 z"
             fill="#f6c314"
             stroke="#201b17"
             stroke-width="0.0212624"
             id="path22"
             style="fill:#222222;fill-opacity:1" /><g
             id="g24"
             style="display:inline;fill:#222222;fill-opacity:1"><g
               fill="#705804"
               color="#000000"
               font-weight="400"
               font-family="sans-serif"
               white-space="normal"
               id="g23"
               style="fill:#222222;fill-opacity:1"><path
                 style="line-height:normal;font-variant-ligatures:normal;font-variant-position:normal;font-variant-caps:normal;font-variant-numeric:normal;font-variant-alternates:normal;font-feature-settings:normal;text-indent:0;text-align:start;text-decoration-line:none;text-decoration-style:solid;text-decoration-color:#000000;text-transform:none;text-orientation:mixed;shape-padding:0;isolation:auto;mix-blend-mode:normal;fill:#222222;fill-opacity:1"
                 d="m 258.888,143.58 c -4.671,20.231 -11.71,43.004 -20.505,52.786 l 1.214,1.093 c 9.337,-10.385 16.194,-33.197 20.886,-53.51 4.69,-20.315 6.297,-38.208 6.297,-38.208 0,0 -3.22,17.61 -7.892,37.84 z m 18.902,-0.993 c -2.495,20.813 -6.624,44.556 -12.74,55.795 l 1.435,0.783 c 6.424,-11.807 10.428,-35.508 12.931,-56.383 2.503,-20.875 2.618,-38.905 2.618,-38.905 0,0 -1.748,17.898 -4.244,38.71 z m 17.58,5.182 c 0.296,10.672 0.74,21.762 1.408,31.037 0.669,9.275 1.519,16.659 2.789,20.244 l 1.54,-0.547 c -1.102,-3.11 -2.031,-10.578 -2.697,-19.812 -0.665,-9.234 -1.109,-20.311 -1.405,-30.97 a 3339.972,3339.972 0 0 0 -1.412,-40.966 c 0,0 -0.817,19.668 -0.224,41.014 z m 20.511,-0.959 c 3.015,19.552 8,42.079 16.314,54.29 l 1.351,-0.92 c -7.953,-11.682 -13.047,-34.152 -16.049,-53.619 -3.001,-19.467 -4.793,-35.906 -4.793,-35.906 0,0 0.162,16.603 3.177,36.155 z"
                 overflow="visible"
                 id="path23" /></g><path
               d="m 338.46,216.377 c -1.978,-4.11 -4.796,-11.458 -5.589,-15.739 7.625,7.797 28.803,9.959 36.426,9.66 -17.276,-9.943 -34.574,-65.244 -32.541,-111.17 1.871,-46.093 -6.61,-64.227 -13.392,-71.004 -8.642,-8.643 -36.434,-16.268 -54.736,-17.285 -10.337,-0.512 -8.644,7.797 -8.644,7.797 -19.148,-4.915 -38.298,-6.78 -46.94,-1.018 -8.136,5.422 -9.829,32.538 -3.898,27.792 14.406,-11.524 26.946,-1.017 35.588,11.524 7.625,11.014 7.118,42.196 -3.898,78.632 -11.524,38.298 -43.044,76.597 -43.044,76.597 17.116,0 41.18,-15.252 41.18,-15.252 l -5.76,23.894 c 18.133,-8.642 32.537,-22.031 32.537,-22.031 l 17.285,18.132 c 5.759,-7.625 17.285,-18.132 17.285,-18.132 0,0 15.69,17.578 38.141,17.603 z"
               fill="none"
               stroke="#705804"
               stroke-width="1.63557"
               id="path24"
               style="display:inline;fill:#000000;fill-opacity:0" /></g></g><g
           id="g69"
           style="display:inline;fill:#222222;fill-opacity:1"><path
             d="m 201.543,375.186 -72.871,260.636 c 0,0 57.619,21.173 101.68,17.277 l 36.434,-187.927 z"
             fill="#e3b209"
             id="path25"
             style="fill:#222222;fill-opacity:1" /><path
             d="m 136.648,631.587 c 31.48,0.562 26.576,8.622 31.8,8.523 7.493,-0.141 23.183,5.861 26.163,4.61 9.688,-4.066 22.744,2.388 30.288,2.146 L 259.82,466.717 204.195,389.989 Z"
             fill="#f6c314"
             id="path26"
             style="fill:#222222;fill-opacity:1" /><path
             d="m 212.571,412.798 c 1.193,9.877 -1.039,20.429 0.588,29.785 1.9,-4.846 10.513,-9.92 11.896,-1.952 1.75,7.5 -0.79,16.795 -8.123,20.355 2.266,9.966 0.299,22.772 4.057,30.958 11.482,-10.795 15.23,-26.884 13.4,-42.15 2.053,0.188 6.976,9.938 9.648,14.598 3.115,5.202 4.425,11.634 2.942,17.432 2.477,11.445 3.067,-0.156 4.492,-6.415 4.368,-10.93 -8.744,-17.991 -13.013,-27.01 -8.598,-11.788 -17.446,-24.208 -25.887,-35.601 z m -8.53,48.045 c -2.322,11.27 -8.113,21.899 -16.01,30.203 5.565,13.611 1.643,29.064 5.233,43.215 7.484,-7.74 10.951,-18.172 15.921,-27.504 -8.574,-13.373 -8.138,-30.936 -3.095,-45.288 -0.656,-0.043 -1.98,-1.414 -2.048,-0.626 z m 30.642,40.071 c -3.231,4.49 -9.21,8.192 -11.302,12.557 5.425,12.007 5.249,25.526 9.156,37.97 5.477,-9.79 11.732,-21.83 5.398,-32.878 -1.873,-5.42 -2.223,-13.783 -3.252,-17.649 z m -58.126,34.743 c -7.576,6.274 -11.89,14.708 -13.245,24.415 -2.09,8.7 -1.987,18.216 -0.217,26.668 10.628,-8.729 20.772,-21.461 21.007,-35.43 -5.293,-2.894 -6.16,-11.443 -7.545,-15.653 z m 36.004,0.013 c -3.772,7.206 -9.962,13.344 -16.978,17.033 4.055,12.86 3.632,26.534 6.085,39.694 5.666,-8.76 12.697,-16.817 18.85,-24.952 -1.467,-6.74 -5.428,-15.069 -6.38,-22.737 -0.696,-2.827 -1.06,-6.942 -1.577,-9.038 z m -28.36,53.386 c -3.57,4.572 -7.899,8.6 -12.906,11.558 5.265,10.375 5.445,23.579 9.632,33.538 5.41,-6.578 9.002,-15.297 11.733,-22.907 -6.37,-5.199 -6.979,-14.925 -8.047,-22.735 z m 33.152,9.478 c -2.386,5.11 -7.89,8.843 -10.743,12.829 0.682,6.356 -2.016,13.153 2.636,18.515 1.861,2.765 0.285,10.252 4.261,10.226 9.216,-6.066 12.557,-19.669 6.632,-29.099 -1.403,-3.91 -2.117,-9.211 -2.786,-12.471 z m -69.349,16.73 c 1.277,2.85 4.914,-10.077 6.172,-13.056 -4.05,-5.65 -4.124,11.134 -6.172,13.055 z"
             fill="#f8c300"
             id="path27"
             style="fill:#222222;fill-opacity:1" /><path
             d="m 228.189,459.319 c -3.433,3.435 -4.882,6.806 -3.51,11.771 -0.264,8.202 2.655,-3.063 3.018,-6.34 0.21,-1.49 0.514,-3.861 0.492,-5.431 z m -31.823,31.897 c -2.426,4.5 2.45,9.73 1.325,14.847 -0.211,7.732 0.54,9.742 3.578,1.837 -0.838,-4.857 -4.287,-12.173 -4.903,-16.684 z m -22.803,58.372 c -3.672,6.999 -5.055,15.106 -5.092,22.598 4.55,-5.749 12.757,-16.741 5.092,-22.598 z m 34.977,1.866 c -3.68,2.56 -6.468,4.97 -4.252,9.596 0.982,4.441 1.054,10.784 2.118,13.841 4.394,-4.495 8.841,-9.934 4.622,-16.103 -0.953,-2.15 -1.483,-6.002 -2.488,-7.334 z m -28.64,51.003 c -0.745,3.452 2.863,8.883 2.91,13.24 0.373,5.303 3.886,-4.46 0.512,-5.574 -1.607,-2.1 -2.157,-6.502 -3.422,-7.666 z m 34.203,10.011 c -2.545,4.448 -1.234,12.17 1.518,14.794 1.522,-4.81 0.55,-10.618 -1.518,-14.794 z"
             fill="#f8c300"
             id="path28"
             style="fill:#222222;fill-opacity:1" /><g
             id="g31"
             style="fill:#222222;fill-opacity:1"><g
               fill="#715803"
               color="#000000"
               font-weight="400"
               font-family="sans-serif"
               white-space="normal"
               id="g30"
               style="fill:#222222;fill-opacity:1"><path
                 d="m 202.427,421.539 c -3.604,5.024 -7.685,9.673 -12.409,16.856 5.702,-3.521 9.654,-7.918 13.42,-13.09 -0.29,3.148 -0.616,5.133 -0.63,10.461 -0.01,4.256 0.209,8.59 0.96,12.133 0.374,1.77 0.875,3.348 1.632,4.664 0.756,1.315 1.814,2.613 3.344,2.836 l 0.023,0.003 0.019,0.007 c 6.119,2.092 10.724,-4.465 10.04,-9.385 -2.911,3.051 -5.167,7.134 -9.251,6.2 -0.414,-0.094 -0.853,-0.446 -1.339,-1.29 -0.49,-0.853 -0.936,-2.15 -1.268,-3.716 -0.663,-3.13 -0.899,-7.31 -0.888,-11.442 0.02,-8.265 0.429,-9.178 0.333,-13.767 -0.033,-1.582 -0.312,-4.735 -0.312,-4.735 0,0 -2.58,2.74 -3.674,4.265 z m -14.657,53.404 c -3.317,5.51 -5.33,7.886 -6.63,9.539 -1.67,-6.608 -1.68,-12.327 -2.644,-19.31 -2,7.546 -2.86,16.78 0.578,23.795 l 1.134,2.217 1.584,-1.923 c 0,0 4.391,-5.34 8.779,-12.631 4.387,-7.291 8.877,-16.517 7.242,-24.834 -1.636,7.094 -5.79,16.078 -10.044,23.147 z m 42.636,15.745 c -4.653,5.92 -9.379,10.45 -11.462,12.414 -4.318,-4.578 -6.195,-12.857 -6.619,-20.46 -0.456,-8.19 -1.124,-15.436 -1.124,-15.436 0,0 -2.616,7.072 -2.14,15.618 0.475,8.545 2.273,18.536 8.714,23.936 l 1.112,0.93 1.057,-0.99 c 1.172,-1.098 7.49,-6.937 13.033,-13.99 4.594,-6.275 10.741,-14.91 6.862,-21.776 -0.558,8 -5.285,14.444 -9.433,19.754 z m 20.189,33.124 c -0.172,-0.2 -0.263,-0.142 -0.447,-0.431 -0.661,-1.038 -1.329,-2.582 -1.927,-4.428 -1.195,-3.692 -2.14,-8.594 -2.843,-13.448 -1.405,-9.71 -3.504,-19.151 -3.504,-19.151 0,0 -1.166,9.71 0.268,19.617 0.717,4.954 1.669,9.975 2.968,13.988 0.65,2.007 1.377,3.765 2.278,5.179 0.9,1.413 2.017,2.586 3.59,2.97 l 1.367,0.333 0.534,-1.3 c 1.756,-5.03 2.73,-9.548 2.383,-15.864 -1.97,4.493 -3.228,8.77 -4.667,12.535 z m -83.12,7.459 c -2.953,3.386 -5.182,5.06 -6.779,6.085 l -1.44,-9.805 -2.13,6.279 0.836,8.663 2.057,-0.926 c 0,0 4.696,-2.155 9.922,-8.15 5.226,-5.994 11.127,-15.903 12.452,-31.808 -4.439,14.768 -10.061,24.09 -14.918,29.662 z"
                 style="line-height:normal;font-variant-ligatures:normal;font-variant-position:normal;font-variant-caps:normal;font-variant-numeric:normal;font-variant-alternates:normal;font-feature-settings:normal;text-indent:0;text-align:start;text-decoration-line:none;text-decoration-style:solid;text-decoration-color:#000000;text-transform:none;text-orientation:mixed;shape-padding:0;isolation:auto;mix-blend-mode:normal;fill:#222222;fill-opacity:1"
                 overflow="visible"
                 id="path29" /><path
                 d="m 181.84,519.838 c 0.289,6.116 0.842,12.33 1.901,17.31 0.53,2.491 1.175,4.672 2.045,6.434 0.869,1.763 1.99,3.23 3.715,3.805 l 0.029,0.01 0.028,0.006 c 0.976,0.287 1.755,0.066 2.6,-0.242 0.846,-0.308 1.752,-0.787 2.745,-1.435 1.984,-1.295 4.294,-3.274 6.657,-5.945 4.726,-5.34 9.647,-13.46 10.489,-24.618 -3.903,9.859 -8.557,17.497 -12.94,22.45 -2.19,2.476 -4.317,4.28 -5.992,5.373 -0.838,0.546 -1.568,0.912 -2.08,1.098 -0.483,0.176 -0.705,0.118 -0.524,0.173 -0.437,-0.156 -1.126,-0.773 -1.792,-2.121 -0.673,-1.365 -1.287,-3.336 -1.782,-5.667 -0.991,-4.662 -1.547,-10.766 -1.83,-16.787 -0.568,-12.042 -1.699,-23.837 -1.699,-23.837 0,0 -2.146,11.76 -1.57,23.993 z m 60.373,26.668 c -2.13,4.993 -4.503,9.862 -6.715,13.123 -1.105,1.63 -2.19,2.85 -3.018,3.453 -0.82,0.596 -1.08,0.583 -1.396,0.431 -0.448,-0.234 -1.232,-1.038 -1.984,-2.412 -0.757,-1.382 -1.508,-3.27 -2.207,-5.46 -1.398,-4.378 -2.596,-9.97 -3.553,-15.448 -1.913,-10.954 -4.514,-21.304 -4.514,-21.304 0,0 -0.652,10.751 1.29,21.87 0.972,5.559 2.18,11.247 3.658,15.876 0.739,2.315 1.541,4.366 2.457,6.038 0.915,1.671 1.913,3.022 3.373,3.77 l 0.016,0.006 0.013,0.006 c 1.585,0.775 3.41,0.263 4.773,-0.728 1.363,-0.991 2.576,-2.46 3.798,-4.262 2.444,-3.603 4.848,-8.585 7.018,-13.675 4.342,-10.18 6.143,-21.274 6.143,-21.274 0,0 -4.893,10.003 -9.152,19.99 z m -34.753,49.092 c -1.86,2.583 -3.834,4.907 -5.565,6.373 -0.865,0.733 -1.672,1.245 -2.293,1.492 -0.622,0.247 -0.985,0.235 -1.243,0.144 l -0.023,-0.007 -0.019,-0.007 c 0.244,0.08 -0.435,-0.407 -0.977,-1.737 -0.542,-1.331 -1.086,-3.288 -1.575,-5.613 -0.978,-4.65 -1.772,-10.786 -2.383,-16.867 -1.222,-12.16 -3.362,-24.046 -3.362,-24.046 0,0 -1.128,12.092 0.107,24.376 0.617,6.141 1.413,12.345 2.437,17.211 0.512,2.433 1.072,4.526 1.744,6.175 0.669,1.64 1.318,3.05 2.984,3.6 1.176,0.408 2.417,0.248 3.52,-0.191 1.11,-0.442 2.154,-1.154 3.195,-2.035 2.082,-1.763 4.155,-4.246 6.107,-6.958 3.906,-5.423 5.92,-11.104 6.85,-15.403 -2.535,3.616 -5.784,8.327 -9.504,13.493 z m 24.364,18.205 c -0.843,-1.19 -1.74,-2.897 -2.44,-5.478 -1.031,-3.796 -1.743,-8.63 -2.214,-13.356 -0.943,-9.453 -2.581,-18.458 -2.581,-18.458 0,0 -1.638,9.125 -0.674,18.78 0.481,4.828 1.199,9.792 2.312,13.893 1.114,4.101 2.468,6.826 5.243,8.948 0.539,0.412 1.546,0.046 1.98,-0.476 3.163,-3.809 6.392,-16.223 6.392,-16.223 z m -92.531,9.059 c 0.368,3.06 0.91,6.19 1.783,8.798 0.87,2.6 1.995,4.926 4.36,5.702 1.465,0.503 2.922,-0.211 3.945,-1.153 1.03,-0.947 1.928,-2.24 2.83,-3.795 1.807,-3.11 3.566,-7.294 5.15,-11.532 3.168,-8.477 4.017,-17.605 4.017,-17.605 0,0 -3.981,8.16 -7.084,16.462 -1.55,4.15 -3.287,8.233 -4.913,11.033 -0.813,1.4 -1.615,2.475 -2.217,3.029 -0.602,0.554 -0.697,0.464 -0.664,0.476 l -0.02,-0.007 -0.022,-0.006 c -0.5,-0.162 -1.532,-1.405 -2.28,-3.642 -0.749,-2.238 -1.287,-5.214 -1.64,-8.15 -0.704,-5.87 -2.34,-11.56 -2.34,-11.56 0,0 -1.64,5.833 -0.905,11.95 z m 51.987,7.403 c -2.234,4 -4.773,7.76 -7.127,10.308 -1.177,1.274 -2.31,2.238 -3.252,2.783 -0.931,0.538 -1.58,0.626 -2.003,0.53 -0.386,-0.11 -1.036,-0.567 -1.74,-1.572 -0.713,-1.015 -1.447,-2.495 -2.128,-4.261 -1.363,-3.532 -2.537,-8.196 -3.47,-12.807 -1.865,-9.22 -4.419,-18.06 -4.419,-18.06 0,0 -0.693,9.289 1.212,18.708 0.953,4.71 2.141,9.494 3.623,13.334 0.74,1.92 1.55,3.607 2.501,4.964 0.952,1.358 2.075,2.466 3.597,2.872 l 0.02,0.007 0.018,0.003 c 1.527,0.367 3.05,-0.088 4.428,-0.885 1.377,-0.797 2.695,-1.967 4.015,-3.396 2.64,-2.857 5.26,-6.779 7.58,-10.934 3.126,-6.81 8.076,-14.078 5.543,-20.945 -1.744,6.96 -5.452,14.035 -8.398,19.35 z m 29.552,12.362 c -3.857,3.837 -8.273,5.776 -11.25,5 l -0.02,-0.004 -0.02,-0.006 c -0.6,-0.142 -1.629,-1.131 -2.523,-2.978 -2.272,-5.374 -3.184,-10.651 -5.477,-16.446 -0.643,6.49 -0.177,12.181 2.532,17.874 1.073,2.216 2.436,4.183 4.705,4.725 4.812,1.24 10.048,-1.556 14.36,-5.846 4.319,-4.297 7.822,-10.288 7.213,-16.752 -2.475,5.061 -5.663,10.595 -9.52,14.433 z m -68.863,-68.751 c 0.246,5.197 0.726,10.468 1.661,14.688 0.467,2.11 1.038,3.96 1.827,5.462 0.79,1.503 1.857,2.788 3.466,3.217 l 0.02,0.007 0.022,0.003 c 2.562,0.612 5.32,-0.194 8.104,-1.693 2.785,-1.5 5.645,-3.762 8.37,-6.498 5.448,-5.47 10.358,-12.805 10.85,-20.347 -3.406,5.85 -8.069,12.92 -13.17,18.041 -2.55,2.56 -5.21,4.639 -7.6,5.926 -2.374,1.278 -4.425,1.697 -5.762,1.39 -0.299,-0.084 -0.837,-0.49 -1.402,-1.566 -0.569,-1.083 -1.1,-2.706 -1.53,-4.648 -0.86,-3.883 -1.347,-9.037 -1.588,-14.135 -0.483,-10.197 -1.653,-20.26 -1.653,-20.26 0,0 -2.107,10.018 -1.615,20.413 z"
                 style="line-height:normal;font-variant-ligatures:normal;font-variant-position:normal;font-variant-caps:normal;font-variant-numeric:normal;font-variant-alternates:normal;font-feature-settings:normal;text-indent:0;text-align:start;text-decoration-line:none;text-decoration-style:solid;text-decoration-color:#000000;text-transform:none;text-orientation:mixed;shape-padding:0;isolation:auto;mix-blend-mode:normal;fill:#222222;fill-opacity:1"
                 overflow="visible"
                 id="path30" /></g><path
               d="m 201.543,375.186 -72.871,260.636 c 0,0 57.619,21.173 101.68,17.277 l 36.434,-187.927 z"
               fill="none"
               stroke="#705803"
               stroke-opacity="0.992"
               stroke-width="1.63557"
               id="path31"
               style="fill:#222222;fill-opacity:1" /></g><g
             id="g46"
             style="fill:#222222;fill-opacity:1"><path
               d="m 85.63,630.058 c -3.898,5.592 1.863,13.39 4.743,17.285 2.88,3.896 52.705,16.26 81.514,21.172 34.74,5.763 80.663,8.823 93.881,10.517 7.625,0.849 12.542,-5.76 12.542,-13.392 0,-10.665 -8.644,-12.541 -13.389,-12.541 0,0 -5.762,-1.016 -5.762,2.881 0,0 -4.913,-4.736 -9.66,-4.736 -4.743,0 -8.64,1.864 -8.64,5.759 0,0 -3.728,-6.78 -8.644,-7.797 -4.744,-0.85 -11.523,0 -12.37,3.898 0,0 -5.762,-1.016 -10.677,-3.898 -4.745,-2.882 -11.354,-2.882 -15.252,1.017 0,0 -10.507,-3.899 -15.42,-4.744 -4.746,-1.018 -14.236,-2.882 -15.253,0.852 0,0 -2.88,-7.625 -7.625,-8.478 -4.915,-1.018 -16.27,-5.758 -21.183,-1.018 0,0 -3.727,-5.76 -6.609,-5.76 -2.882,0 -9.66,-1.867 -10.675,1.016 0,0 -3.728,-6.78 -12.372,-7.796 -8.644,-0.846 -14.406,-0.846 -19.149,5.763 z"
               fill="#e3b209"
               stroke="#715803"
               stroke-width="1.63557"
               id="path32"
               style="fill:#222222;fill-opacity:1" /><g
               fill="#715803"
               color="#000000"
               font-weight="400"
               font-family="sans-serif"
               white-space="normal"
               id="g33"
               style="fill:#222222;fill-opacity:1"><path
                 style="line-height:normal;font-variant-ligatures:normal;font-variant-position:normal;font-variant-caps:normal;font-variant-numeric:normal;font-variant-alternates:normal;font-feature-settings:normal;text-indent:0;text-align:start;text-decoration-line:none;text-decoration-style:solid;text-decoration-color:#000000;text-transform:none;text-orientation:mixed;shape-padding:0;isolation:auto;mix-blend-mode:normal;fill:#222222;fill-opacity:1"
                 d="m 105.422,635.692 0.323,0.166 0.342,-0.128 c 2.067,-0.778 3.236,-2.032 3.565,-3.456 0.329,-1.425 -0.127,-2.848 -0.78,-4.096 -1.305,-2.495 -3.546,-4.485 -3.546,-4.485 l -1.095,1.214 c 0,0 2.081,1.908 3.191,4.028 0.555,1.06 0.83,2.124 0.636,2.968 -0.183,0.791 -0.81,1.532 -2.313,2.163 -0.587,-0.291 -4.018,-1.942 -8.59,-1.125 4.512,0.818 8.267,2.75 8.267,2.75 z m 28.859,6.156 c -0.186,-0.876 -0.268,-1.796 -0.17,-2.546 0.1,-0.751 0.35,-1.49 0.831,-1.844 l -0.968,-1.316 c -0.918,0.676 -1.349,1.912 -1.485,2.946 -0.136,1.033 -0.013,2.105 0.192,3.092 0.108,0.524 0.174,0.512 0.313,0.968 -2.514,-1.305 -6.096,-0.724 -8.049,0.302 2.485,0.344 4.741,0.008 7.007,0.835 1.576,0.576 2.107,1.147 3.601,2.535 -0.685,-2.094 -0.965,-3.527 -1.272,-4.972 z m 19.029,5.178 0.432,0.28 0.437,-0.267 c 1.365,-0.832 2.072,-2.05 2.214,-3.278 0.142,-1.227 -0.204,-2.426 -0.677,-3.488 -0.947,-2.124 -2.489,-3.789 -2.489,-3.789 l -1.204,1.105 c 0,0 1.394,1.543 2.198,3.348 0.402,0.903 0.637,1.847 0.546,2.636 -0.078,0.675 -0.526,1.232 -1.233,1.772 -3.027,-1.856 -6.01,-2.218 -8.422,0.143 3.086,-1.074 5.687,0.165 8.199,1.538 z m 57.178,7.807 c -0.697,-1.592 -1.263,-3.169 -1.405,-4.14 -0.064,-0.432 -0.005,-0.644 0.003,-0.693 0.03,0 0.011,-0.005 0.077,0.01 l 0.22,-1.515 c -0.34,-0.074 -0.559,-0.172 -0.9,-0.06 -0.343,0.11 -0.647,0.37 -0.815,0.66 -0.337,0.584 -0.297,1.184 -0.202,1.834 0.191,1.3 0.802,2.913 1.524,4.562 0.692,1.581 0.966,1.96 1.613,3.195 -4.57,-1.428 -8.941,-1.564 -13.806,-0.834 4.692,1.21 8.928,0.831 13.449,2.415 0.693,0.25 1.232,0.538 1.562,0.808 0.09,0.162 0.546,1.08 0.546,1.08 l 1.527,2.683 c 0,0 0.206,-2.223 -0.053,-3.289 -0.591,-2.429 -1.946,-3.532 -3.34,-6.716 z m 22.042,-2.661 a 18.563,18.563 0 0 0 -2.865,-3.82 l -1.144,1.169 c 0,0 1.465,1.444 2.581,3.446 1.116,2.003 1.814,4.394 1.283,6.918 2.345,-2.389 1.395,-5.47 0.145,-7.713 z"
                 overflow="visible"
                 id="path33" /></g><path
               d="m 97.864,627.188 c -3.107,-1.43 -11.86,4.9 -8.282,4.748 4.375,-2.008 10.315,-3.137 14.626,-2.02 -1.327,-2.81 -3.42,-3.017 -6.344,-2.728 z M 113,632.072 c -0.872,6.814 -8.634,8.5 -13.593,4.776 -3.745,0.323 -12.033,-7.1 -11.74,-1.51 1.155,9.081 9.49,12.776 17.314,14.302 35.485,10.25 71.559,17.534 108.437,21 -1.41,-7.28 -7.286,-8.993 -13.705,-8.894 -5.446,-0.944 -19.373,-5.062 -6.872,-6.166 3.616,-1.636 8.736,-1.23 12.06,-1.54 0.204,-6.067 -7.947,-3.47 -10.244,-0.07 -9.083,-3.125 -18.558,-7.115 -28.406,-6.334 -2.13,14.092 -4.493,1.11 -7.248,-1.24 -2.26,5.072 -6.906,4.507 -11.005,1.99 -10.039,3.031 -12.044,1.235 -11.212,-0.306 -4.325,3.866 -5.832,-2.646 -11.251,-1.265 -12.639,-0.206 -12.463,-2.558 -0.981,-6.817 3.158,-0.274 7.627,-2.314 3.635,-5.344 -4.41,-1.23 -10.488,-2.25 -10.577,4.542 -1.545,-2.258 -2.815,-5.308 -4.612,-7.124 z m 26.641,6.012 c -5.293,1.49 0.612,13.086 3.29,4.965 1.146,-2.756 7.442,-1.74 6.744,-3.179 -2.99,-1.279 -6.717,-1.922 -10.034,-1.786 z m 86.778,14.277 c -4.937,-0.51 -3.127,7.084 -8.321,3.718 -6.694,-2.89 -0.515,2.606 -0.879,6.424 -2.065,7.911 1.878,10.218 9.858,9.53 14.278,0.5 28.847,4.16 42.991,3.149 9.001,-4.862 5.01,-21.253 -6.226,-18.915 -2.145,6.22 -2.329,7.365 -8.51,0.786 -4.155,-4.483 -14.49,-3.062 -11.52,5.054 1.093,13.444 -4.726,-4.834 -6.87,-4.105 -1.426,5.372 -6.881,8.45 -9.887,12.88 0.238,-5.918 5.14,-13.953 -0.636,-18.521 z"
               fill="#f6c314"
               id="path34"
               style="fill:#222222;fill-opacity:1" /><path
               d="m 96.208,640.956 c 4.454,3.919 10.959,5.095 16.3,6.032 -0.995,-2.112 0.319,-4.706 1.193,-6.22 -1.724,0.52 -2.932,2.488 -5.047,2.543 -4.386,0.9 -8.696,-0.958 -12.677,-2.568 z m 75.171,11.335 c -2.943,0.318 -1.545,4.43 -4.067,5.58 -3.366,2.358 -7.629,-0.707 -9.331,-3.75 -5.233,2.42 -10.972,-2.167 -16.11,0.444 15.282,3.49 30.698,6.407 46.217,8.603 -2.319,-1.481 -5.85,-4 -3.969,-6.943 0.06,-2.275 -3.654,-1.734 -5.113,-2.468 -2.528,-0.525 -5.007,-1.593 -7.627,-1.466 z m 77.55,6.926 c -2.607,0.562 -0.49,4.139 -0.633,5.902 0.267,1.542 -0.069,3.373 -0.893,4.56 5.823,0.423 11.88,1.259 17.794,1.425 3.202,0.323 6.111,-2.533 4.928,-5.716 0.563,-2.715 -3.962,-6.16 -4.823,-2.383 -1.13,3.783 -6.678,4.092 -9.171,1.303 -2.325,-1.688 -4.097,-4.87 -7.202,-5.09 z m -24.478,0.765 c -1.36,0.945 -4.3,1.37 -2.677,3.671 -1.693,0.964 -0.707,4.324 1.066,3.895 0.534,-2.426 1.554,-5.564 1.61,-7.566 z m 12.68,6.647 c -0.77,0.833 -2.535,1.879 -0.361,1.626 1.57,0.47 1.718,0.169 0.771,-1.124 -0.216,0.364 -0.173,-0.999 -0.41,-0.502 z"
               fill="#f8c300"
               id="path35"
               style="fill:#222222;fill-opacity:1" /><g
               id="g45"
               style="fill:#222222;fill-opacity:1"><path
                 d="m 90.373,636.841 c 1.865,2.88 4.745,9.49 1.017,15.242 -3.899,5.76 -3.943,9.454 0,13.556 0,0 -14.406,-2.88 -13.388,-19.32 0.849,-16.256 9.49,-14.223 12.371,-9.478 z"
                 fill="#e18d11"
                 stroke="#84530a"
                 stroke-width="1.63557"
                 id="path36"
                 style="fill:#222222;fill-opacity:1" /><path
                 d="m 84.802,636.727 c -5.43,4.917 -4.554,16.969 0.195,21.275 2.035,-6.36 8.343,-12.731 2.597,-19.435 -0.595,-0.943 -1.605,-1.879 -2.792,-1.84 z"
                 fill="#ee9b21"
                 id="path37"
                 style="fill:#222222;fill-opacity:1" /><path
                 d="m 85.393,641.461 c -1.785,2.792 -1.19,13.272 0.894,5.376 0.674,-1.632 0.471,-4.9 -0.894,-5.376 z"
                 fill="#f0a83e"
                 id="path38"
                 style="fill:#222222;fill-opacity:1" /><g
                 id="g41"
                 style="fill:#222222;fill-opacity:1"><path
                   d="m 177.645,649.21 c 5.763,1.018 5.763,5.763 2.882,13.558 -2.882,7.625 -7.625,14.234 -4.743,19.998 0,0 -16.439,-8.634 -11.524,-22.868 4.745,-14.415 7.625,-11.536 13.385,-10.687 z"
                   fill="#e18d11"
                   stroke="#84530a"
                   stroke-width="1.63557"
                   id="path39"
                   style="fill:#222222;fill-opacity:1" /><path
                   d="m 172.417,651.68 c -6.592,5.796 -8.15,18.362 -0.483,24.14 1.115,-7.757 8.808,-15.239 6.46,-22.974 -1.903,-0.644 -3.984,-0.944 -5.977,-1.166 z"
                   fill="#ee9b21"
                   id="path40"
                   style="fill:#222222;fill-opacity:1" /><path
                   d="m 173.25,655.526 c -2.896,3.55 -4.035,9.118 -2.479,13.158 1.253,-4.021 6.165,-9.728 4.041,-13.369 l -1.217,-0.191 z"
                   fill="#f0a83e"
                   id="path41"
                   style="fill:#222222;fill-opacity:1" /></g><g
                 id="g44"
                 style="fill:#222222;fill-opacity:1"><path
                   d="m 264.921,661.752 c 4.406,-1.864 13.389,7.289 13.389,12.37 0,8.634 -4.915,17.277 -13.389,20.165 0,0 3.727,-17.283 0,-18.14 -3.898,-1.007 -9.66,-10.497 0,-14.395 z"
                   fill="#e18d11"
                   stroke="#84530a"
                   stroke-width="1.63557"
                   id="path42"
                   style="fill:#222222;fill-opacity:1" /><path
                   d="m 266.158,664.787 c -6.766,2.363 -1.056,8.426 2.48,10.41 2.145,3.733 0.784,9.2 0.859,12.53 7.135,-7.104 8.245,-19.254 -3.339,-22.94 z"
                   fill="#ee9b21"
                   id="path43"
                   style="fill:#222222;fill-opacity:1" /><path
                   d="m 266.391,668.512 c 2.1,4.217 7.124,4.936 1.732,0.763 -0.218,-0.052 -1.923,-1.297 -1.732,-0.763 z"
                   fill="#f0a83e"
                   id="path44"
                   style="fill:#222222;fill-opacity:1" /></g></g></g><g
             id="g68"
             style="fill:#222222;fill-opacity:1"><path
               d="m 368.457,375.186 72.871,260.636 c 0,0 -57.619,21.173 -101.68,17.277 L 303.215,465.172 Z"
               fill="#e3b209"
               id="path46"
               style="fill:#222222;fill-opacity:1" /><path
               d="m 433.352,631.587 c -31.48,0.562 -26.576,8.622 -31.8,8.523 -7.493,-0.141 -23.183,5.861 -26.163,4.61 -9.688,-4.066 -22.744,2.388 -30.288,2.146 L 310.18,466.717 365.805,389.989 Z"
               fill="#f6c314"
               id="path47"
               style="fill:#222222;fill-opacity:1" /><path
               d="m 357.429,412.798 c -1.193,9.877 1.039,20.429 -0.588,29.785 -1.9,-4.846 -10.513,-9.92 -11.896,-1.952 -1.75,7.5 0.79,16.795 8.123,20.355 -2.266,9.966 -0.299,22.772 -4.057,30.958 -11.482,-10.795 -15.23,-26.884 -13.4,-42.15 -2.053,0.188 -6.976,9.938 -9.648,14.598 -3.115,5.202 -4.425,11.634 -2.942,17.432 -2.477,11.445 -3.067,-0.156 -4.492,-6.415 -4.368,-10.93 8.744,-17.991 13.013,-27.01 8.598,-11.788 17.446,-24.208 25.887,-35.601 z m 8.53,48.045 c 2.322,11.27 8.113,21.899 16.01,30.203 -5.565,13.611 -1.643,29.064 -5.233,43.215 -7.484,-7.74 -10.951,-18.172 -15.92,-27.504 8.573,-13.373 8.137,-30.936 3.095,-45.288 0.655,-0.043 1.98,-1.414 2.047,-0.626 z m -30.642,40.071 c 3.231,4.49 9.21,8.192 11.302,12.557 -5.425,12.007 -5.249,25.526 -9.156,37.97 -5.477,-9.79 -11.732,-21.83 -5.398,-32.878 1.873,-5.42 2.223,-13.783 3.252,-17.649 z m 58.126,34.743 c 7.576,6.274 11.89,14.708 13.245,24.415 2.09,8.7 1.987,18.216 0.217,26.668 -10.628,-8.729 -20.772,-21.461 -21.007,-35.43 5.293,-2.894 6.16,-11.443 7.545,-15.653 z m -36.004,0.013 c 3.772,7.206 9.962,13.344 16.978,17.033 -4.055,12.86 -3.632,26.534 -6.085,39.694 -5.666,-8.76 -12.697,-16.817 -18.85,-24.952 1.467,-6.74 5.428,-15.069 6.38,-22.737 0.696,-2.827 1.06,-6.942 1.577,-9.038 z m 28.36,53.386 c 3.57,4.572 7.899,8.6 12.906,11.558 -5.265,10.375 -5.445,23.579 -9.632,33.538 -5.41,-6.578 -9.002,-15.297 -11.733,-22.907 6.37,-5.199 6.979,-14.925 8.047,-22.735 z m -33.152,9.478 c 2.386,5.11 7.89,8.843 10.743,12.829 -0.682,6.356 2.016,13.153 -2.636,18.515 -1.861,2.765 -0.285,10.252 -4.261,10.226 -9.216,-6.066 -12.557,-19.669 -6.632,-29.099 1.403,-3.91 2.117,-9.211 2.786,-12.471 z m 69.349,16.73 c -1.277,2.85 -4.914,-10.077 -6.172,-13.056 4.05,-5.65 4.124,11.134 6.172,13.055 z"
               fill="#f8c300"
               id="path48"
               style="fill:#222222;fill-opacity:1" /><path
               d="m 341.811,459.319 c 3.433,3.435 4.882,6.806 3.51,11.771 0.264,8.202 -2.655,-3.063 -3.018,-6.34 -0.21,-1.49 -0.514,-3.861 -0.492,-5.431 z m 31.823,31.897 c 2.426,4.5 -2.45,9.73 -1.325,14.847 0.211,7.732 -0.54,9.742 -3.578,1.837 0.838,-4.857 4.287,-12.173 4.903,-16.684 z m 22.803,58.372 c 3.672,6.999 5.055,15.106 5.092,22.598 -4.55,-5.749 -12.757,-16.741 -5.092,-22.598 z m -34.977,1.866 c 3.68,2.56 6.468,4.97 4.252,9.596 -0.982,4.441 -1.054,10.784 -2.118,13.841 -4.394,-4.495 -8.841,-9.934 -4.622,-16.103 0.953,-2.15 1.483,-6.002 2.488,-7.334 z m 28.639,51.003 c 0.745,3.452 -2.863,8.883 -2.91,13.24 -0.373,5.303 -3.886,-4.46 -0.512,-5.574 1.607,-2.1 2.157,-6.502 3.422,-7.666 z m -34.203,10.011 c 2.545,4.448 1.234,12.17 -1.518,14.794 -1.522,-4.81 -0.55,-10.618 1.518,-14.794 z"
               fill="#f8c300"
               id="path49"
               style="fill:#222222;fill-opacity:1" /><g
               id="g52"
               style="fill:#222222;fill-opacity:1"><g
                 fill="#715803"
                 color="#000000"
                 font-weight="400"
                 font-family="sans-serif"
                 white-space="normal"
                 id="g51"
                 style="fill:#222222;fill-opacity:1"><path
                   style="line-height:normal;font-variant-ligatures:normal;font-variant-position:normal;font-variant-caps:normal;font-variant-numeric:normal;font-variant-alternates:normal;font-feature-settings:normal;text-indent:0;text-align:start;text-decoration-line:none;text-decoration-style:solid;text-decoration-color:#000000;text-transform:none;text-orientation:mixed;shape-padding:0;isolation:auto;mix-blend-mode:normal;fill:#222222;fill-opacity:1"
                   d="m 367.573,421.539 c 3.604,5.024 7.685,9.673 12.409,16.856 -5.702,-3.521 -9.654,-7.918 -13.42,-13.09 0.29,3.148 0.616,5.133 0.63,10.461 0.01,4.256 -0.209,8.59 -0.96,12.133 -0.374,1.77 -0.875,3.348 -1.631,4.664 -0.757,1.315 -1.815,2.613 -3.345,2.836 l -0.023,0.003 a 0.208,0.208 0 0 0 -0.019,0.007 c -6.119,2.092 -10.724,-4.465 -10.04,-9.385 2.911,3.051 5.167,7.134 9.251,6.2 0.414,-0.094 0.853,-0.446 1.339,-1.29 0.49,-0.853 0.936,-2.15 1.268,-3.716 0.663,-3.13 0.899,-7.31 0.888,-11.442 -0.02,-8.265 -0.429,-9.178 -0.333,-13.767 0.033,-1.582 0.312,-4.735 0.312,-4.735 0,0 2.58,2.74 3.674,4.265 z m 14.657,53.404 c 3.317,5.51 5.33,7.886 6.63,9.539 1.67,-6.608 1.68,-12.327 2.644,-19.31 2,7.546 2.86,16.78 -0.578,23.795 l -1.134,2.217 -1.584,-1.923 c 0,0 -4.391,-5.34 -8.779,-12.631 -4.387,-7.291 -8.877,-16.517 -7.242,-24.834 1.636,7.094 5.79,16.078 10.044,23.147 z m -42.636,15.745 c 4.653,5.92 9.379,10.45 11.462,12.414 4.318,-4.578 6.195,-12.857 6.619,-20.46 0.456,-8.19 1.124,-15.436 1.124,-15.436 0,0 2.616,7.072 2.14,15.618 -0.475,8.545 -2.273,18.536 -8.714,23.936 l -1.112,0.93 -1.057,-0.99 c -1.172,-1.098 -7.49,-6.937 -13.033,-13.99 -4.594,-6.275 -10.741,-14.91 -6.862,-21.776 0.558,8 5.285,14.444 9.433,19.754 z m -20.189,33.124 c 0.172,-0.2 0.263,-0.142 0.447,-0.431 0.661,-1.038 1.329,-2.582 1.927,-4.428 1.195,-3.692 2.14,-8.594 2.843,-13.448 1.405,-9.71 3.504,-19.151 3.504,-19.151 0,0 1.166,9.71 -0.268,19.617 -0.717,4.954 -1.669,9.975 -2.968,13.988 -0.65,2.007 -1.377,3.765 -2.278,5.179 -0.9,1.413 -2.017,2.586 -3.59,2.97 l -1.367,0.333 -0.534,-1.3 c -1.756,-5.03 -2.73,-9.548 -2.383,-15.864 1.97,4.493 3.228,8.77 4.667,12.535 z m 83.12,7.459 c 2.953,3.386 5.182,5.06 6.779,6.085 l 1.44,-9.805 2.13,6.279 -0.836,8.663 -2.057,-0.926 c 0,0 -4.696,-2.155 -9.922,-8.15 -5.226,-5.994 -11.127,-15.903 -12.452,-31.808 4.439,14.768 10.061,24.09 14.918,29.662 z"
                   overflow="visible"
                   id="path50" /><path
                   style="line-height:normal;font-variant-ligatures:normal;font-variant-position:normal;font-variant-caps:normal;font-variant-numeric:normal;font-variant-alternates:normal;font-feature-settings:normal;text-indent:0;text-align:start;text-decoration-line:none;text-decoration-style:solid;text-decoration-color:#000000;text-transform:none;text-orientation:mixed;shape-padding:0;isolation:auto;mix-blend-mode:normal;fill:#222222;fill-opacity:1"
                   d="m 388.16,519.838 c -0.289,6.116 -0.842,12.33 -1.901,17.31 -0.53,2.491 -1.175,4.672 -2.045,6.434 -0.869,1.763 -1.99,3.23 -3.715,3.805 l -0.028,0.01 -0.03,0.006 c -0.975,0.287 -1.754,0.066 -2.6,-0.242 -0.845,-0.308 -1.751,-0.787 -2.744,-1.435 -1.984,-1.295 -4.294,-3.274 -6.657,-5.945 -4.726,-5.34 -9.647,-13.46 -10.489,-24.618 3.903,9.859 8.557,17.497 12.94,22.45 2.19,2.476 4.317,4.28 5.992,5.373 0.838,0.546 1.568,0.912 2.08,1.098 0.483,0.176 0.705,0.118 0.524,0.173 0.437,-0.156 1.126,-0.773 1.792,-2.121 0.673,-1.365 1.287,-3.336 1.782,-5.667 0.991,-4.662 1.547,-10.766 1.83,-16.787 0.568,-12.042 1.699,-23.837 1.699,-23.837 0,0 2.146,11.76 1.57,23.993 z m -60.373,26.668 c 2.13,4.993 4.503,9.862 6.715,13.123 1.105,1.63 2.19,2.85 3.018,3.453 0.82,0.596 1.08,0.583 1.396,0.431 0.448,-0.234 1.232,-1.038 1.984,-2.412 0.757,-1.382 1.508,-3.27 2.207,-5.46 1.398,-4.378 2.596,-9.97 3.553,-15.448 1.913,-10.954 4.514,-21.304 4.514,-21.304 0,0 0.652,10.751 -1.29,21.87 -0.972,5.559 -2.18,11.247 -3.658,15.876 -0.739,2.315 -1.541,4.366 -2.457,6.038 -0.915,1.671 -1.913,3.022 -3.373,3.77 l -0.016,0.006 -0.013,0.006 c -1.585,0.775 -3.41,0.263 -4.773,-0.728 -1.363,-0.991 -2.576,-2.46 -3.798,-4.262 -2.444,-3.603 -4.848,-8.585 -7.018,-13.675 -4.342,-10.18 -6.143,-21.274 -6.143,-21.274 0,0 4.893,10.003 9.152,19.99 z m 34.753,49.092 c 1.86,2.583 3.834,4.907 5.565,6.373 0.865,0.733 1.672,1.245 2.293,1.492 0.622,0.247 0.985,0.235 1.243,0.144 l 0.023,-0.007 0.019,-0.007 c -0.244,0.08 0.435,-0.407 0.977,-1.737 0.542,-1.331 1.086,-3.288 1.575,-5.613 0.978,-4.65 1.772,-10.786 2.383,-16.867 1.222,-12.16 3.362,-24.046 3.362,-24.046 0,0 1.128,12.092 -0.107,24.376 -0.617,6.141 -1.413,12.345 -2.437,17.211 -0.512,2.433 -1.072,4.526 -1.744,6.175 -0.669,1.64 -1.318,3.05 -2.984,3.6 -1.176,0.408 -2.417,0.248 -3.52,-0.191 -1.11,-0.442 -2.154,-1.154 -3.195,-2.035 -2.082,-1.763 -4.155,-4.246 -6.107,-6.958 -3.906,-5.423 -5.92,-11.104 -6.85,-15.403 2.535,3.616 5.784,8.327 9.504,13.493 z m -24.364,18.205 c 0.843,-1.19 1.74,-2.897 2.44,-5.478 1.031,-3.796 1.743,-8.63 2.214,-13.356 0.943,-9.453 2.581,-18.458 2.581,-18.458 0,0 1.638,9.125 0.674,18.78 -0.481,4.828 -1.199,9.792 -2.312,13.893 -1.114,4.101 -2.468,6.826 -5.243,8.948 -0.539,0.412 -1.546,0.046 -1.98,-0.476 -3.162,-3.809 -6.392,-16.223 -6.392,-16.223 z m 92.531,9.059 c -0.368,3.06 -0.91,6.19 -1.783,8.798 -0.87,2.6 -1.995,4.926 -4.36,5.702 -1.465,0.503 -2.922,-0.211 -3.945,-1.153 -1.03,-0.947 -1.928,-2.24 -2.83,-3.795 -1.807,-3.11 -3.566,-7.294 -5.15,-11.532 -3.168,-8.477 -4.017,-17.605 -4.017,-17.605 0,0 3.981,8.16 7.084,16.462 1.55,4.15 3.287,8.233 4.913,11.033 0.813,1.4 1.615,2.475 2.217,3.029 0.602,0.554 0.697,0.464 0.664,0.476 l 0.02,-0.007 0.022,-0.006 c 0.5,-0.162 1.532,-1.405 2.28,-3.642 0.749,-2.238 1.287,-5.214 1.64,-8.15 0.705,-5.87 2.34,-11.56 2.34,-11.56 0,0 1.64,5.833 0.905,11.95 z m -51.987,7.403 c 2.234,4 4.773,7.76 7.127,10.308 1.177,1.274 2.31,2.238 3.252,2.783 0.931,0.538 1.58,0.626 2.003,0.53 0.386,-0.11 1.036,-0.567 1.74,-1.572 0.713,-1.015 1.447,-2.495 2.128,-4.261 1.363,-3.532 2.537,-8.196 3.47,-12.807 1.865,-9.22 4.419,-18.06 4.419,-18.06 0,0 0.693,9.289 -1.212,18.708 -0.953,4.71 -2.141,9.494 -3.623,13.334 -0.74,1.92 -1.55,3.607 -2.501,4.964 -0.952,1.358 -2.075,2.466 -3.597,2.872 l -0.02,0.007 -0.018,0.003 c -1.527,0.367 -3.05,-0.088 -4.428,-0.885 -1.377,-0.797 -2.695,-1.967 -4.015,-3.396 -2.64,-2.857 -5.26,-6.779 -7.58,-10.934 -3.126,-6.81 -8.076,-14.078 -5.543,-20.945 1.744,6.96 5.452,14.035 8.398,19.35 z m -29.552,12.362 c 3.857,3.837 8.273,5.776 11.25,5 l 0.02,-0.004 0.02,-0.006 c 0.6,-0.142 1.629,-1.131 2.523,-2.978 2.272,-5.374 3.185,-10.651 5.477,-16.446 0.643,6.49 0.177,12.181 -2.532,17.874 -1.073,2.216 -2.436,4.183 -4.705,4.725 -4.812,1.24 -10.047,-1.556 -14.36,-5.846 -4.319,-4.297 -7.822,-10.288 -7.213,-16.752 2.475,5.061 5.663,10.595 9.52,14.433 z m 68.863,-68.751 c -0.246,5.197 -0.726,10.468 -1.66,14.688 -0.468,2.11 -1.04,3.96 -1.828,5.462 -0.79,1.503 -1.857,2.788 -3.466,3.217 l -0.02,0.007 -0.022,0.003 c -2.562,0.612 -5.32,-0.194 -8.104,-1.693 -2.785,-1.5 -5.645,-3.762 -8.37,-6.498 -5.448,-5.47 -10.358,-12.805 -10.85,-20.347 3.406,5.85 8.069,12.92 13.17,18.041 2.55,2.56 5.21,4.639 7.6,5.926 2.374,1.278 4.425,1.697 5.762,1.39 0.299,-0.084 0.838,-0.49 1.402,-1.566 0.569,-1.083 1.1,-2.706 1.53,-4.648 0.86,-3.883 1.347,-9.037 1.588,-14.135 0.483,-10.197 1.653,-20.26 1.653,-20.26 0,0 2.107,10.018 1.615,20.413 z"
                   overflow="visible"
                   id="path51" /></g><path
                 d="m 368.457,375.186 72.871,260.636 c 0,0 -57.619,21.173 -101.68,17.277 L 303.215,465.172 Z"
                 fill="none"
                 stroke="#705803"
                 stroke-opacity="0.992"
                 stroke-width="1.63557"
                 id="path52"
                 style="fill:#222222;fill-opacity:1" /></g><g
               id="g67"
               style="fill:#222222;fill-opacity:1"><path
                 d="m 484.37,630.058 c 3.898,5.592 -1.863,13.39 -4.743,17.285 -2.88,3.896 -52.705,16.26 -81.514,21.172 -34.739,5.763 -80.663,8.823 -93.881,10.517 -7.625,0.849 -12.542,-5.76 -12.542,-13.392 0,-10.665 8.644,-12.541 13.39,-12.541 0,0 5.761,-1.016 5.761,2.881 0,0 4.913,-4.736 9.66,-4.736 4.743,0 8.64,1.864 8.64,5.759 0,0 3.728,-6.78 8.645,-7.797 4.743,-0.85 11.522,0 12.37,3.898 0,0 5.761,-1.016 10.676,-3.898 4.745,-2.882 11.354,-2.882 15.252,1.017 0,0 10.507,-3.899 15.42,-4.744 4.747,-1.018 14.236,-2.882 15.253,0.852 0,0 2.88,-7.625 7.625,-8.478 4.915,-1.018 16.27,-5.758 21.183,-1.018 0,0 3.727,-5.76 6.609,-5.76 2.882,0 9.66,-1.867 10.675,1.016 0,0 3.728,-6.78 12.372,-7.796 8.644,-0.846 14.406,-0.846 19.149,5.763 z"
                 fill="#e3b209"
                 stroke="#715803"
                 stroke-width="1.63557"
                 id="path53"
                 style="fill:#222222;fill-opacity:1" /><g
                 fill="#715803"
                 color="#000000"
                 font-weight="400"
                 font-family="sans-serif"
                 white-space="normal"
                 id="g54"
                 style="fill:#222222;fill-opacity:1"><path
                   d="m 464.578,635.692 -0.323,0.166 -0.342,-0.128 c -2.067,-0.778 -3.236,-2.032 -3.565,-3.456 -0.328,-1.425 0.127,-2.848 0.78,-4.096 1.305,-2.495 3.546,-4.485 3.546,-4.485 l 1.095,1.214 c 0,0 -2.081,1.908 -3.191,4.028 -0.555,1.06 -0.83,2.124 -0.636,2.968 0.183,0.791 0.81,1.532 2.313,2.163 0.587,-0.291 4.018,-1.942 8.59,-1.125 -4.512,0.818 -8.267,2.75 -8.267,2.75 z m -28.859,6.156 c 0.186,-0.876 0.268,-1.796 0.17,-2.546 -0.1,-0.751 -0.35,-1.49 -0.831,-1.844 l 0.968,-1.316 c 0.918,0.676 1.349,1.912 1.485,2.946 0.136,1.033 0.013,2.105 -0.192,3.092 -0.108,0.524 -0.174,0.512 -0.313,0.968 2.514,-1.305 6.096,-0.724 8.049,0.302 -2.485,0.344 -4.741,0.008 -7.007,0.835 -1.576,0.576 -2.107,1.147 -3.6,2.535 0.684,-2.094 0.964,-3.527 1.271,-4.972 z m -19.029,5.178 -0.432,0.28 -0.437,-0.267 c -1.365,-0.832 -2.072,-2.05 -2.214,-3.278 -0.142,-1.227 0.204,-2.426 0.677,-3.488 0.947,-2.124 2.489,-3.789 2.489,-3.789 l 1.204,1.105 c 0,0 -1.394,1.543 -2.198,3.348 -0.402,0.903 -0.637,1.847 -0.546,2.636 0.078,0.675 0.526,1.232 1.233,1.772 3.027,-1.856 6.01,-2.218 8.422,0.143 -3.086,-1.074 -5.687,0.165 -8.198,1.538 z m -57.178,7.807 c 0.697,-1.592 1.263,-3.169 1.405,-4.14 0.064,-0.432 0.005,-0.644 -0.003,-0.693 -0.03,0 -0.011,-0.005 -0.077,0.01 l -0.22,-1.515 c 0.34,-0.074 0.559,-0.172 0.9,-0.06 0.343,0.11 0.647,0.37 0.815,0.66 0.337,0.584 0.297,1.184 0.202,1.834 -0.191,1.3 -0.802,2.913 -1.524,4.562 -0.692,1.581 -0.966,1.96 -1.613,3.195 4.57,-1.428 8.941,-1.564 13.806,-0.834 -4.692,1.21 -8.928,0.831 -13.449,2.415 -0.693,0.25 -1.232,0.538 -1.562,0.808 -0.09,0.162 -0.546,1.08 -0.546,1.08 l -1.527,2.683 c 0,0 -0.206,-2.223 0.053,-3.289 0.591,-2.429 1.946,-3.532 3.34,-6.716 z m -22.042,-2.661 a 18.563,18.563 0 0 1 2.865,-3.82 l 1.144,1.169 c 0,0 -1.465,1.444 -2.581,3.446 -1.116,2.003 -1.814,4.394 -1.283,6.918 -2.345,-2.389 -1.395,-5.47 -0.145,-7.713 z"
                   style="line-height:normal;font-variant-ligatures:normal;font-variant-position:normal;font-variant-caps:normal;font-variant-numeric:normal;font-variant-alternates:normal;font-feature-settings:normal;text-indent:0;text-align:start;text-decoration-line:none;text-decoration-style:solid;text-decoration-color:#000000;text-transform:none;text-orientation:mixed;shape-padding:0;isolation:auto;mix-blend-mode:normal;fill:#222222;fill-opacity:1"
                   overflow="visible"
                   id="path54" /></g><path
                 d="m 472.136,627.188 c 3.107,-1.43 11.86,4.9 8.282,4.748 -4.375,-2.008 -10.315,-3.137 -14.626,-2.02 1.328,-2.81 3.42,-3.017 6.344,-2.728 z M 457,632.072 c 0.872,6.814 8.634,8.5 13.593,4.776 3.745,0.323 12.033,-7.1 11.74,-1.51 -1.155,9.081 -9.49,12.776 -17.314,14.302 -35.485,10.25 -71.559,17.534 -108.437,21 1.41,-7.28 7.286,-8.993 13.705,-8.894 5.446,-0.944 19.373,-5.062 6.872,-6.166 -3.616,-1.636 -8.736,-1.23 -12.06,-1.54 -0.204,-6.067 7.947,-3.47 10.245,-0.07 9.082,-3.125 18.557,-7.115 28.405,-6.334 2.13,14.092 4.493,1.11 7.248,-1.24 2.26,5.072 6.906,4.507 11.005,1.99 10.039,3.031 12.044,1.235 11.212,-0.306 4.325,3.866 5.832,-2.646 11.251,-1.265 12.639,-0.206 12.463,-2.558 0.981,-6.817 -3.158,-0.274 -7.627,-2.314 -3.635,-5.344 4.41,-1.23 10.488,-2.25 10.577,4.542 1.545,-2.258 2.815,-5.308 4.612,-7.124 z m -26.641,6.012 c 5.293,1.49 -0.612,13.086 -3.29,4.965 -1.146,-2.756 -7.442,-1.74 -6.744,-3.179 2.99,-1.279 6.717,-1.922 10.034,-1.786 z m -86.778,14.277 c 4.937,-0.51 3.127,7.084 8.321,3.718 6.694,-2.89 0.515,2.606 0.879,6.424 2.065,7.911 -1.878,10.218 -9.858,9.53 -14.278,0.5 -28.847,4.16 -42.991,3.149 -9.001,-4.862 -5.01,-21.253 6.226,-18.915 2.145,6.22 2.329,7.365 8.51,0.786 4.155,-4.483 14.49,-3.062 11.52,5.054 -1.093,13.444 4.726,-4.834 6.87,-4.105 1.426,5.372 6.881,8.45 9.887,12.88 -0.238,-5.918 -5.14,-13.953 0.636,-18.521 z"
                 fill="#f6c314"
                 id="path55"
                 style="fill:#222222;fill-opacity:1" /><path
                 d="m 473.792,640.956 c -4.454,3.919 -10.959,5.095 -16.3,6.032 0.995,-2.112 -0.319,-4.706 -1.193,-6.22 1.724,0.52 2.932,2.488 5.047,2.543 4.386,0.9 8.696,-0.958 12.677,-2.568 z m -75.17,11.335 c 2.942,0.318 1.544,4.43 4.066,5.58 3.366,2.358 7.629,-0.707 9.331,-3.75 5.233,2.42 10.972,-2.167 16.11,0.444 -15.282,3.49 -30.698,6.407 -46.217,8.603 2.319,-1.481 5.85,-4 3.969,-6.943 -0.06,-2.275 3.654,-1.734 5.113,-2.468 2.528,-0.525 5.007,-1.593 7.627,-1.466 z m -77.551,6.926 c 2.607,0.562 0.49,4.139 0.633,5.902 -0.267,1.542 0.069,3.373 0.893,4.56 -5.823,0.423 -11.88,1.259 -17.794,1.425 -3.202,0.323 -6.11,-2.533 -4.928,-5.716 -0.563,-2.715 3.962,-6.16 4.823,-2.383 1.13,3.783 6.678,4.092 9.171,1.303 2.325,-1.688 4.097,-4.87 7.202,-5.09 z m 24.478,0.765 c 1.36,0.945 4.3,1.37 2.677,3.671 1.693,0.964 0.707,4.324 -1.066,3.895 -0.534,-2.426 -1.554,-5.564 -1.61,-7.566 z m -12.68,6.647 c 0.77,0.833 2.535,1.879 0.361,1.626 -1.57,0.47 -1.718,0.169 -0.771,-1.124 0.216,0.364 0.173,-0.999 0.41,-0.502 z"
                 fill="#f8c300"
                 id="path56"
                 style="fill:#222222;fill-opacity:1" /><g
                 id="g66"
                 style="fill:#222222;fill-opacity:1"><path
                   d="m 479.627,636.841 c -1.865,2.88 -4.745,9.49 -1.017,15.242 3.899,5.76 3.943,9.454 0,13.556 0,0 14.406,-2.88 13.388,-19.32 -0.849,-16.256 -9.49,-14.223 -12.371,-9.478 z"
                   fill="#e18d11"
                   stroke="#84530a"
                   stroke-width="1.63557"
                   id="path57"
                   style="fill:#222222;fill-opacity:1" /><path
                   d="m 485.198,636.727 c 5.43,4.917 4.554,16.969 -0.195,21.275 -2.035,-6.36 -8.343,-12.731 -2.597,-19.435 0.595,-0.943 1.605,-1.879 2.792,-1.84 z"
                   fill="#ee9b21"
                   id="path58"
                   style="fill:#222222;fill-opacity:1" /><path
                   d="m 484.607,641.461 c 1.785,2.792 1.19,13.272 -0.894,5.376 -0.674,-1.632 -0.471,-4.9 0.894,-5.376 z"
                   fill="#f0a83e"
                   id="path59"
                   style="fill:#222222;fill-opacity:1" /><g
                   id="g62"
                   style="fill:#222222;fill-opacity:1"><path
                     d="m 392.355,649.21 c -5.763,1.018 -5.763,5.763 -2.882,13.558 2.882,7.625 7.625,14.234 4.743,19.998 0,0 16.439,-8.634 11.524,-22.868 -4.745,-14.415 -7.625,-11.536 -13.385,-10.687 z"
                     fill="#e18d11"
                     stroke="#84530a"
                     stroke-width="1.63557"
                     id="path60"
                     style="fill:#222222;fill-opacity:1" /><path
                     d="m 397.583,651.68 c 6.592,5.796 8.15,18.362 0.483,24.14 -1.115,-7.757 -8.808,-15.239 -6.46,-22.974 1.903,-0.644 3.984,-0.944 5.977,-1.166 z"
                     fill="#ee9b21"
                     id="path61"
                     style="fill:#222222;fill-opacity:1" /><path
                     d="m 396.75,655.526 c 2.896,3.55 4.035,9.118 2.479,13.158 -1.253,-4.021 -6.165,-9.728 -4.041,-13.369 l 1.217,-0.191 z"
                     fill="#f0a83e"
                     id="path62"
                     style="fill:#222222;fill-opacity:1" /></g><g
                   id="g65"
                   style="fill:#222222;fill-opacity:1"><path
                     d="m 305.08,661.752 c -4.407,-1.864 -13.39,7.289 -13.39,12.37 0,8.634 4.915,17.277 13.39,20.165 0,0 -3.728,-17.283 0,-18.14 3.897,-1.007 9.659,-10.497 0,-14.395 z"
                     fill="#e18d11"
                     stroke="#84530a"
                     stroke-width="1.63557"
                     id="path63"
                     style="fill:#222222;fill-opacity:1" /><path
                     d="m 303.842,664.787 c 6.766,2.363 1.056,8.426 -2.48,10.41 -2.145,3.733 -0.784,9.2 -0.858,12.53 -7.136,-7.104 -8.246,-19.254 3.338,-22.94 z"
                     fill="#ee9b21"
                     id="path64"
                     style="fill:#222222;fill-opacity:1" /><path
                     d="m 303.609,668.512 c -2.1,4.217 -7.124,4.936 -1.732,0.763 0.218,-0.052 1.923,-1.297 1.732,-0.763 z"
                     fill="#f0a83e"
                     id="path65"
                     style="fill:#222222;fill-opacity:1" /></g></g></g></g></g></g></g><g
       id="g77"
       transform="translate(-10.000022,-9.9999827)"
       style="display:inline"><path
         d="m 398.531,261.537 c -1.179,0.073 -2.365,0.108 -3.56,0.108 -26.055,0 -86.574,-13.366 -109.896,-33.408 -24.434,18.513 -85.95,33.408 -111.583,33.408 -1.2,0 -2.39,-0.148 -3.569,-0.363 -0.057,5.84 0.245,11.892 0.607,17.399 1.357,20.575 4.965,41.224 10.446,61.095 17.247,62.537 52.551,115.683 103.169,156 50.661,-40.35 86.003,-93.541 103.29,-156.128 5.486,-19.865 9.106,-40.514 10.475,-61.092 0.361,-5.39 0.66,-11.301 0.621,-17.02 z"
         fill="none"
         id="path71"
         style="display:inline" /><path
         d="m 398.531,261.537 c -1.179,0.073 -2.365,0.108 -3.56,0.108 -26.055,0 -86.574,-13.366 -109.896,-33.408 -24.434,18.513 -85.95,33.408 -111.583,33.408 -1.2,0 -2.39,-0.148 -3.569,-0.363 -0.057,5.84 0.245,11.892 0.607,17.399 1.357,20.575 4.965,41.224 10.446,61.095 17.247,62.537 52.551,115.683 103.169,156 50.661,-40.35 86.003,-93.541 103.29,-156.128 5.486,-19.865 9.106,-40.514 10.475,-61.092 0.361,-5.39 0.66,-11.301 0.621,-17.02 z"
         fill="none"
         id="path72" /><g
         fill="#ffffff"
         id="g74"
         style="display:inline"><path
           d="M 284.386,504.677 C 416.841,402.801 405.225,253.572 405.225,253.572 c -3.495,0.7 -6.815,1.049 -10.31,1.049 -27.784,0 -95.071,-15.895 -110.53,-36.085 -16.56,18.274 -83.26,36.085 -110.868,36.085 -3.495,0 -6.99,-0.35 -10.31,-1.05 0,0 -11.276,149.23 121.179,251.106 z"
           stroke="#705804"
           stroke-width="1.72784"
           id="path73" /><path
           d="m 398.473,261.565 a 57.315,57.315 0 0 1 -3.558,0.11 c -26.044,0 -86.54,-13.363 -109.857,-33.397 -24.425,18.508 -85.918,33.398 -111.541,33.398 -1.204,0 -2.39,-0.148 -3.567,-0.364 -0.06,5.838 0.244,11.888 0.607,17.391 1.355,20.57 4.962,41.212 10.44,61.075 17.242,62.515 52.532,115.64 103.131,155.942 50.644,-40.334 85.972,-93.51 103.252,-156.07 5.487,-19.86 9.106,-40.5 10.474,-61.069 0.359,-5.391 0.66,-11.298 0.619,-17.016 z"
           id="path74" /></g><path
         d="m 169.88,261.138 c 0,0 0.072,6.577 0.14,7.953 0.067,1.373 0.296,6.349 0.47,8.68 0.177,2.333 0.85,10.908 1.066,12.593 0.216,1.686 1.12,9.653 1.443,11.5 0.323,1.848 1.47,9.342 1.699,10.434 0.229,1.093 1.334,7.037 1.792,9.101 0.459,2.063 2.75,11.864 3.182,13.482 0.432,1.618 2.332,8.52 2.952,10.529 0.621,2.009 3.48,11.055 4.112,12.942 0.635,1.888 3.722,10.288 4.544,12.431 0.823,2.143 4.22,10.38 5.11,12.214 0.889,1.834 5.392,11.594 6.215,13.172 0.822,1.577 5.784,10.584 6.848,12.471 1.065,1.888 6.985,11.998 7.644,12.915 0.66,0.916 5.987,9.195 7.2,10.84 1.213,1.645 7.023,9.613 8.641,11.702 1.618,2.09 6.5,8.291 8.413,10.42 1.915,2.131 2.34,2.643 3.095,3.493 0.754,0.85 1.417,1.63 1.417,1.63 V 247.5 c -25.327,7.31 -50.344,13.563 -75.983,13.64 z"
         fill="#ce1126"
         fill-rule="evenodd"
         id="path75"
         style="fill:#cd1125;fill-opacity:1" /><path
         d="m 398.56,261.244 c 0,0 -0.039,5.015 -0.16,7.495 a 689.623,689.623 0 0 1 -0.54,9.708 c -0.188,2.87 -0.795,9.747 -1.036,11.728 -0.244,1.982 -1.012,8.98 -1.322,10.826 -0.31,1.847 -1.78,11.325 -2.036,12.511 -0.256,1.187 -1.982,9.856 -2.4,11.406 -0.419,1.55 -2.63,10.948 -3.384,13.629 -0.755,2.684 -3.356,11.676 -4.192,14.103 -0.837,2.426 -4.787,13.818 -5.312,15.154 -0.525,1.334 -4.381,10.664 -5.555,13.36 -1.173,2.696 -5.58,12.025 -6.485,13.805 -0.902,1.779 -6.592,12.457 -7.186,13.55 -0.592,1.092 -7.806,13.211 -8.815,14.682 -1.013,1.468 -8.415,12.145 -9.897,14.208 -1.483,2.063 -8.6,11.474 -10.516,13.671 -1.915,2.197 -5.595,6.566 -6.188,7.253 l -0.983,1.136 V 247.741 c 25.29,7.23 50.344,14.933 76.006,13.503 z"
         fill-rule="evenodd"
         id="path76" /><path
         d="m 398.473,261.565 a 57.31,57.31 0 0 1 -3.558,0.11 c -26.046,0 -87.203,-13.363 -110.52,-33.397 -24.425,18.507 -85.256,33.397 -110.878,33.397 -1.204,0 -2.39,-0.147 -3.567,-0.363 -0.06,5.838 0.244,11.887 0.607,17.391 1.355,20.57 4.962,41.21 10.44,61.073 17.242,62.517 52.789,115.643 103.388,155.943 50.642,-40.333 85.714,-93.51 102.995,-156.07 5.487,-19.86 9.106,-40.5 10.474,-61.069 0.359,-5.39 0.66,-11.297 0.619,-17.017 z"
         fill="none"
         stroke="#705804"
         stroke-width="1.49771"
         id="path77" /></g><g
       transform="matrix(0,0.4502,-0.4502,0,391.82498,1162.365)"
       id="g83"
       style="display:inline"><use
         xlink:href="#b"
         x="-250"
         width="100%"
         height="100%"
         transform="translate(104.841)"
         id="use77" /><g
         id="b"
         transform="rotate(-90,-767.118,1028.328)"
         fill="#007a3d"
         style="fill:#017b3d;fill-opacity:1"><g
           id="d"
           style="fill:#017b3d;fill-opacity:1"><path
             id="c"
             d="M 0,-60 V 0 h 30"
             transform="rotate(18,0,-60)"
             style="fill:#017b3d;fill-opacity:1" /><use
             xlink:href="#c"
             transform="scale(-1,1)"
             width="100%"
             height="100%"
             id="use78"
             style="fill:#017b3d;fill-opacity:1" /></g><use
           xlink:href="#d"
           transform="rotate(72)"
           width="100%"
           height="100%"
           id="use79"
           style="fill:#017b3d;fill-opacity:1" /><use
           xlink:href="#d"
           transform="rotate(144)"
           width="100%"
           height="100%"
           id="use80"
           style="fill:#017b3d;fill-opacity:1" /><use
           xlink:href="#d"
           transform="rotate(-144)"
           width="100%"
           height="100%"
           id="use81"
           style="fill:#017b3d;fill-opacity:1" /><use
           xlink:href="#d"
           transform="rotate(-72)"
           width="100%"
           height="100%"
           id="use82"
           style="fill:#017b3d;fill-opacity:1" /></g><use
         xlink:href="#b"
         x="250"
         width="100%"
         height="100%"
         transform="translate(-104.841)"
         id="use83"
         style="display:inline;stroke-width:0.999556;stroke-dasharray:none" /></g></g></svg>
