<?xml version="1.0" encoding="UTF-8" standalone="no"?>
<!-- Created with Inkscape (http://www.inkscape.org/) -->

<svg
   width="200"
   height="200"
   viewBox="0 0 52.916668 52.916666"
   version="1.1"
   id="svg8"
   inkscape:version="1.2.2 (b0a8486541, 2022-12-01)"
   sodipodi:docname="atheistic.svg"
   xmlns:inkscape="http://www.inkscape.org/namespaces/inkscape"
   xmlns:sodipodi="http://sodipodi.sourceforge.net/DTD/sodipodi-0.dtd"
   xmlns="http://www.w3.org/2000/svg"
   xmlns:svg="http://www.w3.org/2000/svg"
   xmlns:rdf="http://www.w3.org/1999/02/22-rdf-syntax-ns#"
   xmlns:cc="http://creativecommons.org/ns#"
   xmlns:dc="http://purl.org/dc/elements/1.1/">
  <defs
     id="defs2">
    <inkscape:path-effect
       effect="envelope"
       id="path-effect4658"
       is_visible="true"
       yy="true"
       xx="true"
       bendpath1="m -199.08406,108.42369 h 7.0057"
       bendpath2="m -192.07836,108.42369 v 6.75242"
       bendpath3="m -199.08406,115.17611 h 7.0057"
       bendpath4="m -199.08406,108.42369 v 6.75242" />
    <inkscape:path-effect
       effect="bend_path"
       id="path-effect4656"
       is_visible="true"
       bendpath="m -192.00142,114.60623 c 2.12577,-0.53066 4.48261,0.85111 7.0057,0"
       prop_scale="1"
       scale_y_rel="false"
       vertical="false"
       bendpath-nodetypes="cc" />
    <inkscape:path-effect
       effect="bounding_box"
       id="path-effect4654"
       is_visible="true"
       linkedpath=""
       visualbounds="false" />
  </defs>
  <sodipodi:namedview
     id="base"
     pagecolor="#ffffff"
     bordercolor="#666666"
     borderopacity="1.0"
     inkscape:pageopacity="0.0"
     inkscape:pageshadow="2"
     inkscape:zoom="3.6203867"
     inkscape:cx="86.59296"
     inkscape:cy="98.884464"
     inkscape:document-units="px"
     inkscape:current-layer="g5175"
     showgrid="false"
     fit-margin-top="0"
     fit-margin-left="0"
     fit-margin-right="0"
     fit-margin-bottom="0"
     inkscape:window-width="1920"
     inkscape:window-height="1012"
     inkscape:window-x="0"
     inkscape:window-y="0"
     inkscape:window-maximized="1"
     showguides="false"
     inkscape:object-nodes="true"
     units="px"
     inkscape:snap-page="true"
     inkscape:showpageshadow="2"
     inkscape:pagecheckerboard="0"
     inkscape:deskcolor="#d1d1d1" />
  <metadata
     id="metadata5">
    <rdf:RDF>
      <cc:Work
         rdf:about="">
        <dc:format>image/svg+xml</dc:format>
        <dc:type
           rdf:resource="http://purl.org/dc/dcmitype/StillImage" />
      </cc:Work>
    </rdf:RDF>
  </metadata>
  <g
     inkscape:label="Layer 1"
     inkscape:groupmode="layer"
     id="layer1"
     transform="translate(98.048812,-95.14345)">
    <g
       style="stroke-width:0.5"
       transform="matrix(2,0,0,2,-98.048812,95.143449)"
       id="g5175">
      <rect
         y="-1.110223e-16"
         x="0"
         height="26.458334"
         width="26.458334"
         id="rect5163"
         style="opacity:1;fill:#222222;fill-opacity:1;fill-rule:nonzero;stroke:none;stroke-width:0.25;stroke-linecap:butt;stroke-linejoin:round;stroke-miterlimit:4;stroke-dasharray:none;stroke-dashoffset:0;stroke-opacity:0.90944878;paint-order:normal"
         rx="1.984375"
         ry="1.984375" />
      <rect
         style="opacity:1;fill:#333333;fill-opacity:1;fill-rule:nonzero;stroke:none;stroke-width:0.25;stroke-linecap:butt;stroke-linejoin:round;stroke-miterlimit:4;stroke-dasharray:none;stroke-dashoffset:0;stroke-opacity:0.90944878;paint-order:normal"
         id="rect5165"
         width="23.8125"
         height="23.8125"
         x="1.322917"
         y="1.322917"
         rx="1.3229166"
         ry="1.3229166" />
      <path
         style="opacity:1;fill:#222222;fill-opacity:1;fill-rule:nonzero;stroke:none;stroke-width:0.24999997;stroke-linecap:butt;stroke-linejoin:round;stroke-miterlimit:4;stroke-dasharray:none;stroke-dashoffset:0;stroke-opacity:0.90944878;paint-order:normal"
         d="m 0.72760492,18.520836 v 4.167188 c 0,1.539081 1.23904398,2.778124 2.77812498,2.778124 H 22.952604 c 1.539081,0 2.778125,-1.239043 2.778125,-2.778124 v -4.167188 z"
         id="rect5205-3-6"
         inkscape:connector-curvature="0" />
      <text
         xml:space="preserve"
         style="font-size:4.49773px;fill:#222222;fill-opacity:1;stroke-width:0.187411"
         x="1.7300885"
         y="23.730652"
         id="text2040"><tspan
           sodipodi:role="line"
           id="tspan2038"
           style="font-style:normal;font-variant:normal;font-weight:bold;font-stretch:normal;font-family:'Gothic A1';-inkscape-font-specification:'Gothic A1 Bold';fill:#ffffff;fill-opacity:1;stroke-width:0.187411"
           x="1.7300885"
           y="23.730652">ATHEISTIC</tspan></text>
      <circle
         cx="13.229167"
         cy="9.8477888"
         r="1.5994234"
         fill="currentColor"
         id="circle2459"
         style="stroke-width:0.364001;fill:#ffffff;fill-opacity:1" />
      <path
         fill="currentColor"
         d="M 20.24321,5.7976952 C 19.726973,4.9042694 18.487594,4.5372184 16.751501,4.7613568 16.53122,4.7899722 16.304843,4.829648 16.074989,4.8761498 15.419568,3.0183856 14.398936,1.8397509 13.229325,1.8397509 c -1.171436,0 -2.193379,1.1825758 -2.848676,3.0455277 C 8.3870842,4.4902187 6.8086494,4.7711946 6.2151147,5.7976919 5.6235543,6.8220289 6.1638232,8.3235378 7.4940635,9.8477843 6.1638353,11.372038 5.6235543,12.873542 6.2150864,13.897878 6.6383671,14.631211 7.561893,14.986551 8.7809555,14.986551 A 8.3540935,8.3540935 0 0 0 10.38038,14.809624 c 0.655276,1.863337 1.677362,3.046217 2.848945,3.046217 1.169597,0 2.190228,-1.178642 2.845651,-3.036401 0.229849,0.04622 0.456231,0.08612 0.676511,0.114794 a 7.412785,7.412785 0 0 0 0.944219,0.06407 c 1.240963,0 2.130481,-0.378774 2.547515,-1.100388 0.591537,-1.0243 0.05118,-2.525841 -1.278687,-4.0500953 1.33002,-1.5242688 1.870244,-3.0257777 1.278676,-4.0501159 z M 16.858495,5.5813725 a 6.6109257,6.6109257 0 0 1 0.844229,-0.058557 c 0.917635,0 1.565054,0.2389967 1.825105,0.6888123 0.367106,0.6358022 -0.04843,1.7773336 -1.12977,3.0341503 A 14.928101,14.928101 0 0 0 16.722642,7.8241056 14.542013,14.542013 0 0 0 16.324353,5.686601 c 0.177622,-0.034123 0.363211,-0.082992 0.534145,-0.1052241 z m -2.236689,6.6788245 c -0.470633,0.271793 -0.934816,0.512109 -1.388265,0.723272 -0.465456,-0.216598 -0.932718,-0.455264 -1.397039,-0.723272 -0.472383,-0.272675 -0.913827,-0.555657 -1.324667,-0.843878 -0.04535,-0.499508 -0.07052,-1.022844 -0.07052,-1.5685286 0,-0.5456804 0.0252,-1.0690447 0.07052,-1.5685256 0.410839,-0.2882474 0.852281,-0.5711734 1.324667,-0.8438833 0.462188,-0.2667844 0.927353,-0.504736 1.390662,-0.720593 0.45622,0.2120885 0.921005,0.4470657 1.394658,0.720593 0.472531,0.2727852 0.914169,0.5558051 1.325104,0.8441808 0.04529,0.499398 0.07049,1.02268 0.07049,1.5682281 0,0.5455666 -0.0252,1.0688056 -0.07049,1.5682256 -0.410947,0.28836 -0.852585,0.571374 -1.32512,0.844181 z m 1.18519,0.243949 a 13.013533,13.013533 0 0 1 -0.284912,1.327938 13.442028,13.442028 0 0 1 -1.281374,-0.424117 c 0.264216,-0.136264 0.529352,-0.279113 0.794979,-0.432427 0.265313,-0.153158 0.521571,-0.31092 0.771336,-0.471388 z m -3.58474,0.905432 a 13.404937,13.404937 0 0 1 -1.285414,0.423293 13.002272,13.002272 0 0 1 -0.285204,-1.328962 c 0.249907,0.16057 0.50626,0.318403 0.771682,0.471664 0.265219,0.153157 0.531917,0.296391 0.798962,0.434023 z M 9.6433851,10.758054 A 13.385288,13.385288 0 0 1 8.6250546,9.8477904 13.387094,13.387094 0 0 1 9.6433851,8.9374752 c -0.014616,0.2987052 -0.023676,0.6015891 -0.023676,0.9103152 0,0.3087176 0.00909,0.6115926 0.023676,0.9102636 z M 10.65167,7.1916705 a 13.007431,13.007431 0 0 1 0.284649,-1.3266177 13.26588,13.26588 0 0 1 1.288108,0.419934 c -0.267722,0.1379572 -0.535081,0.281425 -0.80103,0.43507 -0.26547,0.1532646 -0.521823,0.3110853 -0.771736,0.4716634 z M 14.241141,6.2874922 A 13.459631,13.459631 0 0 1 15.52212,5.8635407 13.013533,13.013533 0 0 1 15.807034,7.191478 C 15.557271,7.0310149 15.301015,6.8732396 15.03573,6.7200889 14.770241,6.5667713 14.505251,6.4236961 14.241135,6.2874966 Z m 2.574162,2.6502962 a 13.396172,13.396172 0 0 1 1.017915,0.910002 13.386591,13.386591 0 0 1 -1.017936,0.9100046 c 0.01462,-0.298593 0.02367,-0.601331 0.02367,-0.9100046 0,-0.3086655 -0.0091,-0.6114534 -0.02367,-0.910002 z M 13.229325,2.6613339 c 0.726352,0 1.49687,0.8985991 2.04384,2.4100132 A 15.143626,15.143626 0 0 0 13.227914,5.8076557 14.938155,14.938155 0 0 0 11.184037,5.0755901 C 11.731153,3.5615379 12.50251,2.6613339 13.229325,2.6613339 Z M 6.9304512,6.2116109 C 7.1862212,5.7687815 7.8418391,5.5313874 8.7653337,5.5313874 A 7.4708581,7.4708581 0 0 1 10.136615,5.6780408 14.536611,14.536611 0 0 0 9.7359775,7.8242826 14.915873,14.915873 0 0 0 8.0603615,9.2459812 C 6.9787752,7.9891403 6.5632984,6.8474606 6.9304512,6.2116109 Z m 0,7.2723571 C 6.5632943,12.848117 6.9787631,11.70644 8.0603626,10.449571 a 14.925124,14.925124 0 0 0 1.675617,1.421705 14.51946,14.51946 0 0 0 0.4017094,2.1502 C 8.5015084,14.333773 7.299503,14.122951 6.9304482,13.483941 Z m 6.2988738,3.550276 c -0.727027,0 -1.498572,-0.900595 -2.04574,-2.415333 a 14.886418,14.886418 0 0 0 2.046818,-0.729859 15.143992,15.143992 0 0 0 2.042775,0.73513 c -0.546969,1.511417 -1.317487,2.410062 -2.043853,2.410062 z m 6.298504,-3.550276 c -0.334254,0.57714 -1.304997,0.807525 -2.669348,0.630245 -0.17094,-0.022 -0.356513,-0.07127 -0.534127,-0.105224 a 14.542734,14.542734 0 0 0 0.39829,-2.137562 14.927119,14.927119 0 0 0 1.675434,-1.421572 c 1.08139,1.256791 1.496846,2.39832 1.129768,3.034121 z"
         id="path2461"
         style="stroke-width:0.364001;fill:#ffffff;fill-opacity:1" />
    </g>
  </g>
</svg>
