<?xml version="1.0" encoding="UTF-8" standalone="no"?>
<!-- Created with Inkscape (http://www.inkscape.org/) -->

<svg
   width="200"
   height="200"
   viewBox="0 0 52.916668 52.916666"
   version="1.1"
   id="svg8"
   inkscape:version="1.2.2 (b0a8486541, 2022-12-01)"
   sodipodi:docname="buddhist.svg"
   xml:space="preserve"
   xmlns:inkscape="http://www.inkscape.org/namespaces/inkscape"
   xmlns:sodipodi="http://sodipodi.sourceforge.net/DTD/sodipodi-0.dtd"
   xmlns="http://www.w3.org/2000/svg"
   xmlns:svg="http://www.w3.org/2000/svg"
   xmlns:rdf="http://www.w3.org/1999/02/22-rdf-syntax-ns#"
   xmlns:cc="http://creativecommons.org/ns#"
   xmlns:dc="http://purl.org/dc/elements/1.1/"><defs
     id="defs2"><inkscape:path-effect
       effect="envelope"
       id="path-effect4658"
       is_visible="true"
       yy="true"
       xx="true"
       bendpath1="m -199.08406,108.42369 h 7.0057"
       bendpath2="m -192.07836,108.42369 v 6.75242"
       bendpath3="m -199.08406,115.17611 h 7.0057"
       bendpath4="m -199.08406,108.42369 v 6.75242" /><inkscape:path-effect
       effect="bend_path"
       id="path-effect4656"
       is_visible="true"
       bendpath="m -192.00142,114.60623 c 2.12577,-0.53066 4.48261,0.85111 7.0057,0"
       prop_scale="1"
       scale_y_rel="false"
       vertical="false"
       bendpath-nodetypes="cc" /><inkscape:path-effect
       effect="bounding_box"
       id="path-effect4654"
       is_visible="true"
       linkedpath=""
       visualbounds="false" /></defs><sodipodi:namedview
     id="base"
     pagecolor="#ffffff"
     bordercolor="#666666"
     borderopacity="1.0"
     inkscape:pageopacity="0.0"
     inkscape:pageshadow="2"
     inkscape:zoom="3.6203867"
     inkscape:cx="79.68762"
     inkscape:cy="108.82815"
     inkscape:document-units="px"
     inkscape:current-layer="g5175"
     showgrid="false"
     fit-margin-top="0"
     fit-margin-left="0"
     fit-margin-right="0"
     fit-margin-bottom="0"
     inkscape:window-width="1920"
     inkscape:window-height="1012"
     inkscape:window-x="0"
     inkscape:window-y="0"
     inkscape:window-maximized="1"
     showguides="false"
     inkscape:object-nodes="true"
     units="px"
     inkscape:snap-page="true"
     inkscape:showpageshadow="2"
     inkscape:pagecheckerboard="0"
     inkscape:deskcolor="#d1d1d1" /><metadata
     id="metadata5"><rdf:RDF><cc:Work
         rdf:about=""><dc:format>image/svg+xml</dc:format><dc:type
           rdf:resource="http://purl.org/dc/dcmitype/StillImage" /></cc:Work></rdf:RDF></metadata><g
     inkscape:label="Layer 1"
     inkscape:groupmode="layer"
     id="layer1"
     transform="translate(98.048812,-95.14345)"><g
       style="stroke-width:0.5"
       transform="matrix(2,0,0,2,-98.048812,95.143449)"
       id="g5175"><rect
         y="-1.110223e-16"
         x="0"
         height="26.458334"
         width="26.458334"
         id="rect5163"
         style="opacity:1;fill:#222222;fill-opacity:1;fill-rule:nonzero;stroke:none;stroke-width:0.25;stroke-linecap:butt;stroke-linejoin:round;stroke-miterlimit:4;stroke-dasharray:none;stroke-dashoffset:0;stroke-opacity:0.90944878;paint-order:normal"
         rx="1.984375"
         ry="1.984375" /><rect
         style="opacity:1;fill:#ffaacc;fill-opacity:1;fill-rule:nonzero;stroke:none;stroke-width:0.25;stroke-linecap:butt;stroke-linejoin:round;stroke-miterlimit:4;stroke-dasharray:none;stroke-dashoffset:0;stroke-opacity:0.90944878;paint-order:normal"
         id="rect5165"
         width="23.8125"
         height="23.8125"
         x="1.322917"
         y="1.322917"
         rx="1.3229166"
         ry="1.3229166" /><path
         style="opacity:1;fill:#222222;fill-opacity:1;fill-rule:nonzero;stroke:none;stroke-width:0.25;stroke-linecap:butt;stroke-linejoin:round;stroke-miterlimit:4;stroke-dasharray:none;stroke-dashoffset:0;stroke-opacity:0.909449;paint-order:normal"
         d="m 0.72760458,18.520836 v 4.167188 c 0,1.539081 1.23904402,2.778124 2.77812502,2.778124 H 22.952604 c 1.539081,0 2.778125,-1.239043 2.778125,-2.778124 v -4.167188 z"
         id="rect5205-3-6"
         inkscape:connector-curvature="0" /><text
         xml:space="preserve"
         style="font-size:4.69085px;fill:#222222;fill-opacity:1;stroke-width:0.195458"
         x="1.0141762"
         y="23.805241"
         id="text2040"><tspan
           sodipodi:role="line"
           id="tspan2038"
           style="font-style:normal;font-variant:normal;font-weight:bold;font-stretch:normal;font-family:'Gothic A1';-inkscape-font-specification:'Gothic A1 Bold';fill:#ffffff;fill-opacity:1;stroke-width:0.195458"
           x="1.0141762"
           y="23.805241">BUDDHIST</tspan></text></g></g><style
     type="text/css"
     id="style3491">
	.st0{fill-rule:evenodd;clip-rule:evenodd;fill:#007F00;}
</style><path
     fill="currentColor"
     d="m 45.112532,20.417684 a 2.1786059,2.1786059 0 0 0 -1.333513,-1.02825 11.664217,11.664217 0 0 0 -3.883252,-0.321329 c 0.750301,-3.314501 0.260276,-5.930114 -0.232963,-7.454816 a 2.2750044,2.2750044 0 0 0 -2.647745,-1.53113 13.527922,13.527922 0 0 0 -4.781365,2.106307 14.8775,14.8775 0 0 0 -4.421478,-5.5589794 2.2492981,2.2492981 0 0 0 -2.707191,0 14.893567,14.893567 0 0 0 -4.419871,5.5589794 13.527922,13.527922 0 0 0 -4.782971,-2.106307 2.2733977,2.2733977 0 0 0 -2.646139,1.532736 c -0.493239,1.524703 -0.983265,4.140316 -0.232963,7.454817 A 11.664217,11.664217 0 0 0 9.1398281,19.39104 2.1786059,2.1786059 0 0 0 7.8063157,20.419291 2.2492981,2.2492981 0 0 0 7.5813858,22.144824 c 0.5317984,1.972956 2.168966,5.722857 7.1367022,8.69675 4.967735,2.973894 9.377966,2.970681 11.741336,2.970681 2.36337,0 6.767174,0 11.738123,-2.970681 4.970949,-2.97068 6.604903,-6.723794 7.136701,-8.698357 A 2.2492981,2.2492981 0 0 0 45.112532,20.417684 M 32.963109,14.034497 a 11.74455,11.74455 0 0 1 4.456823,-2.072567 0.35346113,0.35346113 0 0 1 0.408087,0.240996 c 0.633017,1.963316 1.254788,6.024906 -1.701433,11.166159 a 20.854207,20.854207 0 0 1 -4.498596,5.361362 c 1.233901,-2.148079 2.221985,-5.051281 2.221985,-8.868661 a 18.653108,18.653108 0 0 0 -0.886866,-5.827289 m -17.87228,-1.826751 a 0.35346113,0.35346113 0 0 1 0.408087,-0.245816 11.74455,11.74455 0 0 1 4.456823,2.072567 18.653108,18.653108 0 0 0 -0.886866,5.827289 c 0,3.81738 0.988085,6.723795 2.218772,8.863842 a 20.822074,20.822074 0 0 1 -4.498596,-5.361363 c -2.953008,-5.136433 -2.331237,-9.198023 -1.69822,-11.156519 m 0.61695,16.977381 C 11.321647,26.564695 9.8997695,23.333739 9.4418767,21.633912 a 0.33418144,0.33418144 0 0 1 0.033739,-0.258669 0.27312906,0.27312906 0 0 1 0.1606642,-0.128532 9.9933099,9.9933099 0 0 1 3.9700111,-0.17191 20.243683,20.243683 0 0 0 1.515063,3.258268 22.653645,22.653645 0 0 0 6.58723,7.184901 18.444245,18.444245 0 0 1 -6.000806,-2.332843 m 10.751645,2.516001 c -1.394565,-0.996118 -5.462581,-4.530729 -5.462581,-11.839342 0,-6.966397 3.685635,-10.4977955 5.269784,-11.6931368 a 0.3213283,0.3213283 0 0 1 0.385594,0 c 1.584149,1.1953413 5.269784,4.7267398 5.269784,11.6931368 0,7.353598 -4.04713,10.84483 -5.462581,11.839342 M 43.473758,21.640339 c -0.457893,1.6934 -1.879771,4.924356 -6.265902,7.551214 a 18.444245,18.444245 0 0 1 -6.005626,2.324811 22.653645,22.653645 0 0 0 6.58723,-7.184901 20.243683,20.243683 0 0 0 1.523096,-3.256662 9.9933099,9.9933099 0 0 1 3.973225,0.178337 0.27312906,0.27312906 0 0 1 0.160664,0.128531 0.33418144,0.33418144 0 0 1 0.03053,0.25867 z"
     id="path8041"
     style="stroke-width:0.160664;fill:#222222;fill-opacity:1" /></svg>
