<?xml version="1.0" encoding="UTF-8" standalone="no"?>
<!-- Created with Inkscape (http://www.inkscape.org/) -->

<svg
   width="200"
   height="200"
   viewBox="0 0 52.916668 52.916666"
   version="1.1"
   id="svg8"
   inkscape:version="1.2.2 (b0a8486541, 2022-12-01)"
   sodipodi:docname="hindu.svg"
   xml:space="preserve"
   xmlns:inkscape="http://www.inkscape.org/namespaces/inkscape"
   xmlns:sodipodi="http://sodipodi.sourceforge.net/DTD/sodipodi-0.dtd"
   xmlns="http://www.w3.org/2000/svg"
   xmlns:svg="http://www.w3.org/2000/svg"
   xmlns:rdf="http://www.w3.org/1999/02/22-rdf-syntax-ns#"
   xmlns:cc="http://creativecommons.org/ns#"
   xmlns:dc="http://purl.org/dc/elements/1.1/"><defs
     id="defs2"><inkscape:path-effect
       effect="envelope"
       id="path-effect4658"
       is_visible="true"
       yy="true"
       xx="true"
       bendpath1="m -199.08406,108.42369 h 7.0057"
       bendpath2="m -192.07836,108.42369 v 6.75242"
       bendpath3="m -199.08406,115.17611 h 7.0057"
       bendpath4="m -199.08406,108.42369 v 6.75242" /><inkscape:path-effect
       effect="bend_path"
       id="path-effect4656"
       is_visible="true"
       bendpath="m -192.00142,114.60623 c 2.12577,-0.53066 4.48261,0.85111 7.0057,0"
       prop_scale="1"
       scale_y_rel="false"
       vertical="false"
       bendpath-nodetypes="cc" /><inkscape:path-effect
       effect="bounding_box"
       id="path-effect4654"
       is_visible="true"
       linkedpath=""
       visualbounds="false" /></defs><sodipodi:namedview
     id="base"
     pagecolor="#ffffff"
     bordercolor="#666666"
     borderopacity="1.0"
     inkscape:pageopacity="0.0"
     inkscape:pageshadow="2"
     inkscape:zoom="3.6203867"
     inkscape:cx="67.258009"
     inkscape:cy="105.23738"
     inkscape:document-units="px"
     inkscape:current-layer="g5175"
     showgrid="false"
     fit-margin-top="0"
     fit-margin-left="0"
     fit-margin-right="0"
     fit-margin-bottom="0"
     inkscape:window-width="1920"
     inkscape:window-height="1012"
     inkscape:window-x="0"
     inkscape:window-y="0"
     inkscape:window-maximized="1"
     showguides="false"
     inkscape:object-nodes="true"
     units="px"
     inkscape:snap-page="true"
     inkscape:showpageshadow="2"
     inkscape:pagecheckerboard="0"
     inkscape:deskcolor="#d1d1d1" /><metadata
     id="metadata5"><rdf:RDF><cc:Work
         rdf:about=""><dc:format>image/svg+xml</dc:format><dc:type
           rdf:resource="http://purl.org/dc/dcmitype/StillImage" /></cc:Work></rdf:RDF></metadata><g
     inkscape:label="Layer 1"
     inkscape:groupmode="layer"
     id="layer1"
     transform="translate(98.048812,-95.14345)"><g
       style="stroke-width:0.5"
       transform="matrix(2,0,0,2,-98.048812,95.143449)"
       id="g5175"><rect
         y="-1.110223e-16"
         x="0"
         height="26.458334"
         width="26.458334"
         id="rect5163"
         style="opacity:1;fill:#222222;fill-opacity:1;fill-rule:nonzero;stroke:none;stroke-width:0.25;stroke-linecap:butt;stroke-linejoin:round;stroke-miterlimit:4;stroke-dasharray:none;stroke-dashoffset:0;stroke-opacity:0.90944878;paint-order:normal"
         rx="1.984375"
         ry="1.984375" /><rect
         style="opacity:1;fill:#ff6600;fill-opacity:1;fill-rule:nonzero;stroke:none;stroke-width:0.25;stroke-linecap:butt;stroke-linejoin:round;stroke-miterlimit:4;stroke-dasharray:none;stroke-dashoffset:0;stroke-opacity:0.90944878;paint-order:normal"
         id="rect5165"
         width="23.8125"
         height="23.8125"
         x="1.322917"
         y="1.322917"
         rx="1.3229166"
         ry="1.3229166" /><path
         style="opacity:1;fill:#222222;fill-opacity:1;fill-rule:nonzero;stroke:none;stroke-width:0.25;stroke-linecap:butt;stroke-linejoin:round;stroke-miterlimit:4;stroke-dasharray:none;stroke-dashoffset:0;stroke-opacity:0.909449;paint-order:normal"
         d="m 0.72760458,18.520836 v 4.167188 c 0,1.539081 1.23904402,2.778124 2.77812502,2.778124 H 22.952604 c 1.539081,0 2.778125,-1.239043 2.778125,-2.778124 v -4.167188 z"
         id="rect5205-3-6"
         inkscape:connector-curvature="0" /><text
         xml:space="preserve"
         style="font-size:6.81151px;fill:#222222;fill-opacity:1;stroke-width:0.283821"
         x="2.1637893"
         y="24.564438"
         id="text2040"><tspan
           sodipodi:role="line"
           id="tspan2038"
           style="font-style:normal;font-variant:normal;font-weight:bold;font-stretch:normal;font-family:'Gothic A1';-inkscape-font-specification:'Gothic A1 Bold';fill:#ffffff;fill-opacity:1;stroke-width:0.283821"
           x="2.1637893"
           y="24.564438">HINDU</tspan></text></g></g><style
     type="text/css"
     id="style3491">
	.st0{fill-rule:evenodd;clip-rule:evenodd;fill:#007F00;}
</style><path
     d="m 18.495007,35.324302 c -3.49761,-1.249868 -6.037222,-4.359983 -7.042751,-8.624842 -0.456347,-1.935669 -0.585387,-5.134167 -0.207081,-5.134167 0.125688,0 0.461375,0.877645 0.745978,1.950324 0.622803,2.347257 1.68508,4.55451 2.711182,5.633438 1.704381,1.792106 5.925894,2.493977 8.35828,1.389642 1.894763,-0.860255 2.663132,-2.904873 1.839201,-4.89406 -0.636702,-1.537112 -2.081128,-2.051091 -4.771651,-1.697923 0,0 -1.648902,-1.774882 -2.174221,-4.926799 l 1.690108,0.153252 c 2.035619,0.184584 3.572561,-0.265386 4.370258,-1.279468 0.749589,-0.952951 0.733381,-1.32151 -0.100782,-2.291272 -1.203682,-1.39936 -3.364959,-1.044872 -7.740967,1.269654 l -2.207969,-3.70122 0.925667,-0.706044 c 2.319729,-1.769352 6.347569,-2.6538994 8.639821,-1.897385 2.087945,0.689079 3.620438,3.423322 3.211072,5.729045 -0.276772,1.558824 -1.526713,3.742134 -2.492399,4.353559 l -0.832803,0.527292 1.150344,0.518732 c 1.954803,0.88148 3.148171,0.207645 4.573958,-2.582685 1.973153,-3.861498 3.252883,-4.861135 6.228702,-4.865413 1.385598,-0.002 1.878755,0.143352 2.889369,0.851577 2.522275,1.767562 3.89565,5.427774 3.594001,9.578258 -0.382091,5.256582 -2.871977,8.444974 -6.594871,8.444974 -2.04316,0 -3.360105,-0.716608 -4.408427,-2.398821 -0.920783,-1.477619 -1.335727,-4.404068 -0.806943,-5.691413 0.253686,-0.617598 0.299543,-0.638545 0.316126,-0.14447 0.03049,0.908345 1.063895,2.384723 2.012648,2.875342 2.327821,1.203764 5.669578,-0.308639 6.991698,-3.164279 1.003795,-2.168057 0.465273,-6.349941 -0.912638,-7.087383 -0.288272,-0.15428 -1.000618,-0.280509 -1.582941,-0.280509 -1.237865,0 -2.209992,0.889933 -3.572908,3.270817 -0.471197,0.823151 -1.264186,1.886707 -1.762197,2.363454 -0.809139,0.774608 -1.098076,0.866811 -2.716354,0.866811 h -1.810941 l 0.585357,1.300217 c 0.837859,1.861074 0.798218,4.884896 -0.08815,6.725683 -0.783221,1.626604 -2.594161,3.273394 -4.041938,3.675583 -1.409378,0.391516 -3.704461,0.340897 -4.964833,-0.109496 z m 6.819518,-25.15363 C 24.513421,8.8036966 24.020407,6.2516345 24.557424,6.2516345 c 0.630797,1.3684966 1.923883,2.5894001 3.308445,3.4413001 2.486792,1.2038294 5.008403,0.7179224 7.763272,-1.49596 0.606479,-0.48737 1.143554,-0.8319006 1.193512,-0.7656242 0.67268,1.0439162 1.836269,1.8969822 2.220884,3.1100506 0,0.511827 -2.203316,1.984858 -3.941879,2.635331 -4.309145,1.241326 -7.241951,0.750282 -9.787133,-3.00606 z M 27.48606,7.0107927 30.291523,3.900044 33.409266,6.7861675 C 32.342856,7.664484 31.573044,9.0275896 30.354743,9.7188766 29.392102,9.0092376 27.955345,8.1725096 27.48606,7.0107927 Z"
     style="fill:#222222;stroke-width:0.0904722;fill-opacity:1"
     id="path8082" /></svg>
