<?xml version="1.0" encoding="UTF-8" standalone="no"?>
<!-- Created with Inkscape (http://www.inkscape.org/) -->

<svg
   width="200"
   height="200"
   viewBox="0 0 52.916668 52.916666"
   version="1.1"
   id="svg8"
   inkscape:version="1.2.2 (b0a8486541, 2022-12-01)"
   sodipodi:docname="pagan.svg"
   xml:space="preserve"
   xmlns:inkscape="http://www.inkscape.org/namespaces/inkscape"
   xmlns:sodipodi="http://sodipodi.sourceforge.net/DTD/sodipodi-0.dtd"
   xmlns="http://www.w3.org/2000/svg"
   xmlns:svg="http://www.w3.org/2000/svg"
   xmlns:rdf="http://www.w3.org/1999/02/22-rdf-syntax-ns#"
   xmlns:cc="http://creativecommons.org/ns#"
   xmlns:dc="http://purl.org/dc/elements/1.1/"><defs
     id="defs2"><inkscape:path-effect
       effect="envelope"
       id="path-effect4658"
       is_visible="true"
       yy="true"
       xx="true"
       bendpath1="m -199.08406,108.42369 h 7.0057"
       bendpath2="m -192.07836,108.42369 v 6.75242"
       bendpath3="m -199.08406,115.17611 h 7.0057"
       bendpath4="m -199.08406,108.42369 v 6.75242" /><inkscape:path-effect
       effect="bend_path"
       id="path-effect4656"
       is_visible="true"
       bendpath="m -192.00142,114.60623 c 2.12577,-0.53066 4.48261,0.85111 7.0057,0"
       prop_scale="1"
       scale_y_rel="false"
       vertical="false"
       bendpath-nodetypes="cc" /><inkscape:path-effect
       effect="bounding_box"
       id="path-effect4654"
       is_visible="true"
       linkedpath=""
       visualbounds="false" /></defs><sodipodi:namedview
     id="base"
     pagecolor="#ffffff"
     bordercolor="#666666"
     borderopacity="1.0"
     inkscape:pageopacity="0.0"
     inkscape:pageshadow="2"
     inkscape:zoom="3.6203867"
     inkscape:cx="56.347572"
     inkscape:cy="104.40874"
     inkscape:document-units="px"
     inkscape:current-layer="g5175"
     showgrid="false"
     fit-margin-top="0"
     fit-margin-left="0"
     fit-margin-right="0"
     fit-margin-bottom="0"
     inkscape:window-width="1920"
     inkscape:window-height="1012"
     inkscape:window-x="0"
     inkscape:window-y="0"
     inkscape:window-maximized="1"
     showguides="false"
     inkscape:object-nodes="true"
     units="px"
     inkscape:snap-page="true"
     inkscape:showpageshadow="2"
     inkscape:pagecheckerboard="0"
     inkscape:deskcolor="#d1d1d1" /><metadata
     id="metadata5"><rdf:RDF><cc:Work
         rdf:about=""><dc:format>image/svg+xml</dc:format><dc:type
           rdf:resource="http://purl.org/dc/dcmitype/StillImage" /></cc:Work></rdf:RDF></metadata><g
     inkscape:label="Layer 1"
     inkscape:groupmode="layer"
     id="layer1"
     transform="translate(98.048812,-95.14345)"><g
       style="stroke-width:0.5"
       transform="matrix(2,0,0,2,-98.048812,95.143449)"
       id="g5175"><rect
         y="-1.110223e-16"
         x="0"
         height="26.458334"
         width="26.458334"
         id="rect5163"
         style="opacity:1;fill:#222222;fill-opacity:1;fill-rule:nonzero;stroke:none;stroke-width:0.25;stroke-linecap:butt;stroke-linejoin:round;stroke-miterlimit:4;stroke-dasharray:none;stroke-dashoffset:0;stroke-opacity:0.90944878;paint-order:normal"
         rx="1.984375"
         ry="1.984375" /><rect
         style="opacity:1;fill:#6c6753;fill-opacity:1;fill-rule:nonzero;stroke:none;stroke-width:0.25;stroke-linecap:butt;stroke-linejoin:round;stroke-miterlimit:4;stroke-dasharray:none;stroke-dashoffset:0;stroke-opacity:0.90944878;paint-order:normal"
         id="rect5165"
         width="23.8125"
         height="23.8125"
         x="1.322917"
         y="1.322917"
         rx="1.3229166"
         ry="1.3229166" /><path
         style="opacity:1;fill:#222222;fill-opacity:1;fill-rule:nonzero;stroke:none;stroke-width:0.25;stroke-linecap:butt;stroke-linejoin:round;stroke-miterlimit:4;stroke-dasharray:none;stroke-dashoffset:0;stroke-opacity:0.909449;paint-order:normal"
         d="m 0.72760458,18.520836 v 4.167188 c 0,1.539081 1.23904402,2.778124 2.77812502,2.778124 H 22.952604 c 1.539081,0 2.778125,-1.239043 2.778125,-2.778124 v -4.167188 z"
         id="rect5205-3-6"
         inkscape:connector-curvature="0" /><text
         xml:space="preserve"
         style="font-size:6.45534px;fill:#222222;fill-opacity:1;stroke-width:0.268979"
         x="1.9764502"
         y="24.48674"
         id="text2040"><tspan
           sodipodi:role="line"
           id="tspan2038"
           style="font-style:normal;font-variant:normal;font-weight:bold;font-stretch:normal;font-family:'Gothic A1';-inkscape-font-specification:'Gothic A1 Bold';fill:#ffffff;fill-opacity:1;stroke-width:0.268979"
           x="1.9764502"
           y="24.48674">PAGAN</tspan></text></g></g><style
     type="text/css"
     id="style3491">
	.st0{fill-rule:evenodd;clip-rule:evenodd;fill:#007F00;}
</style><g
     id="g2204"
     transform="matrix(0.09345512,0,0,0.09345512,6.6384898,2.0709076)"><path
       id="path2201"
       d="m 200.32288,359.57624 c -11.89845,-9.40855 -22.21242,-19.4394 -24.40283,-23.73295 -2.6342,-5.16346 -2.41937,-9.46929 1.13375,-22.7238 3.48504,-13.00055 7.23974,-34.37325 8.95883,-50.99587 0.921,-8.90561 0.90939,-12.33048 -0.0534,-15.76942 -1.72091,-6.14649 -0.5409,-14.24007 3.31597,-22.7439 L 192.5,216.5 l -0.006,-40 C 192.486,123.4462 190.28541,105.91151 182.01905,93.029493 178.21115,87.095587 172.66779,82 170.02023,82 c -1.81574,0 -1.7893,0.273307 0.5348,5.528513 1.34473,3.040683 2.44497,7.135138 2.44497,9.098791 0,6.421196 -7.89797,11.377666 -18.11602,11.368956 -8.4381,-0.007 -14.62495,-6.15917 -17.62548,-17.526149 -1.67452,-6.343634 -2.06094,-6.954048 -4.2992,-6.791395 -12.76013,0.92727 -24.25248,2.590755 -33.426911,4.838453 -10.247573,2.510614 -11.457925,2.607924 -18.43609,1.482225 C 76.988635,89.336756 69.54906,88.907592 64.56391,89.045696 49.839754,89.453599 49.815136,89.447821 42.973821,83.979073 39.519217,81.217563 34.016789,77.332602 30.746203,75.345827 23.795861,71.123717 17.217891,62.845189 13.963786,54.224766 10.944657,46.226817 11.565146,36.375042 15.59594,28.310353 18.107173,23.285957 19.262372,22.114485 24.135993,19.65 c 6.677686,-3.376762 11.1017,-3.58971 16.574299,-0.797798 10.099313,5.152285 13.280808,10.141683 13.305021,20.865679 0.0084,3.730166 0.415191,7.413728 0.903932,8.185695 2.130208,3.364668 24.441295,-1.517071 47.565135,-10.407408 7.70859,-2.963693 16.26562,-5.893611 19.01562,-6.510929 23.96091,-5.378729 43.60624,-1.317131 67.92895,14.044051 7.49923,4.736193 6.55876,4.947258 15.32249,-3.438733 l 5.25145,-5.02509 5.77755,5.717266 C 218.9581,45.42723 222.34528,48 223.30751,48 c 0.96224,0 4.32419,-1.294114 7.47101,-2.875809 19.05148,-9.575917 35.04193,-13.045768 51.43531,-11.16122 11.91581,1.369816 18.90611,3.608114 42.28617,13.540073 19.25799,8.180881 26.60158,10.351441 37.91619,11.206964 7.51,0.567847 7.8751,0.500847 7.11531,-1.305724 -3.30723,-7.863625 -3.61014,-9.708491 -2.48442,-15.131079 1.34256,-6.467064 3.35304,-8.747336 9.15017,-10.378079 12.66616,-3.56301 26.45427,0.161447 31.20481,8.429074 4.01327,6.984528 5.82526,21.161504 3.9367,30.8008 -0.80349,4.101063 -11.2203,14.792238 -16.38926,16.820936 -1.89722,0.744619 -6.53286,2.6728 -10.30141,4.284848 -6.65369,2.846201 -7.52039,2.954956 -29.95781,3.759178 -23.42461,0.839605 -46.06724,-0.05097 -49.61857,-1.951583 -3.14382,-1.682522 -3.78514,-1.309054 -7.58651,4.417958 -1.99194,3.000983 -5.18165,6.825983 -7.08825,8.500003 -3.27556,2.87598 -3.93031,3.04366 -11.88469,3.04366 -10.50543,0 -13.03593,-1.1265 -16.09611,-7.16548 -3.06232,-6.043188 -3.04651,-9.657053 0.0691,-15.805502 l 2.48529,-4.904494 -3.23529,-0.319178 c -4.95669,-0.489001 -9.67028,0.784942 -12.40294,3.352139 -3.7467,3.519847 -10.13235,17.407995 -11.88216,25.842515 -2.39966,11.56695 -5.22269,32.94144 -6.5377,49.5 -1.52503,19.20314 -0.62556,55.48377 1.58669,64 0.97724,3.76198 1.90192,14.20609 2.47899,28 1.54468,36.9226 1.98924,42.28748 5.22347,63.03489 1.93746,12.42874 2.84858,21.16058 2.39993,23 C 241.27901,343.95727 215.64501,366 210.66177,366 c -1.21832,0 -5.87083,-2.89069 -10.33889,-6.42376 z"
       style="fill:#000000" /><path
       id="path2199"
       d="M 35.25,22.8125 C 34.071242,22.762281 32.706666,22.853436 31,23 c -4.513445,0.387603 -7.923601,2.971522 -10.96875,8.28125 -4.266619,7.439563 -4.250178,15.077293 0.09375,23.5 4.040135,7.833664 8.14618,12.773745 12.71875,15.28125 3.111139,1.706086 5.001663,1.932809 12.65625,1.5625 4.95,-0.239471 10.223496,-1.005438 11.71875,-1.6875 C 60.754678,68.324584 59.83771,67.012308 55.1875,67 47.283677,66.979078 34.076441,58.017999 29.90625,49.84375 c -3.56843,-6.994699 -2.099705,-8.879922 5,-6.375 5.88344,2.075797 6.50709,1.998197 10.5625,-1.5625 C 50.560455,37.435675 50.273395,34.314008 44.1875,28 40.566123,24.242885 38.786274,22.963157 35.25,22.8125 Z M 138.375,34.125 C 131.5011,34.18398 124.63925,35.36877 118,37.75 91.815767,47.141229 85.531737,49.182812 77.0625,51.03125 c -5.126485,1.118871 -14.092253,2.480371 -19.90625,3.03125 -5.813999,0.550878 -10.796301,1.233802 -11.0625,1.5 -0.266199,0.266198 0.23873,1.207479 1.125,2.09375 1.165817,1.165819 4.203789,1.739899 10.96875,2.09375 11.002015,0.575478 22.28162,-0.760634 40.6875,-4.84375 17.85423,-3.960738 35.90978,-5.373076 52.90625,-4.125 l 13.28125,0.96875 7.71875,5.125 c 8.3765,5.543532 11.88245,6.265646 14.78125,3.0625 2.37644,-2.625922 1.57237,-3.981072 -5.96875,-10.09375 C 168.67021,39.368199 153.49757,33.995233 138.375,34.125 Z m 248.03125,2.03125 c -5.01167,0.02442 -9.77755,2.114297 -12.46875,6.46875 L 371.84375,46 374,50.5 c 2.71774,5.61411 5.02887,5.821115 11.09375,1 2.41489,-1.919661 4.7239,-3.494662 5.09375,-3.5 1.34752,-0.01945 3.0274,7.332161 2.53125,11.03125 -0.28021,2.08909 -1.94522,5.922258 -3.71875,8.5 -3.60197,5.235279 -8.16775,7.741101 -17.25,9.5625 -3.1625,0.634222 -5.75,1.540909 -5.75,2 0,1.361898 4.1271,3.235987 10,4.53125 7.09277,1.564306 9.62009,1.618737 14.4375,0.28125 5.61968,-1.56022 14.37146,-10.21425 15.59375,-15.40625 1.19088,-5.058635 -0.53754,-17.584405 -3.125,-22.65625 -3.23606,-6.343186 -10.05642,-9.718903 -16.5,-9.6875 z M 276.125,40.84375 C 259.11903,40.88282 253.53722,42.5124 239.25,51.625 235.42582,54.06412 234,55.585879 234,57.25 c 0,2.395369 5.39326,9.75 7.15625,9.75 0.56275,0 4.2528,-1.523936 8.1875,-3.375 11.87737,-5.587659 24.98152,-7.770478 38.75,-6.5 4.86152,0.448594 18.643,3.059987 30.625,5.8125 38.17975,8.770675 47.67489,9.77362 57.59375,6.0625 4.92457,-1.842521 11.50091,-7 8.9375,-7 -0.60144,0 -3.92433,0.730101 -7.40625,1.625 -8.35835,2.148201 -21.45985,1.346209 -32.875,-2 -4.69286,-1.375657 -16.39287,-5.859403 -26,-9.96875 C 294.96227,41.387728 292.59682,40.805903 276.125,40.84375 Z M 210.3125,49 c -1.01727,0 -3.51783,1.371617 -5.53125,3.03125 -4.31468,3.556525 -16.11447,17.979289 -15.34375,18.75 0.29284,0.292848 2.69152,-1.462726 5.3125,-3.90625 2.62098,-2.443525 6.96333,-5.966075 9.65625,-7.8125 l 4.875,-3.375 3.3125,1.78125 c 1.81012,0.974809 8.14679,5.765323 14.09375,10.625 5.94696,4.859675 11.17505,8.852728 11.625,8.875 0.44997,0.02227 -0.0747,-1.20625 -1.15625,-2.71875 C 233.39125,68.984783 212.14938,49 210.3125,49 Z m -72.375,6.8125 c -11.23471,-0.0062 -24.16384,1.222406 -28.09375,3.28125 -0.91779,0.480825 -2.01398,2.339008 -2.40625,4.125 -0.50763,2.311216 -3.4669,5.949924 -10.3125,12.59375 l -9.625,9.34375 5.71875,-0.5 c 3.484215,-0.303523 7.59695,-1.51295 10.5,-3.09375 2.62477,-1.429266 8.60625,-6.110073 13.28125,-10.375 4.675,-4.264928 9.7375,-8.540512 11.25,-9.5 2.50162,-1.586956 2.75,-1.581814 2.75,-0.09375 0,0.8997 -2.06885,4.391149 -4.59375,7.75 -7.01512,9.332178 -1.82789,9.115445 14.78125,-0.59375 5.88178,-3.438305 12.18213,-7.107375 14,-8.15625 L 158.5,58.6875 154,57.28125 c -3.1937,-1.004254 -9.32168,-1.465002 -16.0625,-1.46875 z M 164.875,61 c -0.52619,0 -1.72244,1.341679 -2.65625,2.96875 -0.93381,1.627073 -3.4225,3.719429 -5.5,4.65625 -12.73705,5.743617 -17.76817,22.879684 -9.125,31.03125 1.87146,1.76501 4.41712,3.38643 5.65625,3.625 1.23911,0.23857 2.475,0.49067 2.75,0.5625 0.275,0.0718 2.10623,-0.3003 4.0625,-0.84375 1.95626,-0.54345 4.81441,-2.30859 6.375,-3.9375 2.76114,-2.882011 2.80919,-3.03979 1.15625,-5.5625 -2.42279,-3.697652 -7.48733,-6.495651 -11.78125,-6.5 -2.03004,-0.0021 -3.92332,-0.396984 -4.21875,-0.875 -0.29543,-0.478017 1.0006,-2.475313 2.90625,-4.4375 2.67975,-2.759243 4.56598,-3.697578 8.25,-4.1875 9.28591,-1.234896 12.72255,-2.745477 13.0625,-5.6875 0.25397,-2.19793 -0.61997,-3.411296 -4.84375,-6.75 C 168.13657,62.823786 165.40119,61 164.875,61 Z M 100.5,61.46875 C 99.300969,61.446626 95.215015,62.457177 90.59375,63.9375 85.312306,65.629298 80.397517,67 79.6875,67 c -0.710015,0 -4.940558,1.777942 -9.40625,3.9375 -4.465692,2.159561 -10.876035,4.687082 -14.21875,5.625 -6.389705,1.792862 -8.015398,4.18701 -4.3125,6.34375 2.598926,1.513738 11.430951,1.309655 19.25,-0.46875 4.332607,-0.985431 9.046691,-2.993474 12.6875,-5.375 7.023924,-4.594487 18.06979,-14.585786 17.15625,-15.53125 -0.0453,-0.04691 -0.17246,-0.05934 -0.34375,-0.0625 z m 180.09375,0.71875 c -11.59573,0.267923 -22.37277,2.936549 -29,7.5625 -6.92868,4.836379 -5.35176,6.940471 3.84375,5.09375 6.95456,-1.396677 9.25652,-0.764114 14.625,4 l 4.375,3.875 -2.5625,3.40625 C 269.39778,89.383412 266,95.344288 266,96.4375 c 0,1.016635 5.08944,3.83541 8.28125,4.59375 4.77084,1.1335 4.73727,1.12208 9.25,-1.0625 2.96994,-1.437719 4.68793,-3.135188 5.9375,-5.90625 1.72804,-3.832095 1.71432,-3.966427 -0.71875,-9.21875 -2.84693,-6.145718 -5.73527,-9.466793 -11.59375,-13.34375 -4.58103,-3.031592 -5.38537,-5.933941 -1.90625,-6.84375 2.86307,-0.748709 6.75697,1.859304 17.75,11.875 14.42621,13.143648 17.50528,14.068475 8,2.40625 -5.80308,-7.119924 -6.72395,-8.901046 -5.375,-10.25 0.94427,-0.944256 3.65036,0.787922 12.3125,7.78125 8.53934,6.8942 20.33508,13.232899 26.4375,14.21875 3.5742,0.577411 3.78746,0.482082 2.84375,-1.28125 -0.56129,-1.048799 -5.36388,-6.018277 -10.65625,-11.03125 -10.9067,-10.330905 -15.05639,-12.405517 -29.96875,-15 -5.29486,-0.921212 -10.72921,-1.309283 -16,-1.1875 z M 210.5,63 c -1.89918,0 -12.5,9.910755 -12.5,11.6875 0,1.036081 1.43555,0.444593 4.75,-1.96875 7.74316,-5.638012 7.94953,-5.628888 16.84375,2 C 233.40574,86.56579 234.4122,87.294649 234.84375,86 235.0673,85.329358 232.15267,81.632959 228.375,77.78125 220.31208,69.560312 212.37705,63 210.5,63 Z m 120,9.4375 c -0.17449,0.0095 -0.2984,0.0475 -0.34375,0.09375 -1.0217,1.04195 9.20926,9.980203 14.15625,12.375 5.23991,2.53659 19.93102,6.048352 24.1875,5.78125 1.83524,-0.115164 3,-0.725802 3,-1.59375 0,-2.349916 -19.99299,-11.87222 -30.84375,-14.6875 C 335.92057,73.177558 331.72144,72.3708 330.5,72.4375 Z m -120.84375,4.96875 c -0.54686,0.05955 -1.11886,0.300761 -1.84375,0.6875 -3.32314,1.77294 -11.59787,9.009504 -13.375,11.6875 -1.27574,1.922423 -0.18379,1.571842 7.0625,-2.25 C 206.22108,85.041256 210.76501,83 211.59375,83 c 2.39671,0 6.6142,2.505304 12.46875,7.40625 5.90606,4.944066 7.57976,5.69359 5.9375,2.625 -1.01705,-1.900373 -11.63825,-10.830398 -17.1875,-14.4375 -1.39893,-0.909325 -2.24482,-1.286753 -3.15625,-1.1875 z m -16.75,0.6875 C 192.08009,78.254125 191,79.281084 191,80.1875 c 0,0.66309 0.58086,0.569999 1.53125,-0.21875 0.83829,-0.695718 1.3142,-1.467051 1.0625,-1.71875 -0.17337,-0.173374 -0.41211,-0.209708 -0.6875,-0.15625 z M 204.5,93 c -1.8718,0 -8.5,7.69921 -8.5,9.875 0,1.03091 0.89592,13.28212 2,27.21875 1.48535,18.74909 1.97083,33.02621 1.84375,54.9375 -0.0945,16.28718 0.16467,30.1688 0.5625,30.8125 1.02796,1.66327 3.03044,1.43573 5.46875,-0.59375 2.03005,-1.68968 2.13574,-2.83583 2.71875,-33.25 0.57086,-29.78057 -0.72171,-81.85757 -2.15625,-86.75 C 206.07465,94.0125 205.19685,93 204.5,93 Z m 13.15625,1.15625 c -0.11359,0.01457 -0.18865,0.06365 -0.25,0.125 -1.65114,1.651136 -4.41741,110.47578 -3,118.03125 0.48224,2.57059 1.42083,4.08924 2.90625,4.6875 3.5262,1.42021 4.6252,1.14341 5.125,-1.25 0.25842,-1.2375 0.94573,-14.625 1.53125,-29.75 0.58551,-15.125 1.94418,-37.625 3.03125,-50 2.30733,-26.26624 2.43233,-31.613 0.71875,-35 -1.14881,-2.270668 -8.35862,-7.062294 -10.0625,-6.84375 z M 211.0625,222 c -5.11381,8.8e-4 -15.35153,4.34049 -18.46875,7.84375 -2.55667,2.87329 -1.25755,2.7736 9.9375,-0.8125 9.99092,-3.20038 10.71229,-3.17409 19.8125,0.9375 5.30162,2.39533 6.36323,2.2331 4.75,-0.78125 -1.65556,-3.09346 -10.77893,-7.18841 -16.03125,-7.1875 z m 0.28125,12.03125 c -4.10746,-0.0285 -13.18146,3.45511 -16.90625,6.5 L 191.5,242.9375 h 4 c 2.2,1.8e-4 6.65793,-0.63051 9.90625,-1.40625 5.60004,-1.33738 6.24769,-1.30971 12.5,0.9375 7.72506,2.77654 11.09375,3.11113 11.09375,1.09375 0,-2.95846 -12.1116,-9.49273 -17.65625,-9.53125 z M 214.5,247.3125 c -0.0998,0.006 -0.17308,0.0168 -0.21875,0.0625 -0.90923,0.90924 -0.9085,100.62634 0,103.875 0.42299,1.5125 1.23178,2.75 1.8125,2.75 0.58071,0 4.1069,-1.9889 7.84375,-4.40625 C 233.60689,343.33866 236,339.89379 236,332.125 c 0,-3.40537 -1.09618,-12.58854 -2.4375,-20.40625 -1.34131,-7.81769 -3.14979,-20.96875 -4.03125,-29.21875 -2.30072,-21.53356 -3.26726,-27.45137 -4.65625,-29.125 -1.67388,-2.0169 -8.87827,-6.15519 -10.375,-6.0625 z m -9.21875,1.03125 c -0.83109,-0.0716 -2.37986,0.15749 -4,0.59375 -5.88224,1.58392 -5.95378,1.75588 -11.3125,31.875 -2.21551,12.45241 -5.20775,26.92277 -6.625,32.125 -3.47817,12.76722 -2.98347,17.50298 2.375,23.84375 5.42679,6.42161 17.88636,17.21875 19.875,17.21875 1.47152,0 1.57571,-4.66543 1.25,-52.40625 -0.19669,-28.82919 -0.64302,-52.70556 -1,-53.0625 -0.0892,-0.0892 -0.28547,-0.16363 -0.5625,-0.1875 z"
       style="fill:#ffffff" /></g></svg>
