<?xml version="1.0" encoding="UTF-8" standalone="no"?>
<!-- Created with Inkscape (http://www.inkscape.org/) -->

<svg
   width="200"
   height="200"
   viewBox="0 0 52.916668 52.916666"
   version="1.1"
   id="svg8"
   inkscape:version="1.2.2 (b0a8486541, 2022-12-01)"
   sodipodi:docname="shia.svg"
   xml:space="preserve"
   xmlns:inkscape="http://www.inkscape.org/namespaces/inkscape"
   xmlns:sodipodi="http://sodipodi.sourceforge.net/DTD/sodipodi-0.dtd"
   xmlns="http://www.w3.org/2000/svg"
   xmlns:svg="http://www.w3.org/2000/svg"
   xmlns:rdf="http://www.w3.org/1999/02/22-rdf-syntax-ns#"
   xmlns:cc="http://creativecommons.org/ns#"
   xmlns:dc="http://purl.org/dc/elements/1.1/"><defs
     id="defs2"><inkscape:path-effect
       effect="envelope"
       id="path-effect4658"
       is_visible="true"
       yy="true"
       xx="true"
       bendpath1="m -199.08406,108.42369 h 7.0057"
       bendpath2="m -192.07836,108.42369 v 6.75242"
       bendpath3="m -199.08406,115.17611 h 7.0057"
       bendpath4="m -199.08406,108.42369 v 6.75242" /><inkscape:path-effect
       effect="bend_path"
       id="path-effect4656"
       is_visible="true"
       bendpath="m -192.00142,114.60623 c 2.12577,-0.53066 4.48261,0.85111 7.0057,0"
       prop_scale="1"
       scale_y_rel="false"
       vertical="false"
       bendpath-nodetypes="cc" /><inkscape:path-effect
       effect="bounding_box"
       id="path-effect4654"
       is_visible="true"
       linkedpath=""
       visualbounds="false" /></defs><sodipodi:namedview
     id="base"
     pagecolor="#ffffff"
     bordercolor="#666666"
     borderopacity="1.0"
     inkscape:pageopacity="0.0"
     inkscape:pageshadow="2"
     inkscape:zoom="3.6203867"
     inkscape:cx="72.78228"
     inkscape:cy="108.82815"
     inkscape:document-units="px"
     inkscape:current-layer="g5175"
     showgrid="false"
     fit-margin-top="0"
     fit-margin-left="0"
     fit-margin-right="0"
     fit-margin-bottom="0"
     inkscape:window-width="1920"
     inkscape:window-height="1012"
     inkscape:window-x="0"
     inkscape:window-y="0"
     inkscape:window-maximized="1"
     showguides="false"
     inkscape:object-nodes="true"
     units="px"
     inkscape:snap-page="true"
     inkscape:showpageshadow="2"
     inkscape:pagecheckerboard="0"
     inkscape:deskcolor="#d1d1d1" /><metadata
     id="metadata5"><rdf:RDF><cc:Work
         rdf:about=""><dc:format>image/svg+xml</dc:format><dc:type
           rdf:resource="http://purl.org/dc/dcmitype/StillImage" /></cc:Work></rdf:RDF></metadata><g
     inkscape:label="Layer 1"
     inkscape:groupmode="layer"
     id="layer1"
     transform="translate(98.048812,-95.14345)"><g
       style="stroke-width:0.5"
       transform="matrix(2,0,0,2,-98.048812,95.143449)"
       id="g5175"><rect
         y="-1.110223e-16"
         x="0"
         height="26.458334"
         width="26.458334"
         id="rect5163"
         style="opacity:1;fill:#222222;fill-opacity:1;fill-rule:nonzero;stroke:none;stroke-width:0.25;stroke-linecap:butt;stroke-linejoin:round;stroke-miterlimit:4;stroke-dasharray:none;stroke-dashoffset:0;stroke-opacity:0.90944878;paint-order:normal"
         rx="1.984375"
         ry="1.984375" /><rect
         style="opacity:1;fill:#a02c2c;fill-opacity:1;fill-rule:nonzero;stroke:none;stroke-width:0.25;stroke-linecap:butt;stroke-linejoin:round;stroke-miterlimit:4;stroke-dasharray:none;stroke-dashoffset:0;stroke-opacity:0.90944878;paint-order:normal"
         id="rect5165"
         width="23.8125"
         height="23.8125"
         x="1.322917"
         y="1.322917"
         rx="1.3229166"
         ry="1.3229166" /><path
         style="opacity:1;fill:#222222;fill-opacity:1;fill-rule:nonzero;stroke:none;stroke-width:0.24999997;stroke-linecap:butt;stroke-linejoin:round;stroke-miterlimit:4;stroke-dasharray:none;stroke-dashoffset:0;stroke-opacity:0.90944878;paint-order:normal"
         d="m 0.72760492,18.520836 v 4.167188 c 0,1.539081 1.23904398,2.778124 2.77812498,2.778124 H 22.952604 c 1.539081,0 2.778125,-1.239043 2.778125,-2.778124 v -4.167188 z"
         id="rect5205-3-6"
         inkscape:connector-curvature="0" /><text
         xml:space="preserve"
         style="font-size:6.16544px;fill:#222222;fill-opacity:1;stroke-width:0.256901"
         x="5.8234134"
         y="24.374773"
         id="text2040"><tspan
           sodipodi:role="line"
           id="tspan2038"
           style="font-style:normal;font-variant:normal;font-weight:bold;font-stretch:normal;font-family:'Gothic A1';-inkscape-font-specification:'Gothic A1 Bold';fill:#ffffff;fill-opacity:1;stroke-width:0.256901"
           x="5.8234134"
           y="24.374773">SHIA</tspan></text></g></g><style
     type="text/css"
     id="style3491">
	.st0{fill-rule:evenodd;clip-rule:evenodd;fill:#007F00;}
</style><path
     d="m 13.923517,27.517568 c -1.055928,-0.159553 -1.568194,-1.347011 -0.959816,-2.224838 0.153825,-0.221981 0.423038,-0.419555 0.712758,-0.523138 0.147607,-0.05277 0.168815,-0.08639 0.166392,-0.26374 -0.0014,-0.111792 -0.02499,-1.733557 -0.02499,-1.733557 l -0.233668,-0.08158 C 13.43094,22.637215 13.290779,22.530582 13.176936,22.38087 L 13.003342,22.152594 12.897015,22.3141 c -0.127885,0.194253 -0.407026,0.37834 -0.57369,0.37834 -0.191021,0 -0.418002,-0.142573 -0.562338,-0.353221 l -0.132726,-0.193703 -0.184809,0.215916 c -0.322709,0.377018 -0.801211,0.344974 -1.0745,-0.07194 l -0.12074,-0.184193 -0.236837,0.250668 c -0.2051168,0.21709 -0.2670139,0.250666 -0.4620698,0.250666 -0.1811459,0 -0.263531,-0.03713 -0.4209187,-0.189682 -0.1076377,-0.104325 -0.2107749,-0.237194 -0.2292202,-0.29526 -0.029157,-0.09188 -0.051035,-0.07979 -0.1685714,0.09318 -0.3189523,0.469373 -0.816005,0.477138 -1.1308237,0.01769 L 7.4700456,22.043236 7.2388115,22.284565 c -0.1991177,0.207811 -0.2627963,0.241328 -0.458566,0.241328 -0.2488208,0 -0.4851545,-0.155984 -0.6210545,-0.409923 L 6.082619,21.972899 5.9513068,22.152231 c -0.1429713,0.195252 -0.4262278,0.37366 -0.5932693,0.37366 -0.3444285,0 -0.7040072,-0.507524 -0.9048142,-1.277026 -0.1242043,-0.475984 -0.1255162,-1.648064 -0.0025,-2.206582 0.181217,-0.822427 0.6129747,-1.458044 0.9903906,-1.458044 0.2228835,0 0.4389665,0.132149 0.599754,0.366798 l 0.1299734,0.189684 0.1611448,-0.219125 c 0.3119433,-0.424173 0.7081628,-0.420437 1.0657486,0.01006 l 0.1841125,0.221645 0.1241304,-0.174325 c 0.2962678,-0.416072 0.7070929,-0.432713 1.0338099,-0.04185 l 0.1981918,0.23711 0.2394819,-0.239461 c 0.1951983,-0.195198 0.2771081,-0.239461 0.4430577,-0.239461 0.2495119,0 0.4377481,0.117244 0.5938991,0.369905 l 0.118567,0.191846 0.133858,-0.196988 c 0.301639,-0.443897 0.714688,-0.467443 1.05515,-0.06016 l 0.204243,0.24433 0.199083,-0.222988 c 0.156876,-0.175703 0.249701,-0.22964 0.437853,-0.254402 0.229955,-0.03025 0.248904,-0.02089 0.51359,0.25371 0.151149,0.156815 0.27482,0.263152 0.27482,0.236313 0,-0.02684 0.103856,-0.152661 0.230794,-0.279585 l 0.230821,-0.230794 c 0,0 -0.10201,-2.154749 -0.154423,-2.299966 -0.2386,-0.660883 0.108009,-1.453658 0.766207,-1.752506 0.257194,-0.116774 0.725497,-0.139299 1.045919,-0.0503 0.297442,0.08261 0.739577,0.503474 0.86022,0.818838 0.120757,0.315678 0.12266,0.796048 0.0042,1.075024 -0.137182,0.323233 -0.45949,0.637253 -0.798169,0.777623 l -0.30762,0.127494 c 0,0 0.09362,2.295349 0.113139,2.314655 0.03305,0.03252 1.324033,0.08166 5.67101,0.215852 9.877471,0.304913 16.198808,0.09394 19.016686,-0.634673 2.120753,-0.548361 3.535147,-1.359057 5.385822,-3.086696 0.83166,-0.776469 1.156782,-1.018112 1.30607,-0.970729 0.07695,0.02442 0.106394,0.06709 0.08492,0.123051 -0.0299,0.07792 -1.361134,2.50373 -1.672763,3.048084 l -0.131006,0.228863 1.753724,-0.35576 c 0.964538,-0.195669 1.823205,-0.391687 1.908133,-0.435608 0.174658,-0.09032 0.24181,-0.04653 0.303087,0.197631 0.03079,0.122674 6.29e-4,0.163893 -0.231508,0.317441 -0.146789,0.09705 -0.554216,0.429775 -0.905402,0.739388 -1.305691,1.151117 -2.121802,1.722436 -3.248071,2.274155 -1.764468,0.864208 -3.521927,1.27606 -6.496143,1.522404 -2.081973,0.172427 -3.169168,0.20837 -7.143953,0.236188 -4.075305,0.02851 -7.382344,-0.01853 -12.754946,-0.181483 -1.508282,-0.04574 -2.747998,-0.07628 -2.754922,-0.06786 -0.0069,0.0085 0.139582,3.498843 0.213481,3.664206 0.103538,0.231591 0.120072,0.690745 0.0358,0.994126 -0.06916,0.248967 -0.433552,0.671397 -0.680064,0.788389 -0.283341,0.134454 -0.598201,0.185811 -0.879003,0.143381 z m 21.658708,-5.905832 c 3.999967,-0.205483 5.855679,-0.497263 7.690614,-1.209182 0.970897,-0.376661 1.996585,-0.953457 2.824803,-1.588445 0.405222,-0.310705 1.756116,-1.468768 1.736307,-1.488452 -0.0049,-0.0049 -0.72514,0.134767 -1.600534,0.310307 -1.491305,0.299038 -1.596733,0.31316 -1.672952,0.224142 -0.07334,-0.08565 1.12e-4,-0.241476 0.74539,-1.582213 0.454706,-0.817957 0.819616,-1.494328 0.810907,-1.503036 -0.0087,-0.0087 -0.352466,0.295827 -0.763942,0.676706 -1.365604,1.264142 -2.431331,1.994486 -3.679944,2.521778 -2.02185,0.853883 -4.220311,1.175585 -9.14614,1.338324 -2.049845,0.06772 -7.482863,0.03707 -10.658746,-0.06012 -0.992468,-0.03038 -2.629011,-0.08043 -3.636715,-0.111246 -1.007746,-0.03081 -2.119494,-0.0711 -2.470785,-0.08952 l -0.638513,-0.0335 c 0,0 0.107509,2.378869 0.142353,2.400274 0.03178,0.01964 0.712338,0.05217 1.512353,0.07228 0.800014,0.02011 2.366488,0.06329 3.481216,0.09593 5.930386,0.173731 12.238922,0.184385 15.324359,0.02588 z"
     fill="#039703"
     stroke-width="0.0555224"
     id="path4232"
     style="fill:#222222;fill-opacity:1" /><path
     style="fill:#222222;fill-opacity:1;stroke-width:0.0270636"
     d="m 24.763476,21.855361 c -1.502054,-0.02383 -3.207863,-0.06402 -5.20425,-0.122611 -0.75554,-0.02218 -1.843281,-0.05344 -2.417201,-0.06949 -0.573922,-0.01604 -1.293137,-0.04122 -1.59826,-0.05594 -0.305122,-0.01472 -0.575866,-0.02679 -0.601653,-0.02684 -0.02579,-5.5e-5 -0.05745,-0.02924 -0.07037,-0.06489 -0.0215,-0.05936 -0.08328,-1.077419 -0.128545,-2.118599 l -0.01838,-0.422823 0.08199,7e-6 c 0.04509,2e-6 0.318512,0.01219 0.607603,0.02707 1.002977,0.05166 5.160744,0.190387 7.539467,0.251576 3.136301,0.08067 8.882021,0.07383 10.685885,-0.01273 3.813094,-0.182978 5.636803,-0.443913 7.371879,-1.05476 1.712395,-0.60286 2.855876,-1.354223 4.621668,-3.036814 0.669022,-0.637499 0.760388,-0.721357 0.785958,-0.721357 0.0267,0 -0.0064,0.06536 -0.741758,1.469463 -0.882586,1.684967 -0.928423,1.793554 -0.785888,1.861714 0.08877,0.04245 0.263927,0.01284 1.824807,-0.308332 1.554892,-0.319949 1.466171,-0.303079 1.466171,-0.278805 0,0.04392 -1.442458,1.332541 -1.862433,1.663808 -1.586299,1.251234 -3.467449,2.063461 -5.679766,2.452359 -1.721708,0.302658 -4.29439,0.497912 -7.51578,0.570414 -1.360681,0.03063 -6.369203,0.02917 -8.361143,-0.0025 z"
     id="path4461" /></svg>
